<?xml version="1.0" ?><!-- Uploaded to: SVG Repo, www.svgrepo.com, Generator: SVG Repo Mixer Tools -->
<svg width="800px" height="800px" viewBox="0 0 150 150" id="ART" xmlns="http://www.w3.org/2000/svg"><defs><style>.cls-1{fill:none;}.cls-1,.cls-2,.cls-4{stroke:#000000;stroke-linecap:round;stroke-linejoin:round;stroke-width:4px;}.cls-2{fill:#880d9e;}.cls-3{fill:#ffffff;}.cls-4{fill:#478413;}</style></defs><title/><path class="cls-1" d="M75.21,50.92c2.63-10.87,3.5-36.5-6.62-45.13"/><circle class="cls-2" cx="74.88" cy="124.16" r="20.05"/><circle class="cls-2" cx="54.84" cy="93.38" r="20.05"/><circle class="cls-2" cx="94.93" cy="93.38" r="20.05"/><circle class="cls-2" cx="34.91" cy="62.14" r="20.05"/><circle class="cls-2" cx="75" cy="62.14" r="20.05"/><circle class="cls-2" cx="115.09" cy="62.14" r="20.05"/><circle class="cls-3" cx="71.64" cy="119.22" r="7.3"/><circle class="cls-3" cx="51.59" cy="88.43" r="7.3"/><circle class="cls-3" cx="91.68" cy="88.43" r="7.3"/><circle class="cls-3" cx="31.55" cy="57.2" r="7.3"/><circle class="cls-3" cx="71.64" cy="57.2" r="7.3"/><circle class="cls-3" cx="111.73" cy="57.2" r="7.3"/><path class="cls-4" d="M74.63,39.88c5-15.8-26.78-32.17-44.7-20.06C42.49,30.12,48.15,53.6,74.63,39.88Z"/></svg>