<?xml version="1.0" ?>
<!DOCTYPE svg  PUBLIC '-//W3C//DTD SVG 1.1//EN'  'http://www.w3.org/Graphics/SVG/1.1/DTD/svg11.dtd'>
<!-- Uploaded to: SVG Repo, www.svgrepo.com, Generator: SVG Repo Mixer Tools -->
<svg fill="#000000" width="800px" height="800px" viewBox="0 0 50 50" enable-background="new 0 0 50 50" version="1.1" xml:space="preserve" xmlns="http://www.w3.org/2000/svg" xmlns:xlink="http://www.w3.org/1999/xlink">
<g id="Layer_13"/>
<g id="Layer_12"/>
<g id="Layer_11"/>
<g id="Layer_10"/>
<g id="Layer_9"/>
<g id="Layer_8">
<path clip-rule="evenodd" d="M26.728,13.644c-0.187-2.236,0.871-3.191,2.534-4.328   c-0.109-2.004,0-3.443,1.882-4.65c1.37-0.878,3.383-1.406,5.884-1.662c-0.056,0.408-0.219,0.938-0.319,1.351   c2.291,0.92,3.232,1.495,4.872,3.434c-0.188,0.309-1.095,0.98-1.413,1.242c2.009,2.423,3.897,4.754,4.532,7.951   c-2.898,1.426-5.913,1.349-9.045,1.219c-0.015,0.427,0.009,1.519-0.121,1.876c-2.526-0.13-3.568-0.537-5.677-1.802   c-0.275,0.34-0.577,0.76-0.872,1.072C27.67,17.194,26.865,15.269,26.728,13.644 M24.322,16.149   c-1.233,0.154-2.344,0.697-3.207,1.503c-0.946-1.923-2.065-3.325-3.082-5.091c1.753-1.519,4.309-2.454,6.61-2.693   C23.555,11.82,23.687,14.079,24.322,16.149z M24.289,48.322c1.558-1.557,2.087-3.869,1.374-5.944   c3.375-0.592,5.488-4.017,4.522-7.295c3.402-0.591,5.511-4.042,4.521-7.338c3.018-0.661,4.958-3.596,4.433-6.617   c3.454-0.13,5.733-0.828,8.644-2.618c-0.386-3.76-1.436-6.228-3.736-9.257c0.515-0.851,0.512-1.526,0.387-2.489   c-1.309-1.637-2.659-3.132-4.53-4.148C39.838,1.452,39.322,0.86,38.611,0C33.95,0.326,27.266,1.285,26.426,6.966   c-3.227-0.175-6.892,0.917-9.506,2.827c-0.157-0.572-0.309-1.233-0.458-2.015c3.257-1.166,5.341-2.608,8.182-4.317   c-0.302-1.249-1.469-2.227-2.601-2.582c-4.667,5.177-10.1,6.691-16.86,4.575C4.542,6.231,4.421,8.723,4.5,9.561   c3.45-0.076,6.399-0.292,9.197-0.959c0.654,3.3,1.291,4.622,3.106,7.307c-1.692-0.128-3.326,0.476-4.526,1.676   c-0.746-1.23-2.926-1.978-4.302-1.978c-5.106,0-7.686,6.215-4.071,9.83c0.72,0.72,1.63,1.251,2.65,1.509   c-1.215,3.232,0.69,6.82,4.052,7.622c-1.158,3.276,0.85,6.855,4.261,7.557c-0.847,2.123-0.344,4.575,1.279,6.197   C18.383,50.559,22.051,50.559,24.289,48.322z" fill-rule="evenodd"/>
</g>
<g id="Layer_7"/>
<g id="Layer_6"/>
<g id="Layer_5"/>
<g id="Layer_4"/>
<g id="Layer_3"/>
<g id="Layer_2"/>
</svg>