<?xml version="1.0" ?>
<!-- Uploaded to: SVG Repo, www.svgrepo.com, Generator: SVG Repo Mixer Tools -->
<svg width="800px" height="800px" viewBox="0 0 64 64" id="SVGRoot" version="1.1" xmlns="http://www.w3.org/2000/svg" xmlns:cc="http://creativecommons.org/ns#" xmlns:dc="http://purl.org/dc/elements/1.1/" xmlns:inkscape="http://www.inkscape.org/namespaces/inkscape" xmlns:rdf="http://www.w3.org/1999/02/22-rdf-syntax-ns#" xmlns:sodipodi="http://sodipodi.sourceforge.net/DTD/sodipodi-0.dtd" xmlns:svg="http://www.w3.org/2000/svg">
<title id="title7560"/>
<defs id="defs7542"/>
<g id="layer1">
<path d="m 19.978516,34.083984 c -2.292642,0 -4.375456,0.566952 -5.919922,1.521485 -1.544466,0.954532 -2.580078,2.337939 -2.580078,3.921875 0,1.583935 1.035612,2.967342 2.580078,3.921875 1.544466,0.954532 3.62728,1.523437 5.919922,1.523437 2.292641,0 4.375455,-0.568905 5.919922,-1.523437 1.544466,-0.954533 2.580078,-2.33794 2.580078,-3.921875 0,-1.583936 -1.035612,-2.967343 -2.580078,-3.921875 -1.544467,-0.954533 -3.627281,-1.521485 -5.919922,-1.521485 z m 0,1 c 2.125636,0 4.043567,0.538105 5.394531,1.373047 1.350964,0.834942 2.105469,1.923602 2.105469,3.070313 0,1.14671 -0.754505,2.237323 -2.105469,3.072265 -1.350964,0.834942 -3.268895,1.373047 -5.394531,1.373047 -2.125637,0 -4.041614,-0.538105 -5.392578,-1.373047 -1.350965,-0.834942 -2.107422,-1.925555 -2.107422,-3.072265 0,-1.146711 0.756457,-2.235371 2.107422,-3.070313 1.350964,-0.834942 3.266941,-1.373047 5.392578,-1.373047 z" id="path1769" style="color:#000000;font-style:normal;font-variant:normal;font-weight:normal;font-stretch:normal;font-size:medium;line-height:normal;font-family:sans-serif;font-variant-ligatures:normal;font-variant-position:normal;font-variant-caps:normal;font-variant-numeric:normal;font-variant-alternates:normal;font-feature-settings:normal;text-indent:0;text-align:start;text-decoration:none;text-decoration-line:none;text-decoration-style:solid;text-decoration-color:#000000;letter-spacing:normal;word-spacing:normal;text-transform:none;writing-mode:lr-tb;direction:ltr;text-orientation:mixed;dominant-baseline:auto;baseline-shift:baseline;text-anchor:start;white-space:normal;shape-padding:0;clip-rule:nonzero;display:inline;overflow:visible;visibility:visible;opacity:1;isolation:auto;mix-blend-mode:normal;color-interpolation:sRGB;color-interpolation-filters:linearRGB;solid-color:#000000;solid-opacity:1;vector-effect:none;fill:#000000;fill-opacity:1;fill-rule:nonzero;stroke:none;stroke-width:0.99999994;stroke-linecap:butt;stroke-linejoin:miter;stroke-miterlimit:4;stroke-dasharray:none;stroke-dashoffset:0;stroke-opacity:1;color-rendering:auto;image-rendering:auto;shape-rendering:auto;text-rendering:auto;enable-background:accumulate"/>
<path d="m 44.021484,34.083984 c -2.292641,0 -4.375455,0.566952 -5.919922,1.521485 -1.544466,0.954532 -2.580078,2.337939 -2.580078,3.921875 0,1.583935 1.035612,2.967342 2.580078,3.921875 1.544467,0.954532 3.627281,1.523437 5.919922,1.523437 2.292642,0 4.375456,-0.568905 5.919922,-1.523437 1.544466,-0.954533 2.580078,-2.33794 2.580078,-3.921875 0,-1.583936 -1.035612,-2.967343 -2.580078,-3.921875 -1.544466,-0.954533 -3.62728,-1.521485 -5.919922,-1.521485 z m 0,1 c 2.125637,0 4.041614,0.538105 5.392578,1.373047 1.350965,0.834942 2.107422,1.923602 2.107422,3.070313 0,1.14671 -0.756457,2.237323 -2.107422,3.072265 -1.350964,0.834942 -3.266941,1.373047 -5.392578,1.373047 -2.125636,0 -4.043567,-0.538105 -5.394531,-1.373047 -1.350964,-0.834942 -2.105469,-1.925555 -2.105469,-3.072265 0,-1.146711 0.754505,-2.235371 2.105469,-3.070313 1.350964,-0.834942 3.268895,-1.373047 5.394531,-1.373047 z" id="ellipse1771" style="color:#000000;font-style:normal;font-variant:normal;font-weight:normal;font-stretch:normal;font-size:medium;line-height:normal;font-family:sans-serif;font-variant-ligatures:normal;font-variant-position:normal;font-variant-caps:normal;font-variant-numeric:normal;font-variant-alternates:normal;font-feature-settings:normal;text-indent:0;text-align:start;text-decoration:none;text-decoration-line:none;text-decoration-style:solid;text-decoration-color:#000000;letter-spacing:normal;word-spacing:normal;text-transform:none;writing-mode:lr-tb;direction:ltr;text-orientation:mixed;dominant-baseline:auto;baseline-shift:baseline;text-anchor:start;white-space:normal;shape-padding:0;clip-rule:nonzero;display:inline;overflow:visible;visibility:visible;opacity:1;isolation:auto;mix-blend-mode:normal;color-interpolation:sRGB;color-interpolation-filters:linearRGB;solid-color:#000000;solid-opacity:1;vector-effect:none;fill:#000000;fill-opacity:1;fill-rule:nonzero;stroke:none;stroke-width:0.99999994;stroke-linecap:butt;stroke-linejoin:miter;stroke-miterlimit:4;stroke-dasharray:none;stroke-dashoffset:0;stroke-opacity:1;color-rendering:auto;image-rendering:auto;shape-rendering:auto;text-rendering:auto;enable-background:accumulate"/>
<path d="m 31.978516,36.027344 c -2.25,0 -4.5,1.166666 -4.5,3.5 h 1 c 0,-3.333334 7,-3.333334 7,0 h 1 c 0,-2.333334 -2.25,-3.5 -4.5,-3.5 z" id="path1773" style="color:#000000;font-style:normal;font-variant:normal;font-weight:normal;font-stretch:normal;font-size:medium;line-height:normal;font-family:sans-serif;font-variant-ligatures:normal;font-variant-position:normal;font-variant-caps:normal;font-variant-numeric:normal;font-variant-alternates:normal;font-feature-settings:normal;text-indent:0;text-align:start;text-decoration:none;text-decoration-line:none;text-decoration-style:solid;text-decoration-color:#000000;letter-spacing:normal;word-spacing:normal;text-transform:none;writing-mode:lr-tb;direction:ltr;text-orientation:mixed;dominant-baseline:auto;baseline-shift:baseline;text-anchor:start;white-space:normal;shape-padding:0;clip-rule:nonzero;display:inline;overflow:visible;visibility:visible;opacity:1;isolation:auto;mix-blend-mode:normal;color-interpolation:sRGB;color-interpolation-filters:linearRGB;solid-color:#000000;solid-opacity:1;vector-effect:none;fill:#000000;fill-opacity:1;fill-rule:nonzero;stroke:none;stroke-width:0.99999994px;stroke-linecap:butt;stroke-linejoin:miter;stroke-miterlimit:4;stroke-dasharray:none;stroke-dashoffset:0;stroke-opacity:1;color-rendering:auto;image-rendering:auto;shape-rendering:auto;text-rendering:auto;enable-background:accumulate"/>
<path d="m 23.978516,19.027344 c -0.333334,0 -0.551655,0.154995 -0.775391,0.333984 -0.223736,0.178989 -0.450357,0.41299 -0.695313,0.701172 -0.48991,0.576365 -1.050255,1.371036 -1.666015,2.318359 -1.231521,1.894648 -2.672698,4.400644 -4.050781,6.90625 -2.756167,5.011212 -5.259766,10.017579 -5.259766,10.017579 l 0.894531,0.447265 c 0,0 2.498354,-4.993634 5.242188,-9.982422 1.371916,-2.494394 2.805739,-4.988397 4.011719,-6.84375 0.602989,-0.927676 1.150066,-1.697458 1.589843,-2.214843 0.219889,-0.258693 0.416119,-0.45438 0.558594,-0.56836 0.142475,-0.11398 0.233724,-0.115234 0.150391,-0.115234 0.75,0 1.347455,0.564052 1.802734,1.474609 0.455279,0.910557 0.697266,2.108724 0.697266,3.025391 h 1 c 0,-1.083334 -0.258013,-2.383214 -0.802735,-3.472656 -0.544721,-1.089443 -1.447265,-2.027344 -2.697265,-2.027344 z" id="path1775" style="color:#000000;font-style:normal;font-variant:normal;font-weight:normal;font-stretch:normal;font-size:medium;line-height:normal;font-family:sans-serif;font-variant-ligatures:normal;font-variant-position:normal;font-variant-caps:normal;font-variant-numeric:normal;font-variant-alternates:normal;font-feature-settings:normal;text-indent:0;text-align:start;text-decoration:none;text-decoration-line:none;text-decoration-style:solid;text-decoration-color:#000000;letter-spacing:normal;word-spacing:normal;text-transform:none;writing-mode:lr-tb;direction:ltr;text-orientation:mixed;dominant-baseline:auto;baseline-shift:baseline;text-anchor:start;white-space:normal;shape-padding:0;clip-rule:nonzero;display:inline;overflow:visible;visibility:visible;opacity:1;isolation:auto;mix-blend-mode:normal;color-interpolation:sRGB;color-interpolation-filters:linearRGB;solid-color:#000000;solid-opacity:1;vector-effect:none;fill:#000000;fill-opacity:1;fill-rule:nonzero;stroke:none;stroke-width:0.99999994px;stroke-linecap:butt;stroke-linejoin:miter;stroke-miterlimit:4;stroke-dasharray:none;stroke-dashoffset:0;stroke-opacity:1;color-rendering:auto;image-rendering:auto;shape-rendering:auto;text-rendering:auto;enable-background:accumulate"/>
<path d="m 39.978516,19.027344 c -1.250001,0 -2.152545,0.937901 -2.697266,2.027344 -0.544721,1.089442 -0.802735,2.389322 -0.802734,3.472656 h 1 c -10e-7,-0.916667 0.241987,-2.114834 0.697265,-3.025391 0.455278,-0.910557 1.052734,-1.474609 1.802735,-1.474609 -0.08333,0 0.0099,0.0013 0.152343,0.115234 0.142475,0.11398 0.336752,0.309667 0.556641,0.56836 0.439778,0.517385 0.988807,1.287167 1.591797,2.214843 1.205979,1.855353 2.639802,4.349356 4.011719,6.84375 2.743833,4.988788 5.240234,9.982422 5.240234,9.982422 l 0.894531,-0.447265 c 0,0 -2.501646,-5.006367 -5.257812,-10.017579 -1.378083,-2.505606 -2.819261,-5.011602 -4.050781,-6.90625 -0.615761,-0.947323 -1.178059,-1.741994 -1.667969,-2.318359 -0.244955,-0.288182 -0.469624,-0.522183 -0.69336,-0.701172 -0.223736,-0.178989 -0.44401,-0.333984 -0.777343,-0.333984 z" id="path1777" style="color:#000000;font-style:normal;font-variant:normal;font-weight:normal;font-stretch:normal;font-size:medium;line-height:normal;font-family:sans-serif;font-variant-ligatures:normal;font-variant-position:normal;font-variant-caps:normal;font-variant-numeric:normal;font-variant-alternates:normal;font-feature-settings:normal;text-indent:0;text-align:start;text-decoration:none;text-decoration-line:none;text-decoration-style:solid;text-decoration-color:#000000;letter-spacing:normal;word-spacing:normal;text-transform:none;writing-mode:lr-tb;direction:ltr;text-orientation:mixed;dominant-baseline:auto;baseline-shift:baseline;text-anchor:start;white-space:normal;shape-padding:0;clip-rule:nonzero;display:inline;overflow:visible;visibility:visible;opacity:1;isolation:auto;mix-blend-mode:normal;color-interpolation:sRGB;color-interpolation-filters:linearRGB;solid-color:#000000;solid-opacity:1;vector-effect:none;fill:#000000;fill-opacity:1;fill-rule:nonzero;stroke:none;stroke-width:0.99999994px;stroke-linecap:butt;stroke-linejoin:miter;stroke-miterlimit:4;stroke-dasharray:none;stroke-dashoffset:0;stroke-opacity:1;color-rendering:auto;image-rendering:auto;shape-rendering:auto;text-rendering:auto;enable-background:accumulate"/>
<path d="m 12.726236,38.97844 c 0.162606,1.575566 1.330678,2.843807 2.964976,3.634744 1.634297,0.790937 3.764309,1.141073 6.044838,0.905713 6.55e-4,-6.8e-5 0.0013,-1.33e-4 0.0019,-2.01e-4 l -0.102258,-0.990831 c -6.63e-4,6.9e-5 -0.0013,1.32e-4 -0.0019,2e-4 -2.114405,0.218216 -4.071616,-0.120755 -5.501156,-0.812596 -1.429542,-0.691842 -2.297849,-1.698636 -2.415569,-2.839288 z" id="ellipse1783" style="color:#000000;font-style:normal;font-variant:normal;font-weight:normal;font-stretch:normal;font-size:medium;line-height:normal;font-family:sans-serif;font-variant-ligatures:normal;font-variant-position:normal;font-variant-caps:normal;font-variant-numeric:normal;font-variant-alternates:normal;font-feature-settings:normal;text-indent:0;text-align:start;text-decoration:none;text-decoration-line:none;text-decoration-style:solid;text-decoration-color:#000000;letter-spacing:normal;word-spacing:normal;text-transform:none;writing-mode:lr-tb;direction:ltr;text-orientation:mixed;dominant-baseline:auto;baseline-shift:baseline;text-anchor:start;white-space:normal;shape-padding:0;clip-rule:nonzero;display:inline;overflow:visible;visibility:visible;opacity:1;isolation:auto;mix-blend-mode:normal;color-interpolation:sRGB;color-interpolation-filters:linearRGB;solid-color:#000000;solid-opacity:1;vector-effect:none;fill:#000000;fill-opacity:1;fill-rule:nonzero;stroke:none;stroke-width:0.99999994;stroke-linecap:butt;stroke-linejoin:miter;stroke-miterlimit:4;stroke-dasharray:none;stroke-dashoffset:0;stroke-opacity:1;color-rendering:auto;image-rendering:auto;shape-rendering:auto;text-rendering:auto;enable-background:accumulate"/>
<path d="m 37.069685,38.97844 c 0.162607,1.575566 1.330681,2.843807 2.964979,3.634744 1.634294,0.790937 3.764307,1.141073 6.044836,0.905713 6.54e-4,-6.8e-5 0.0013,-1.33e-4 0.0019,-2.01e-4 l -0.102274,-0.990831 c -6.61e-4,6.9e-5 -0.0013,1.32e-4 -0.0019,2e-4 -2.114404,0.218215 -4.071617,-0.120756 -5.501155,-0.812596 -1.429527,-0.691842 -2.297836,-1.698636 -2.415553,-2.839288 z" id="path1793" style="color:#000000;font-style:normal;font-variant:normal;font-weight:normal;font-stretch:normal;font-size:medium;line-height:normal;font-family:sans-serif;font-variant-ligatures:normal;font-variant-position:normal;font-variant-caps:normal;font-variant-numeric:normal;font-variant-alternates:normal;font-feature-settings:normal;text-indent:0;text-align:start;text-decoration:none;text-decoration-line:none;text-decoration-style:solid;text-decoration-color:#000000;letter-spacing:normal;word-spacing:normal;text-transform:none;writing-mode:lr-tb;direction:ltr;text-orientation:mixed;dominant-baseline:auto;baseline-shift:baseline;text-anchor:start;white-space:normal;shape-padding:0;clip-rule:nonzero;display:inline;overflow:visible;visibility:visible;opacity:1;isolation:auto;mix-blend-mode:normal;color-interpolation:sRGB;color-interpolation-filters:linearRGB;solid-color:#000000;solid-opacity:1;vector-effect:none;fill:#000000;fill-opacity:1;fill-rule:nonzero;stroke:none;stroke-width:0.99999994;stroke-linecap:butt;stroke-linejoin:miter;stroke-miterlimit:4;stroke-dasharray:none;stroke-dashoffset:0;stroke-opacity:1;color-rendering:auto;image-rendering:auto;shape-rendering:auto;text-rendering:auto;enable-background:accumulate"/>
</g>
</svg>