<?xml version="1.0" encoding="utf-8"?><!-- Uploaded to: SVG Repo, www.svgrepo.com, Generator: SVG Repo Mixer Tools -->
<svg width="800px" height="800px" viewBox="-1.55 0 32 32" xmlns="http://www.w3.org/2000/svg">
  <path id="Path_15" data-name="Path 15" d="M82.866,62.77c-.875-5.421-1.813-6.79-5.283-7.716l-3.264-.849-.129-.235c-.014-.026-.036-.048-.051-.074l-.006-.007a3.294,3.294,0,0,0-2.8-1.028,3.3,3.3,0,0,0-2.8,1.027l-.008.011c-.015.024-.035.045-.049.07l-.129.236-3.268.85c-3.467.925-4.405,2.295-5.278,7.715l-2.91,18.073a.5.5,0,0,0,.425.574l3.571.5a.5.5,0,0,0,.564-.42c.012-.081.86-5.653,1.758-10.649-.036,1.181-.073,2.428-.11,3.634l0,.011,0,.008c-.105,3.463-.2,6.574-.2,6.738a1.6,1.6,0,0,0,.725,1.63,11.281,11.281,0,0,0,5.3,1.991,3.4,3.4,0,0,0,1.159-.187,2.6,2.6,0,0,0,1.253-.977,2.6,2.6,0,0,0,1.252.977,3.415,3.415,0,0,0,1.159.187,11.3,11.3,0,0,0,5.3-1.991,1.589,1.589,0,0,0,.723-1.628c0-.165-.1-3.275-.2-6.738l0-.01,0-.013c-.036-1.206-.073-2.454-.109-3.634.9,5,1.745,10.57,1.757,10.651a.5.5,0,0,0,.564.42l3.571-.5a.5.5,0,0,0,.333-.2.5.5,0,0,0,.091-.376Zm-8.772-6.891,1.665,3.043-.841.45a.5.5,0,0,0-.055.847l.972.7-4,10.219C72.718,69.117,73.69,60.011,74.094,55.879Zm-3.26,26.637a1.808,1.808,0,0,1-1.092,1.217c-1.715.616-4.708-1.15-5.584-1.707-.163-.1-.282-.179-.261-.753,0-.053.06-1.99.136-4.513h1.533a.5.5,0,0,0,0-1h-1.5c.143-4.745.327-10.83.327-10.83a.5.5,0,0,0-.434-.51.49.49,0,0,0-.552.378C62.392,69,60.89,78.587,60.539,80.859L57.962,80.5,60.79,62.929c.815-5.061,1.5-6.094,4.545-6.907l2.354-.611-1.9,3.473a.51.51,0,0,0-.041.383.5.5,0,0,0,.244.3l.578.311-.635.457a.5.5,0,0,0-.174.584l5.072,13.235Zm-4-21.6.972-.7a.5.5,0,0,0-.057-.846l-.838-.45,1.664-3.043c.4,4.134,1.38,13.245,2.26,15.258Zm2.6-6.546a3.789,3.789,0,0,1,3.8,0c-.417,4.5-1.195,11.631-1.9,14.9C70.633,66,69.853,58.869,69.434,54.372ZM82.128,80.859C81.777,78.587,80.277,69,79.265,64.8a.489.489,0,0,0-.553-.378.5.5,0,0,0-.433.51s.183,6.085.325,10.83H77.1a.5.5,0,0,0,0,1h1.534c.075,2.524.134,4.463.135,4.517.022.571-.1.645-.259.749-.876.557-3.866,2.331-5.586,1.706a1.806,1.806,0,0,1-1.091-1.216V74.151l4.357-11.367h2.386a.5.5,0,0,0,0-1h-2l.333-.868a.5.5,0,0,0-.175-.585l-.635-.456.579-.311a.5.5,0,0,0,.243-.3.5.5,0,0,0-.041-.383l-1.9-3.474,2.351.611c3.052.814,3.732,1.847,4.55,6.908L84.705,80.5Z" transform="translate(-56.887 -52.861)" fill="#96999c"/>
</svg>