<?xml version="1.0" ?>
<!-- Uploaded to: SVG Repo, www.svgrepo.com, Generator: SVG Repo Mixer Tools -->
<svg width="800px" height="800px" viewBox="0 0 64 64" id="SVGRoot" version="1.1" xmlns="http://www.w3.org/2000/svg" xmlns:cc="http://creativecommons.org/ns#" xmlns:dc="http://purl.org/dc/elements/1.1/" xmlns:inkscape="http://www.inkscape.org/namespaces/inkscape" xmlns:rdf="http://www.w3.org/1999/02/22-rdf-syntax-ns#" xmlns:sodipodi="http://sodipodi.sourceforge.net/DTD/sodipodi-0.dtd" xmlns:svg="http://www.w3.org/2000/svg">
<title id="title7560"/>
<defs id="defs7542"/>
<g id="layer1">
<path d="m 11.5,25.000975 v 0.5 c 0,1 -0.01286,2.327515 0.542969,3.578125 0.555826,1.25061 1.721804,2.377716 3.835937,2.90625 L 16.121094,31.0166 C 14.23523,30.545134 13.401204,29.67224 12.957031,28.67285 12.58288,27.831009 12.584413,26.881917 12.572266,26.000975 H 16 v -1 z" id="path1810" style="color:#000000;font-style:normal;font-variant:normal;font-weight:normal;font-stretch:normal;font-size:medium;line-height:normal;font-family:sans-serif;font-variant-ligatures:normal;font-variant-position:normal;font-variant-caps:normal;font-variant-numeric:normal;font-variant-alternates:normal;font-feature-settings:normal;text-indent:0;text-align:start;text-decoration:none;text-decoration-line:none;text-decoration-style:solid;text-decoration-color:#000000;letter-spacing:normal;word-spacing:normal;text-transform:none;writing-mode:lr-tb;direction:ltr;text-orientation:mixed;dominant-baseline:auto;baseline-shift:baseline;text-anchor:start;white-space:normal;shape-padding:0;clip-rule:nonzero;display:inline;overflow:visible;visibility:visible;opacity:1;isolation:auto;mix-blend-mode:normal;color-interpolation:sRGB;color-interpolation-filters:linearRGB;solid-color:#000000;solid-opacity:1;vector-effect:none;fill:#000000;fill-opacity:1;fill-rule:nonzero;stroke:none;stroke-width:0.99999994px;stroke-linecap:butt;stroke-linejoin:miter;stroke-miterlimit:4;stroke-dasharray:none;stroke-dashoffset:0;stroke-opacity:1;color-rendering:auto;image-rendering:auto;shape-rendering:auto;text-rendering:auto;enable-background:accumulate"/>
<path d="m 48,25.000975 v 1 h 3.427734 c -0.01215,0.880942 -0.01061,1.830034 -0.384765,2.671875 -0.444174,0.99939 -1.278198,1.872284 -3.164063,2.34375 l 0.242188,0.96875 C 50.235228,31.456816 51.401205,30.32971 51.957031,29.0791 52.512858,27.82849 52.5,26.500975 52.5,25.500975 v -0.5 z" id="path1806" style="color:#000000;font-style:normal;font-variant:normal;font-weight:normal;font-stretch:normal;font-size:medium;line-height:normal;font-family:sans-serif;font-variant-ligatures:normal;font-variant-position:normal;font-variant-caps:normal;font-variant-numeric:normal;font-variant-alternates:normal;font-feature-settings:normal;text-indent:0;text-align:start;text-decoration:none;text-decoration-line:none;text-decoration-style:solid;text-decoration-color:#000000;letter-spacing:normal;word-spacing:normal;text-transform:none;writing-mode:lr-tb;direction:ltr;text-orientation:mixed;dominant-baseline:auto;baseline-shift:baseline;text-anchor:start;white-space:normal;shape-padding:0;clip-rule:nonzero;display:inline;overflow:visible;visibility:visible;opacity:1;isolation:auto;mix-blend-mode:normal;color-interpolation:sRGB;color-interpolation-filters:linearRGB;solid-color:#000000;solid-opacity:1;vector-effect:none;fill:#000000;fill-opacity:1;fill-rule:nonzero;stroke:none;stroke-width:0.99999994px;stroke-linecap:butt;stroke-linejoin:miter;stroke-miterlimit:4;stroke-dasharray:none;stroke-dashoffset:0;stroke-opacity:1;color-rendering:auto;image-rendering:auto;shape-rendering:auto;text-rendering:auto;enable-background:accumulate"/>
<path d="m 28.992188,17.000975 c -3.968959,0.06925 -7.235837,0.319621 -9.535157,0.683594 -1.149659,0.181986 -2.053749,0.388488 -2.710937,0.632812 -0.328594,0.122163 -0.59621,0.251993 -0.816406,0.421875 C 15.709491,18.909138 15.5,19.163494 15.5,19.500975 c 0,0.408291 0.286751,0.660441 0.564453,0.830078 0.277702,0.169637 0.62222,0.30108 1.050781,0.427734 0.857123,0.253309 2.046521,0.469439 3.509766,0.652344 2.92649,0.365812 6.939833,0.589844 11.375,0.589844 4.435167,0 8.44851,-0.224032 11.375,-0.589844 1.463245,-0.182905 2.652643,-0.399035 3.509766,-0.652344 0.428561,-0.126654 0.773079,-0.258097 1.050781,-0.427734 C 48.213249,20.161416 48.5,19.909266 48.5,19.500975 48.499999,19.163496 48.290509,18.909139 48.070312,18.739256 47.850116,18.569374 47.582499,18.439544 47.253906,18.317381 46.59672,18.073056 45.692627,17.866555 44.542969,17.684569 42.243653,17.320596 38.97678,17.070227 35.007812,17.000975 l -0.01562,1 c 3.936285,0.06868 7.170162,0.319766 9.394531,0.671875 1.112184,0.176055 1.974414,0.379371 2.519531,0.582031 0.233346,0.08675 0.373212,0.169308 0.474609,0.236328 -0.153049,0.08921 -0.413868,0.200598 -0.779297,0.308594 -0.762165,0.225245 -1.917424,0.440118 -3.349609,0.619141 C 40.387583,20.77699 36.401389,21.000975 32,21.000975 c -4.401389,0 -8.387583,-0.223985 -11.251953,-0.582031 -1.432185,-0.179023 -2.587444,-0.393896 -3.349609,-0.619141 -0.365429,-0.107996 -0.626248,-0.219381 -0.779297,-0.308594 0.101397,-0.06702 0.241262,-0.149576 0.474609,-0.236328 0.545119,-0.20266 1.407345,-0.405977 2.519531,-0.582031 2.224373,-0.352109 5.458255,-0.603192 9.394531,-0.671875 z" id="path1797" style="color:#000000;font-style:normal;font-variant:normal;font-weight:normal;font-stretch:normal;font-size:medium;line-height:normal;font-family:sans-serif;font-variant-ligatures:normal;font-variant-position:normal;font-variant-caps:normal;font-variant-numeric:normal;font-variant-alternates:normal;font-feature-settings:normal;text-indent:0;text-align:start;text-decoration:none;text-decoration-line:none;text-decoration-style:solid;text-decoration-color:#000000;letter-spacing:normal;word-spacing:normal;text-transform:none;writing-mode:lr-tb;direction:ltr;text-orientation:mixed;dominant-baseline:auto;baseline-shift:baseline;text-anchor:start;white-space:normal;shape-padding:0;clip-rule:nonzero;display:inline;overflow:visible;visibility:visible;opacity:1;isolation:auto;mix-blend-mode:normal;color-interpolation:sRGB;color-interpolation-filters:linearRGB;solid-color:#000000;solid-opacity:1;vector-effect:none;fill:#000000;fill-opacity:1;fill-rule:nonzero;stroke:none;stroke-width:0.99999994;stroke-linecap:butt;stroke-linejoin:miter;stroke-miterlimit:4;stroke-dasharray:none;stroke-dashoffset:0;stroke-opacity:1;color-rendering:auto;image-rendering:auto;shape-rendering:auto;text-rendering:auto;enable-background:accumulate"/>
<path d="m 15.501953,47.500975 c 0.0019,0.405878 0.283787,0.661017 0.560547,0.830078 0.277701,0.169625 0.628079,0.303032 1.056641,0.429688 0.857122,0.253304 2.042614,0.465531 3.505859,0.648437 2.92649,0.365817 6.939833,0.589847 11.375,0.589847 4.435166,0 8.450465,-0.22403 11.376953,-0.589847 1.463248,-0.182891 2.648734,-0.39513 3.505859,-0.648437 0.428561,-0.126652 0.776983,-0.260059 1.054688,-0.429688 0.276775,-0.169048 0.55863,-0.424205 0.560547,-0.830078 h -1.158203 c 0.0021,0.0012 0.0058,0.0028 0.0078,0.0039 -0.156586,0.08734 -0.396669,0.191628 -0.746094,0.294922 -0.762164,0.22526 -1.919374,0.442073 -3.351562,0.621094 -2.864368,0.358035 -6.848611,0.582031 -11.25,0.582031 -4.401389,0 -8.385629,-0.22397 -11.25,-0.582031 -1.432185,-0.179048 -2.589397,-0.395849 -3.351562,-0.621094 -0.349426,-0.103268 -0.587568,-0.207592 -0.744141,-0.294922 0.0021,-0.0012 0.0057,-0.0027 0.0078,-0.0039 z" id="ellipse1768" style="color:#000000;font-style:normal;font-variant:normal;font-weight:normal;font-stretch:normal;font-size:medium;line-height:normal;font-family:sans-serif;font-variant-ligatures:normal;font-variant-position:normal;font-variant-caps:normal;font-variant-numeric:normal;font-variant-alternates:normal;font-feature-settings:normal;text-indent:0;text-align:start;text-decoration:none;text-decoration-line:none;text-decoration-style:solid;text-decoration-color:#000000;letter-spacing:normal;word-spacing:normal;text-transform:none;writing-mode:lr-tb;direction:ltr;text-orientation:mixed;dominant-baseline:auto;baseline-shift:baseline;text-anchor:start;white-space:normal;shape-padding:0;clip-rule:nonzero;display:inline;overflow:visible;visibility:visible;opacity:1;isolation:auto;mix-blend-mode:normal;color-interpolation:sRGB;color-interpolation-filters:linearRGB;solid-color:#000000;solid-opacity:1;vector-effect:none;fill:#000000;fill-opacity:1;fill-rule:nonzero;stroke:none;stroke-width:0.99999994;stroke-linecap:butt;stroke-linejoin:miter;stroke-miterlimit:4;stroke-dasharray:none;stroke-dashoffset:0;stroke-opacity:1;color-rendering:auto;image-rendering:auto;shape-rendering:auto;text-rendering:auto;enable-background:accumulate"/>
<path d="m 15.5,19.500975 v 28 h 1 v -28 z" id="path1770" style="color:#000000;font-style:normal;font-variant:normal;font-weight:normal;font-stretch:normal;font-size:medium;line-height:normal;font-family:sans-serif;font-variant-ligatures:normal;font-variant-position:normal;font-variant-caps:normal;font-variant-numeric:normal;font-variant-alternates:normal;font-feature-settings:normal;text-indent:0;text-align:start;text-decoration:none;text-decoration-line:none;text-decoration-style:solid;text-decoration-color:#000000;letter-spacing:normal;word-spacing:normal;text-transform:none;writing-mode:lr-tb;direction:ltr;text-orientation:mixed;dominant-baseline:auto;baseline-shift:baseline;text-anchor:start;white-space:normal;shape-padding:0;clip-rule:nonzero;display:inline;overflow:visible;visibility:visible;opacity:1;isolation:auto;mix-blend-mode:normal;color-interpolation:sRGB;color-interpolation-filters:linearRGB;solid-color:#000000;solid-opacity:1;vector-effect:none;fill:#000000;fill-opacity:1;fill-rule:nonzero;stroke:none;stroke-width:0.99999994px;stroke-linecap:butt;stroke-linejoin:miter;stroke-miterlimit:4;stroke-dasharray:none;stroke-dashoffset:0;stroke-opacity:1;color-rendering:auto;image-rendering:auto;shape-rendering:auto;text-rendering:auto;enable-background:accumulate"/>
<path d="m 47.5,19.500975 v 28 h 1 v -28 z" id="path1772" style="color:#000000;font-style:normal;font-variant:normal;font-weight:normal;font-stretch:normal;font-size:medium;line-height:normal;font-family:sans-serif;font-variant-ligatures:normal;font-variant-position:normal;font-variant-caps:normal;font-variant-numeric:normal;font-variant-alternates:normal;font-feature-settings:normal;text-indent:0;text-align:start;text-decoration:none;text-decoration-line:none;text-decoration-style:solid;text-decoration-color:#000000;letter-spacing:normal;word-spacing:normal;text-transform:none;writing-mode:lr-tb;direction:ltr;text-orientation:mixed;dominant-baseline:auto;baseline-shift:baseline;text-anchor:start;white-space:normal;shape-padding:0;clip-rule:nonzero;display:inline;overflow:visible;visibility:visible;opacity:1;isolation:auto;mix-blend-mode:normal;color-interpolation:sRGB;color-interpolation-filters:linearRGB;solid-color:#000000;solid-opacity:1;vector-effect:none;fill:#000000;fill-opacity:1;fill-rule:nonzero;stroke:none;stroke-width:0.99999994px;stroke-linecap:butt;stroke-linejoin:miter;stroke-miterlimit:4;stroke-dasharray:none;stroke-dashoffset:0;stroke-opacity:1;color-rendering:auto;image-rendering:auto;shape-rendering:auto;text-rendering:auto;enable-background:accumulate"/>
<path d="m 31,14.000975 c -0.666666,0 -1.387637,0.408087 -1.822266,1.277344 -0.434628,0.869257 -0.677733,2.180989 -0.677734,4.222656 v 0.5 h 0.5 6.5 v -0.5 c 10e-7,-2.041667 -0.243106,-3.353399 -0.677734,-4.222656 C 34.387637,14.409062 33.666667,14.000975 33,14.000975 Z m 0,1 h 2 c 0.333334,0 0.612363,0.09191 0.927734,0.722656 0.273622,0.547243 0.440109,1.75212 0.496094,3.277344 h -4.847656 c 0.05599,-1.525224 0.222472,-2.730101 0.496094,-3.277344 C 30.387637,15.092888 30.666667,15.000975 31,15.000975 Z" id="path1774" style="color:#000000;font-style:normal;font-variant:normal;font-weight:normal;font-stretch:normal;font-size:medium;line-height:normal;font-family:sans-serif;font-variant-ligatures:normal;font-variant-position:normal;font-variant-caps:normal;font-variant-numeric:normal;font-variant-alternates:normal;font-feature-settings:normal;text-indent:0;text-align:start;text-decoration:none;text-decoration-line:none;text-decoration-style:solid;text-decoration-color:#000000;letter-spacing:normal;word-spacing:normal;text-transform:none;writing-mode:lr-tb;direction:ltr;text-orientation:mixed;dominant-baseline:auto;baseline-shift:baseline;text-anchor:start;white-space:normal;shape-padding:0;clip-rule:nonzero;display:inline;overflow:visible;visibility:visible;opacity:1;isolation:auto;mix-blend-mode:normal;color-interpolation:sRGB;color-interpolation-filters:linearRGB;solid-color:#000000;solid-opacity:1;vector-effect:none;fill:#000000;fill-opacity:1;fill-rule:nonzero;stroke:none;stroke-width:0.99999994px;stroke-linecap:butt;stroke-linejoin:miter;stroke-miterlimit:4;stroke-dasharray:none;stroke-dashoffset:0;stroke-opacity:1;color-rendering:auto;image-rendering:auto;shape-rendering:auto;text-rendering:auto;enable-background:accumulate"/>
<path d="m 48,23.000975 v 1 h 5.552734 c 0.390306,1.843258 0.377322,4.05245 -0.386718,5.798828 C 52.352343,31.659626 50.833333,33.000975 48,33.000975 v 1 c 3.166667,0 5.147657,-1.658651 6.083984,-3.798828 0.936328,-2.140177 0.924168,-4.727154 0.400391,-6.822266 l -0.09375,-0.378906 z" id="path1804" style="color:#000000;font-style:normal;font-variant:normal;font-weight:normal;font-stretch:normal;font-size:medium;line-height:normal;font-family:sans-serif;font-variant-ligatures:normal;font-variant-position:normal;font-variant-caps:normal;font-variant-numeric:normal;font-variant-alternates:normal;font-feature-settings:normal;text-indent:0;text-align:start;text-decoration:none;text-decoration-line:none;text-decoration-style:solid;text-decoration-color:#000000;letter-spacing:normal;word-spacing:normal;text-transform:none;writing-mode:lr-tb;direction:ltr;text-orientation:mixed;dominant-baseline:auto;baseline-shift:baseline;text-anchor:start;white-space:normal;shape-padding:0;clip-rule:nonzero;display:inline;overflow:visible;visibility:visible;opacity:1;isolation:auto;mix-blend-mode:normal;color-interpolation:sRGB;color-interpolation-filters:linearRGB;solid-color:#000000;solid-opacity:1;vector-effect:none;fill:#000000;fill-opacity:1;fill-rule:nonzero;stroke:none;stroke-width:0.99999994px;stroke-linecap:butt;stroke-linejoin:miter;stroke-miterlimit:4;stroke-dasharray:none;stroke-dashoffset:0;stroke-opacity:1;color-rendering:auto;image-rendering:auto;shape-rendering:auto;text-rendering:auto;enable-background:accumulate"/>
<path d="m 9.609375,23.000975 -0.09375,0.378906 C 8.991849,25.474993 8.979689,28.06197 9.916016,30.202147 10.852342,32.342324 12.833335,34.000975 16,34.000975 v -1 c -2.833332,0 -4.352344,-1.341349 -5.166016,-3.201172 -0.764039,-1.746378 -0.777023,-3.955569 -0.386718,-5.798828 H 16 v -1 z" id="path1808" style="color:#000000;font-style:normal;font-variant:normal;font-weight:normal;font-stretch:normal;font-size:medium;line-height:normal;font-family:sans-serif;font-variant-ligatures:normal;font-variant-position:normal;font-variant-caps:normal;font-variant-numeric:normal;font-variant-alternates:normal;font-feature-settings:normal;text-indent:0;text-align:start;text-decoration:none;text-decoration-line:none;text-decoration-style:solid;text-decoration-color:#000000;letter-spacing:normal;word-spacing:normal;text-transform:none;writing-mode:lr-tb;direction:ltr;text-orientation:mixed;dominant-baseline:auto;baseline-shift:baseline;text-anchor:start;white-space:normal;shape-padding:0;clip-rule:nonzero;display:inline;overflow:visible;visibility:visible;opacity:1;isolation:auto;mix-blend-mode:normal;color-interpolation:sRGB;color-interpolation-filters:linearRGB;solid-color:#000000;solid-opacity:1;vector-effect:none;fill:#000000;fill-opacity:1;fill-rule:nonzero;stroke:none;stroke-width:0.99999994px;stroke-linecap:butt;stroke-linejoin:miter;stroke-miterlimit:4;stroke-dasharray:none;stroke-dashoffset:0;stroke-opacity:1;color-rendering:auto;image-rendering:auto;shape-rendering:auto;text-rendering:auto;enable-background:accumulate"/>
<path d="m 17.5,38.500975 v 8.207031 l 0.146484,0.146485 c 0.397314,0.397313 0.958399,0.563991 1.636719,0.71289 0.67832,0.1489 1.476549,0.243088 2.302735,0.306641 C 23.238308,48.001127 25,48.000975 26,48.000975 v -1 c -1,0 -2.738307,-1.52e-4 -4.335938,-0.123047 -0.798815,-0.06145 -1.563085,-0.154759 -2.166015,-0.287109 C 18.972265,46.475403 18.662073,46.314618 18.5,46.2041 v -7.703125 z" id="path1814" style="color:#000000;font-style:normal;font-variant:normal;font-weight:normal;font-stretch:normal;font-size:medium;line-height:normal;font-family:sans-serif;font-variant-ligatures:normal;font-variant-position:normal;font-variant-caps:normal;font-variant-numeric:normal;font-variant-alternates:normal;font-feature-settings:normal;text-indent:0;text-align:start;text-decoration:none;text-decoration-line:none;text-decoration-style:solid;text-decoration-color:#000000;letter-spacing:normal;word-spacing:normal;text-transform:none;writing-mode:lr-tb;direction:ltr;text-orientation:mixed;dominant-baseline:auto;baseline-shift:baseline;text-anchor:start;white-space:normal;shape-padding:0;clip-rule:nonzero;display:inline;overflow:visible;visibility:visible;opacity:1;isolation:auto;mix-blend-mode:normal;color-interpolation:sRGB;color-interpolation-filters:linearRGB;solid-color:#000000;solid-opacity:1;vector-effect:none;fill:#000000;fill-opacity:1;fill-rule:nonzero;stroke:none;stroke-width:0.99999994px;stroke-linecap:butt;stroke-linejoin:miter;stroke-miterlimit:4;stroke-dasharray:none;stroke-dashoffset:0;stroke-opacity:1;color-rendering:auto;image-rendering:auto;shape-rendering:auto;text-rendering:auto;enable-background:accumulate"/>
</g>
</svg>