<?xml version="1.0" encoding="utf-8"?>
<!-- Uploaded to: SVG Repo, www.svgrepo.com, Generator: SVG Repo Mixer Tools -->
<svg width="800px" height="800px" viewBox="0 -17.08 94.423 94.423" xmlns="http://www.w3.org/2000/svg">
  <g id="Group_34" data-name="Group 34" transform="translate(-40.266 -1096.717)">
    <path id="Path_162" data-name="Path 162" d="M87.1,1143.1a141.761,141.761,0,0,1-16.985-1.042A11.069,11.069,0,0,1,59.153,1131v-23.231a11.068,11.068,0,0,1,11.056-11.056h33.469a11.068,11.068,0,0,1,11.056,11.056V1131a11.069,11.069,0,0,1-10.961,11.056A134,134,0,0,1,87.1,1143.1Zm-16.894-43.464a8.145,8.145,0,0,0-8.136,8.135V1131a8.145,8.145,0,0,0,8.136,8.136l.177.01a134.056,134.056,0,0,0,33.109,0l.183-.011a8.145,8.145,0,0,0,8.136-8.136v-23.231a8.145,8.145,0,0,0-8.136-8.135Z" fill="#ef5880"/>
    <path id="Path_163" data-name="Path 163" d="M113.273,1120.591v3.053c11.117,3.094,18.5,8.078,18.5,13.58,0,9.126-20.283,16.837-44.291,16.837s-44.292-7.711-44.292-16.837c0-5.324,6.91-10.162,17.427-13.273v-3.067c-12.369,3.527-20.347,9.471-20.347,16.34,0,11.079,20.738,19.757,47.212,19.757s47.211-8.678,47.211-19.757C134.689,1130.16,126.249,1124.076,113.273,1120.591Z" fill="#ef5880"/>
    <path id="Path_164" data-name="Path 164" d="M89.211,1132.278a129.514,129.514,0,0,1-28.925-3.613l.654-2.846c20.474,4.708,37.444,4.719,51.883.034l.9,2.778A78.869,78.869,0,0,1,89.211,1132.278Z" fill="#ef5880"/>
    <path id="Path_165" data-name="Path 165" d="M87.558,1152.019a97.89,97.89,0,0,1-20.079-2.3c-11.79-2.46-18.7-6-20.544-10.524a5.778,5.778,0,0,1,.307-5.22,1.46,1.46,0,0,1,2.437,1.607,2.907,2.907,0,0,0-.007,2.589c.859,1.99,4.391,5.765,18.4,8.688,20.573,4.3,31.3,1.544,42.658-1.364,8.961-2.294,14.162-6,15.341-8.656a1.581,1.581,0,0,0,.115-1.37,1.46,1.46,0,0,1,2.584-1.361,4.326,4.326,0,0,1-.031,3.915c-1.814,4.089-8.437,8.036-17.285,10.3C104.126,1150.207,97.049,1152.019,87.558,1152.019Z" fill="#ef5880"/>
    <path id="Path_166" data-name="Path 166" d="M86.83,1108.309c-.127,0-.253,0-.381-.013-3.506-.23-5.634-3.652-5.723-3.8a1.5,1.5,0,0,1,2.557-1.568c.036.056,1.442,2.255,3.375,2.374,1.27.075,2.636-.773,4.056-2.531a1.5,1.5,0,0,1,2.333,1.886C91.088,1107.082,89,1108.309,86.83,1108.309Z" fill="#ef5880"/>
  </g>
</svg>