<?xml version="1.0" encoding="utf-8"?>
<!-- Uploaded to: SVG Repo, www.svgrepo.com, Generator: SVG Repo Mixer Tools -->
<svg width="800px" height="800px" viewBox="-17.63 0 114.589 114.589" xmlns="http://www.w3.org/2000/svg">
  <g id="Group_12" data-name="Group 12" transform="translate(-317.978 -743.874)">
    <path id="Path_49" data-name="Path 49" d="M357.879,785.345a1.155,1.155,0,0,1-.453-.1c-.573-.216-10.959-4.7-12.141-5.207a1.416,1.416,0,1,1,1.121-2.6c4.082,1.76,10.063,4.335,11.648,5,1.369-.5,6.129-2.816,10.329-4.964a1.417,1.417,0,1,1,1.29,2.523C360.753,784.565,358.69,785.345,357.879,785.345Z" fill="#ef5880"/>
    <path id="Path_50" data-name="Path 50" d="M392.174,756.928H322.7V743.874h69.474Zm-66.641-2.833h63.808v-7.388H325.533Z" fill="#ef5880"/>
    <path id="Path_51" data-name="Path 51" d="M395.892,858.463H364.565a1.418,1.418,0,0,1-1.41-1.281l-5.631-58.656-4.97,58.64a1.416,1.416,0,0,1-1.412,1.3H319.395a1.416,1.416,0,0,1-1.415-1.5l4.722-83.9,0-17.56a1.417,1.417,0,0,1,1.417-1.416h66.641a1.416,1.416,0,0,1,1.416,1.416v18.113l5.132,83.335a1.416,1.416,0,0,1-1.414,1.5Zm-30.039-2.833h28.533l-5.042-81.919,0-16.783H325.533v16.223l-4.64,82.479h28.948l6.184-72.962a1.418,1.418,0,0,1,1.4-1.3h.008a1.417,1.417,0,0,1,1.41,1.281Z" fill="#ef5880"/>
    <path id="Path_52" data-name="Path 52" d="M357.437,785.428a1.416,1.416,0,0,1-1.417-1.416v-28.5a1.417,1.417,0,0,1,1.417-1.416h4.692a1.417,1.417,0,0,1,1.417,1.416v23.543a1.416,1.416,0,0,1-.387.973l-4.693,4.959A1.417,1.417,0,0,1,357.437,785.428Zm1.416-28.5v23.526l1.86-1.965V756.928Z" fill="#ef5880"/>
    <path id="Path_53" data-name="Path 53" d="M324.117,774.568a1.416,1.416,0,0,1-.489-2.746c7.573-2.787,12.145-8.221,13.979-16.613a1.417,1.417,0,0,1,2.769.605c-2.029,9.283-7.334,15.563-15.77,18.666A1.4,1.4,0,0,1,324.117,774.568Z" fill="#ef5880"/>
    <path id="Path_54" data-name="Path 54" d="M390.67,774.568a1.4,1.4,0,0,1-.489-.088c-8.435-3.1-13.74-9.383-15.77-18.666a1.417,1.417,0,0,1,2.769-.605c1.834,8.392,6.407,13.826,13.979,16.613a1.416,1.416,0,0,1-.489,2.746Z" fill="#ef5880"/>
    <path id="Path_55" data-name="Path 55" d="M346.468,849.334H324.117a1.417,1.417,0,0,1,0-2.834h22.351a1.417,1.417,0,1,1,0,2.834Z" fill="#ef5880"/>
    <path id="Path_56" data-name="Path 56" d="M390.907,849.334h-22.35a1.417,1.417,0,0,1,0-2.834h22.35a1.417,1.417,0,0,1,0,2.834Z" fill="#ef5880"/>
  </g>
</svg>