<?xml version="1.0" encoding="utf-8"?>
<!-- Uploaded to: SVG Repo, www.svgrepo.com, Generator: SVG Repo Mixer Tools -->
<svg width="800px" height="800px" viewBox="0 -11.71 113.169 113.169" xmlns="http://www.w3.org/2000/svg">
  <g id="Group_13" data-name="Group 13" transform="translate(-34.813 -756.63)">
    <path id="Path_57" data-name="Path 57" d="M59.058,806.808a1.611,1.611,0,0,1-.743-.181L35.57,794.662a1.393,1.393,0,0,1-.723-.909,1.294,1.294,0,0,1,.252-1.1l24.327-30.915a1.578,1.578,0,0,1,1.868-.433,1.349,1.349,0,0,1,.79,1.62l-1.526,4.985v37.519a1.363,1.363,0,0,1-.747,1.195A1.591,1.591,0,0,1,59.058,806.808ZM38.509,793.025l19.049,10.02V768.818Z" fill="#ef5880"/>
    <path id="Path_58" data-name="Path 58" d="M123.737,806.808a1.591,1.591,0,0,1-.753-.187,1.363,1.363,0,0,1-.747-1.195V767.907l-1.525-4.985a1.348,1.348,0,0,1,.79-1.62,1.581,1.581,0,0,1,1.868.433L147.7,792.65a1.294,1.294,0,0,1,.252,1.1,1.393,1.393,0,0,1-.723.909L124.48,806.627A1.608,1.608,0,0,1,123.737,806.808Zm1.5-37.991v34.228l19.049-10.02Z" fill="#ef5880"/>
    <path id="Path_59" data-name="Path 59" d="M91.308,845.463a1.445,1.445,0,0,1-1.5-1.382V773.474a1.505,1.505,0,0,1,3,0v70.607A1.445,1.445,0,0,1,91.308,845.463Z" fill="#ef5880"/>
    <path id="Path_60" data-name="Path 60" d="M117.035,801.842H99.7a1.192,1.192,0,0,1-1.237-1.14V790.679a1.191,1.191,0,0,1,1.237-1.14h17.333a1.191,1.191,0,0,1,1.236,1.14V800.7A1.192,1.192,0,0,1,117.035,801.842Zm-16.1-2.28H115.8v-7.743h-14.86Z" fill="#ef5880"/>
    <path id="Path_61" data-name="Path 61" d="M113.847,757.254a1.562,1.562,0,0,0-1.1-.443h-4.378a14.6,14.6,0,0,1-.28,2.765h3.039L109.409,780.4l-17.451-7.726a1.618,1.618,0,0,0-1.308,0L73.5,780.4l-1.991-20.819h3.02a14.6,14.6,0,0,1-.279-2.765H69.871a1.562,1.562,0,0,0-1.107.449,1.312,1.312,0,0,0-.387,1.055L70.7,782.641a1.379,1.379,0,0,0,.756,1.082,1.609,1.609,0,0,0,1.4.039l18.46-8.309,18.774,8.313a1.617,1.617,0,0,0,1.4-.049,1.379,1.379,0,0,0,.746-1.093l2.009-24.326A1.322,1.322,0,0,0,113.847,757.254Z" fill="#ef5880"/>
    <path id="Path_62" data-name="Path 62" d="M106.844,756.811c-.257,7.7-7.118,13.9-15.536,13.9s-15.278-6.2-15.535-13.9h-3c.258,9.227,8.464,16.663,18.535,16.663s18.278-7.436,18.536-16.663Z" fill="#ef5880"/>
    <path id="Path_63" data-name="Path 63" d="M124.6,767.716c0-6.258-5.06-11.086-11.849-11.086H69.871c-6.789,0-12.275,4.828-12.275,11.086v77.49c0,.172.02.34.028.511v.663h66.947v-.661c.007-.171.025-.34.025-.513ZM69.871,759.63h42.876c5.134,0,8.849,3.353,8.849,8.086V843.38h-61V767.716C60.6,762.983,64.736,759.63,69.871,759.63Z" fill="#ef5880"/>
  </g>
</svg>