<?xml version="1.0" encoding="utf-8"?>
<!-- Uploaded to: SVG Repo, www.svgrepo.com, Generator: SVG Repo Mixer Tools -->
<svg width="800px" height="800px" viewBox="0 -8.99 83.979 83.979" xmlns="http://www.w3.org/2000/svg">
  <g id="Group_38" data-name="Group 38" transform="translate(-185.511 -1090.589)">
    <path id="Path_183" data-name="Path 183" d="M260.329,1156.593H194.67a9.169,9.169,0,0,1-9.159-9.159v-38.31a9.171,9.171,0,0,1,9.159-9.16h65.659a9.171,9.171,0,0,1,9.16,9.16v38.31A9.17,9.17,0,0,1,260.329,1156.593Zm-65.659-53.629a6.167,6.167,0,0,0-6.159,6.16v38.31a6.166,6.166,0,0,0,6.159,6.159h65.659a6.167,6.167,0,0,0,6.16-6.159v-38.31a6.168,6.168,0,0,0-6.16-6.16Z" fill="#ef5880"/>
    <path id="Path_184" data-name="Path 184" d="M241.246,1102.964H215.621v-3.875a8.51,8.51,0,0,1,8.5-8.5h8.625a8.511,8.511,0,0,1,8.5,8.5Zm-22.625-3h19.625v-.875a5.507,5.507,0,0,0-5.5-5.5h-8.625a5.507,5.507,0,0,0-5.5,5.5Z" fill="#ef5880"/>
    <path id="Path_185" data-name="Path 185" d="M227.5,1129.779a1.511,1.511,0,0,1-.4-.056l-40.488-11.355a1.5,1.5,0,0,1,.81-2.888l40.094,11.244,40.1-10.625a1.5,1.5,0,0,1,.768,2.9l-40.49,10.73A1.518,1.518,0,0,1,227.5,1129.779Z" fill="#ef5880"/>
    <rect id="Rectangle_17" data-name="Rectangle 17" width="7.055" height="32.402" transform="translate(199.676 1121.647)" fill="#ef5880"/>
    <rect id="Rectangle_18" data-name="Rectangle 18" width="7.055" height="32.402" transform="translate(249.843 1121.647)" fill="#ef5880"/>
    <path id="Path_186" data-name="Path 186" d="M229.593,1121.174a2.093,2.093,0,1,1-2.093-2.094A2.093,2.093,0,0,1,229.593,1121.174Z" fill="#ef5880"/>
  </g>
</svg>