<?xml version="1.0" encoding="utf-8"?>
<!-- Uploaded to: SVG Repo, www.svgrepo.com, Generator: SVG Repo Mixer Tools -->
<svg width="800px" height="800px" viewBox="-25.43 0 97.16 97.16" xmlns="http://www.w3.org/2000/svg">
  <g id="Group_39" data-name="Group 39" transform="translate(-347.476 -1075.698)">
    <path id="Path_187" data-name="Path 187" d="M377.157,1111.085H364.04a3.352,3.352,0,0,1-3.321-2.822l-1.652-10.133a3.364,3.364,0,0,1,3.321-3.906h16.284a3.365,3.365,0,0,1,3.327,3.863l-1.514,10.131A3.345,3.345,0,0,1,377.157,1111.085Zm-14.769-13.861a.365.365,0,0,0-.36.423l1.652,10.133a.363.363,0,0,0,.36.3h13.117a.364.364,0,0,0,.362-.31l1.513-10.132a.363.363,0,0,0-.36-.419Z" fill="#ef5880"/>
    <path id="Path_188" data-name="Path 188" d="M372.511,1172.858a1.5,1.5,0,0,1-1.03-.408l-11.988-11.3a1.5,1.5,0,0,1-.465-1.219l4.286-50.473a1.5,1.5,0,0,1,1.495-1.373h12.348a1.5,1.5,0,0,1,1.484,1.279l7.6,50.811a1.5,1.5,0,0,1-.482,1.339l-12.242,10.961A1.5,1.5,0,0,1,372.511,1172.858Zm-10.433-13.4,10.459,9.858,10.612-9.5-7.284-48.734h-9.679Z" fill="#ef5880"/>
    <rect id="Rectangle_19" data-name="Rectangle 19" width="3" height="15.642" transform="matrix(0.366, -0.93, 0.93, 0.366, 363.771, 1116.735)" fill="#ef5880"/>
    <rect id="Rectangle_20" data-name="Rectangle 20" width="3.001" height="17.532" transform="translate(363.75 1128.536) rotate(-67.663)" fill="#ef5880"/>
    <rect id="Rectangle_21" data-name="Rectangle 21" width="3" height="21.959" transform="translate(361.828 1139.232) rotate(-67.213)" fill="#ef5880"/>
    <rect id="Rectangle_22" data-name="Rectangle 22" width="3" height="24.952" transform="translate(360.867 1150.662) rotate(-67.617)" fill="#ef5880"/>
    <path id="Path_189" data-name="Path 189" d="M379.609,1106.561a1.5,1.5,0,0,1-1.483-1.721l.749-5.045a1.5,1.5,0,0,1,1.144-1.24,7.6,7.6,0,0,0-1.409-14.99c-.04,0-.08,0-.12-.01-2.872-.35-4.26-2.435-4.145-4.315.1-1.707,1.5-3.542,4.327-3.542a15.464,15.464,0,0,1,1.077,30.856A1.324,1.324,0,0,1,379.609,1106.561Zm2.091-5.368-.3,2.045a12.468,12.468,0,0,0-2.764-24.541c-.755,0-1.266.278-1.293.724-.029.471.465,1.012,1.462,1.149a10.6,10.6,0,0,1,2.9,20.623Z" fill="#ef5880"/>
    <path id="Path_190" data-name="Path 190" d="M361.635,1106.561a1.325,1.325,0,0,1-.14-.007,15.464,15.464,0,0,1,1.037-30.855h0c2.865,0,4.263,1.834,4.366,3.541.115,1.88-1.273,3.965-4.145,4.315-.04.005-.08.008-.12.01a7.6,7.6,0,0,0-1.409,14.99,1.5,1.5,0,0,1,1.144,1.24l.714,4.806a1.5,1.5,0,0,1-1.429,1.96Zm.937-27.863a12.468,12.468,0,0,0-2.724,24.54l-.3-2.045a10.6,10.6,0,0,1,2.9-20.623c1-.137,1.491-.678,1.462-1.149C363.878,1078.975,363.367,1078.7,362.572,1078.7Z" fill="#ef5880"/>
  </g>
</svg>