<?xml version="1.0" encoding="utf-8"?>
<!-- Uploaded to: SVG Repo, www.svgrepo.com, Generator: SVG Repo Mixer Tools -->
<svg width="800px" height="800px" viewBox="0 -10.67 128.575 128.575" xmlns="http://www.w3.org/2000/svg">
  <g id="Group_14" data-name="Group 14" transform="translate(-163.036 -964.908)">
    <path id="Path_64" data-name="Path 64" d="M257.431,974.927c0-5.655-4.574-10.019-10.71-10.019h-38.75c-6.135,0-11.093,4.364-11.093,10.019l0,92.393a1.354,1.354,0,0,0,.954,1.294,1.33,1.33,0,0,0,.4.061,1.354,1.354,0,0,0,1.117-.588l27.537-40.1a1.359,1.359,0,0,0,.205-1.064l-13.248-59.309h26.671l-13.294,59.511a1.359,1.359,0,0,0,.206,1.064l27.536,40.1a1.356,1.356,0,0,0,2.473-.768Zm-33.111,52.016-24.729,36.008V974.927c0-4.277,3.741-7.308,8.381-7.308h3.1Zm5.679.2,13.3-59.526h3.425c4.641,0,8,3.031,8,7.308l.009,88.226Z" fill="#ef5880"/>
    <path id="Path_65" data-name="Path 65" d="M208.374,1048.44a1.336,1.336,0,0,1-.66-.172,1.355,1.355,0,0,1-.523-1.844l12.736-22.829-16.57-28.933a1.352,1.352,0,0,1-.167-.849l3.437-26.369a1.356,1.356,0,0,1,2.689.351l-3.379,25.916,16.724,29.2a1.358,1.358,0,0,1,.008,1.334l-13.11,23.5A1.356,1.356,0,0,1,208.374,1048.44Z" fill="#ef5880"/>
    <path id="Path_66" data-name="Path 66" d="M246.047,1048.44a1.356,1.356,0,0,1-1.185-.695l-13.11-23.5a1.358,1.358,0,0,1,.008-1.334l16.724-29.2L245.1,967.795a1.356,1.356,0,0,1,2.689-.351l3.437,26.369a1.351,1.351,0,0,1-.167.849l-16.57,28.933,12.736,22.829a1.355,1.355,0,0,1-.523,1.844A1.336,1.336,0,0,1,246.047,1048.44Z" fill="#ef5880"/>
    <circle id="Ellipse_1" data-name="Ellipse 1" cx="2.227" cy="2.227" r="2.227" transform="translate(212.004 1021.677)" fill="#ef5880"/>
    <circle id="Ellipse_2" data-name="Ellipse 2" cx="2.227" cy="2.227" r="2.227" transform="translate(237.862 1021.677)" fill="#ef5880"/>
    <path id="Path_67" data-name="Path 67" d="M178.941,1048.44a1.362,1.362,0,0,1-.551-.117l-14.549-6.477a1.356,1.356,0,0,1-.659-1.85l35.4-70.013a1.356,1.356,0,0,1,2.515.98c-2.816,9.959-1.311,39.566-1.3,39.863a1.355,1.355,0,0,1-.16.714l-19.5,36.188A1.356,1.356,0,0,1,178.941,1048.44Zm-12.7-8.492,12.1,5.387,18.728-34.748c-.141-2.87-.9-19.8.1-31.8Z" fill="#ef5880"/>
    <path id="Path_68" data-name="Path 68" d="M275.706,1048.44a1.356,1.356,0,0,1-1.194-.712l-19.5-36.188a1.356,1.356,0,0,1-.161-.714c.016-.3,1.52-29.906-1.3-39.863a1.356,1.356,0,0,1,2.515-.98l35.4,70.013a1.356,1.356,0,0,1-.659,1.85l-14.55,6.477A1.362,1.362,0,0,1,275.706,1048.44Zm-18.131-37.853,18.727,34.748,12.1-5.387L257.48,978.784C258.475,990.785,257.716,1007.717,257.575,1010.587Z" fill="#ef5880"/>
    <path id="Path_69" data-name="Path 69" d="M227.128,1072.15a1.459,1.459,0,0,1-.219-.016l-28.8-4.25a1.5,1.5,0,0,1,.437-2.968l28.582,4.217,28.48-4.217a1.5,1.5,0,0,1,.439,2.967l-28.7,4.25A1.484,1.484,0,0,1,227.128,1072.15Z" fill="#ef5880"/>
    <path id="Path_70" data-name="Path 70" d="M178.5,1040.516a.988.988,0,0,1-.43-.1l-7.7-3.673a1,1,0,0,1,.861-1.805l7.7,3.674a1,1,0,0,1-.432,1.9Z" fill="#ef5880"/>
    <path id="Path_71" data-name="Path 71" d="M275.954,1040.516a.988.988,0,0,0,.43-.1l7.7-3.673a1,1,0,0,0-.861-1.805l-7.7,3.674a1,1,0,0,0,.432,1.9Z" fill="#ef5880"/>
  </g>
</svg>