<?xml version="1.0" encoding="utf-8"?><!-- Uploaded to: SVG Repo, www.svgrepo.com, Generator: SVG Repo Mixer Tools -->
<svg width="800px" height="800px" viewBox="-10.02 0 32 32" xmlns="http://www.w3.org/2000/svg">
  <path id="Path_8" data-name="Path 8" d="M122.571,61.365c-.02-1.6-.2-3.968-.365-5.6l-.259-2.455a.5.5,0,0,0-.5-.448h-9.569a.5.5,0,0,0-.5.448l-.259,2.457c-.168,1.636-.345,4-.363,5.6,0,.112-.079,22.989-.079,22.989a.5.5,0,0,0,.147.355.492.492,0,0,0,.353.147h3.19a.5.5,0,0,0,.5-.462l.838-11.113c.135-1.8.437-4.2.654-5.7.007-.05.113-.949.3-2.556.159,1.35.295,2.509.3,2.553.235,1.619.528,4.01.657,5.7l.838,11.112a.5.5,0,0,0,.5.462h3.191a.5.5,0,0,0,.5-.5S122.571,61.482,122.571,61.365ZM121,53.861l.07.653h-8.806l.068-.653ZM117.865,59.6c0,.4-.167.564-.7.617v-4.7h.7Zm-2.491,7.845c-.218,1.522-.523,3.947-.66,5.771l-.8,10.65h-2.225c.012-3.358.077-22.44.077-22.484.018-1.566.193-3.9.358-5.508l.038-.355h4.006v5.191c-.01.093-.062.533-.136,1.175C115.805,63.785,115.394,67.3,115.374,67.44Zm4.049,16.421-.8-10.65c-.14-1.834-.445-4.255-.664-5.77-.013-.106-.247-2.092-.457-3.884-.144-1.235-.226-1.939-.274-2.346.709-.069,1.64-.363,1.64-1.616V55.514h2.309l.037.353c.165,1.61.341,3.939.36,5.5,0,.049.066,19.132.077,22.49Z" transform="translate(-110.683 -52.861)" fill="#96999c"/>
</svg>