<?xml version="1.0" encoding="utf-8"?><!-- Uploaded to: SVG Repo, www.svgrepo.com, Generator: SVG Repo Mixer Tools -->
<svg width="800px" height="800px" viewBox="-1.74 0 32 32" xmlns="http://www.w3.org/2000/svg">
  <path id="Path_3" data-name="Path 3" d="M174.857,56.575a.348.348,0,0,0,.012-.056.448.448,0,0,0-.023-.11c-.118-1.863-.195-3.029-.2-3.081a.5.5,0,0,0-.5-.467H149.853a.5.5,0,0,0-.5.467c0,.052-.08,1.21-.2,3.06a.485.485,0,0,0-.027.131.466.466,0,0,0,.014.067c-.434,6.794-1.385,22.3-1.4,27.772a.5.5,0,0,0,.5.5h11.913a.5.5,0,0,0,.495-.426c.277-1.889.75-5.773,1.354-11.129.606,5.356,1.08,9.241,1.357,11.129a.5.5,0,0,0,.5.426h11.911a.5.5,0,0,0,.5-.5C176.243,78.884,175.289,63.363,174.857,56.575Zm-.64,5.8a5.868,5.868,0,0,1-5.618-5.356h5.284C173.978,58.5,174.093,60.338,174.217,62.375Zm-.537-8.514c.029.443.078,1.191.14,2.158H150.181c.062-.967.11-1.715.14-2.158ZM164.392,65.9a2.394,2.394,0,0,1-1.893,2.339V57.019h1.893Zm-14.274-8.879h5.246a5.869,5.869,0,0,1-5.579,5.354C149.908,60.337,150.023,58.5,150.118,57.019Zm9.6,26.841H148.742c.051-4.277.552-13.345.982-20.483a6.869,6.869,0,0,0,6.64-6.358H161.5V68.77c0,.05-.017.148-.037.331C160.687,76.141,160.073,81.338,159.717,83.86Zm4.569,0c-.354-2.5-.964-7.653-1.735-14.624a3.389,3.389,0,0,0,2.841-3.338V57.019H167.6a6.868,6.868,0,0,0,6.679,6.36c.428,7.138.929,16.2.981,20.482Z" transform="translate(-147.738 -52.861)" fill="#96999c"/>
</svg>