<?xml version="1.0" encoding="utf-8"?><!-- Uploaded to: SVG Repo, www.svgrepo.com, Generator: SVG Repo Mixer Tools -->
<svg width="800px" height="800px" viewBox="-0.11 0 32 32" xmlns="http://www.w3.org/2000/svg">
  <path id="Path_13" data-name="Path 13" d="M222.932,81.6a1.9,1.9,0,0,0,.274-1.3c-.048-.364-.352-1.814-.735-3.65-.442-2.116-.993-4.751-1.262-6.262a62.451,62.451,0,0,0-2.325-9.005,24.351,24.351,0,0,0-2.683-3.611l-.008-.005a.493.493,0,0,0-.172-.125h0c-.4-.169-3.332-1.678-4.61-2.34l-.738-1.511c0-.006-.009-.008-.012-.013a.494.494,0,0,0-.186-.188c-.009-.006-.013-.019-.022-.024a7.432,7.432,0,0,0-3.124-.705,7.314,7.314,0,0,0-3.11.706c-.008,0-.011.015-.018.02a.481.481,0,0,0-.189.193c0,.005-.009.006-.011.011L203.26,55.3c-1.278.661-4.215,2.171-4.61,2.34h0a.493.493,0,0,0-.172.125l-.008.005a24.394,24.394,0,0,0-2.682,3.61,63.011,63.011,0,0,0-2.327,9.005c-.269,1.517-.822,4.162-1.265,6.287-.381,1.823-.682,3.264-.731,3.629a1.887,1.887,0,0,0,.274,1.3c-.1.625-.173,1.077-.193,1.213-.069.537.036,1.475,1.511,1.714a2.531,2.531,0,0,0,.4.032,1.772,1.772,0,0,0,1.783-1.418l-.016,0c.058-.211.12-.537.213-1.023a2.37,2.37,0,0,0,.9-1.386l2.6-10.473c.661,11.059.739,11.234.782,11.329a1.141,1.141,0,0,0,.543.387v1.132a.5.5,0,0,0,.276.447,16.15,16.15,0,0,0,6.794,1.309h.017a16.146,16.146,0,0,0,6.792-1.309.5.5,0,0,0,.276-.447V81.974a1.137,1.137,0,0,0,.542-.385c.044-.1.122-.272.783-11.335l2.6,10.449a2.408,2.408,0,0,0,.906,1.409l.2,1.031a1.775,1.775,0,0,0,1.784,1.417,2.4,2.4,0,0,0,.4-.033c1.478-.237,1.581-1.176,1.509-1.717C223.106,82.68,223.035,82.226,222.932,81.6Zm-13.17-27.249c.25,1.879-.383,2.924-1.259,4.336a21.114,21.114,0,0,0-1.168,2.07,20.914,20.914,0,0,0-1.168-2.07c-.878-1.411-1.511-2.458-1.259-4.336a6.487,6.487,0,0,1,2.419-.491A6.635,6.635,0,0,1,209.762,54.352ZM195.356,80.515a1.359,1.359,0,0,1-1.743,1.019c-1.174-.189-1.213-.67-1.157-1.1.042-.326.355-1.821.716-3.553.446-2.131,1-4.783,1.272-6.315a62.722,62.722,0,0,1,2.248-8.758,17.706,17.706,0,0,1,1.958-2.7,15.492,15.492,0,0,1,.106,7.711v.01l0,.007ZM199.742,67a16.5,16.5,0,0,0-.276-8.641c1.2-.589,4.25-2.167,4.4-2.245.024-.013.034-.041.055-.057a8.446,8.446,0,0,0,1.4,3.159,16.39,16.39,0,0,1,1.526,2.921V82.316c-.1,0-.2,0-.3-.01l-.066,0a21.8,21.8,0,0,1-2.591-.357l-.013,0c-.239-.047-.471-.1-.7-.148l-.289-.065-.275-.068c-.46-.113-.872-.227-1.208-.328-.142-.043-.281-.086-.4-.127-.149-.05-.274-.1-.364-.132C200.505,79.692,200.043,72.132,199.742,67Zm14.31,14.067c-.07.03-.17.066-.282.1h0a.27.27,0,0,0-.03.012c-.075.026-.157.052-.247.082-.048.014-.1.03-.148.045-.088.028-.179.055-.278.084-.128.038-.264.076-.408.115l-.229.059c-.2.052-.4.1-.619.155l-.034.007a23.354,23.354,0,0,1-3.543.569l-.032,0c-.12.008-.236.008-.354.012V62.1a16.558,16.558,0,0,1,1.508-2.881,8.442,8.442,0,0,0,1.395-3.157c.021.015.031.043.055.056.151.078,3.2,1.656,4.4,2.245A16.493,16.493,0,0,0,214.928,67C214.621,72.227,214.147,79.975,214.052,81.067Zm1.865-14.235,0-.007v-.01a15.492,15.492,0,0,1,.106-7.711,17.706,17.706,0,0,1,1.958,2.7,62.363,62.363,0,0,1,2.247,8.758c.272,1.526.823,4.168,1.267,6.292.349,1.671.678,3.25.721,3.573.056.436.017.917-1.157,1.106a1.375,1.375,0,0,1-1.746-1.045Z" transform="translate(-191.445 -52.861)" fill="#96999c"/>
</svg>