<?xml version="1.0" encoding="utf-8"?><!-- Uploaded to: SVG Repo, www.svgrepo.com, Generator: SVG Repo Mixer Tools -->
<svg width="800px" height="800px" viewBox="0 -0.8 32 32" xmlns="http://www.w3.org/2000/svg">
  <path id="Path_1" data-name="Path 1" d="M37.256,14.96a4.145,4.145,0,0,0-1.839-1.775L29.952,10.7c-.007,0-.012-.01-.019-.014-.117-.053-.24-.082-.36-.127h0A10.258,10.258,0,0,0,26,10a10.255,10.255,0,0,0-3.572.561l-.007,0c-.118.045-.239.073-.355.125-.008,0-.013.011-.021.016l-5.461,2.48a4.114,4.114,0,0,0-1.84,1.776c-.808,1.453-2.955,13.027-4.736,22.948a.5.5,0,0,0,.089.384.5.5,0,0,0,.341.2l4.053.511a.444.444,0,0,0,.063,0,.5.5,0,0,0,.488-.394c.368-1.693,1.7-7.214,2.636-11.088.022,3.307.086,7.817.266,10.475l0,.014a.548.548,0,0,0,.029.1.444.444,0,0,0,.029.087.131.131,0,0,0,0,.015c.128.222,1.445,2.171,7.989,2.171s7.861-1.949,7.99-2.171l0-.013a.493.493,0,0,0,.031-.094.424.424,0,0,0,.025-.091c0-.007.005-.012.006-.019.179-2.659.242-7.167.264-10.474.939,3.874,2.27,9.394,2.638,11.088a.5.5,0,0,0,.489.393.444.444,0,0,0,.063,0l4.051-.511a.5.5,0,0,0,.341-.2.5.5,0,0,0,.089-.384C39.349,23.18,37.888,16.1,37.256,14.96Zm-8.225-3.531a.882.882,0,0,1,.071.262c0,.773-1.274,1.634-3.1,1.634s-3.1-.861-3.1-1.634a.88.88,0,0,1,.07-.262A9.612,9.612,0,0,1,26,11,9.606,9.606,0,0,1,29.031,11.429Zm8.806,26.527c-.765-3.391-3.492-14.562-3.521-14.68a.493.493,0,0,0-.547-.378.5.5,0,0,0-.439.5c0,.1.033,9.806-.262,14.384-.311.328-1.862,1.61-7.068,1.61-5.25,0-6.779-1.3-7.067-1.606-.3-4.578-.266-14.289-.265-14.388a.5.5,0,0,0-.44-.5.49.49,0,0,0-.546.378c-.029.118-2.754,11.288-3.518,14.68l-3.079-.389c1.021-5.688,3.728-20.672,4.533-22.12A3.068,3.068,0,0,1,17,14.1l4.927-2.238c.132,1.395,1.865,2.468,4.075,2.468s3.945-1.073,4.077-2.468L35,14.1a3.089,3.089,0,0,1,1.378,1.351c.546.987,2.071,8.428,4.532,22.121Z" transform="translate(-10 -10)" fill="#96999c"/>
</svg>