<?xml version="1.0" encoding="utf-8"?><!-- Uploaded to: SVG Repo, www.svgrepo.com, Generator: SVG Repo Mixer Tools -->
<svg width="800px" height="800px" viewBox="-1.95 0 32 32" xmlns="http://www.w3.org/2000/svg">
  <path id="Path_4" data-name="Path 4" d="M85.376,22.269c-.916-4.575-1.195-5.973-1.317-6.437l.026-.005c-.457-2.274-2.433-3.275-4.594-4.18-.255-.106-4.665-1.916-4.665-1.916h0a11.656,11.656,0,0,0-6.988,0l0,0-4.662,1.914c-2.159.906-4.134,1.907-4.592,4.18l.051.01c-.167.556-.469,2.069-1.342,6.432a.5.5,0,0,0,.327.57l4.617,1.6V38.817a.5.5,0,0,0,.163.369c.09.083,2.279,2.009,8.935,2.009s8.848-1.926,8.938-2.009a.5.5,0,0,0,.163-.369V24.441l4.617-1.6A.5.5,0,0,0,85.376,22.269ZM74.3,10.821c0,.733-1.22,1.55-2.971,1.55s-2.968-.817-2.968-1.55a.836.836,0,0,1,.064-.234,10.945,10.945,0,0,1,5.835.008A.733.733,0,0,1,74.3,10.821Zm6.13,12.561V21.618a.5.5,0,1,0-1,0V38.565c-.6.4-2.871,1.63-8.1,1.63s-7.507-1.236-8.1-1.629V21.618a.5.5,0,1,0-1,0v1.764l-3.877-1.344c.28-1.4,1.155-5.783,1.2-6l0-.016c.36-1.8,2.024-2.627,4-3.454L67.39,11c.139,1.342,1.811,2.374,3.942,2.374S75.137,12.339,75.277,11l3.828,1.572c1.975.828,3.639,1.659,4,3.455l0,.009c.034.165.921,4.593,1.2,6Z" transform="translate(-57.281 -9.195)" fill="#96999c"/>
</svg>