<?xml version="1.0" encoding="utf-8"?>
<!-- Uploaded to: SVG Repo, www.svgrepo.com, Generator: SVG Repo Mixer Tools -->
<svg width="800px" height="800px" viewBox="-3.63 0 80.445 80.445" xmlns="http://www.w3.org/2000/svg">
  <g id="Group_2" data-name="Group 2" transform="translate(-177.438 -236.377)">
    <path id="Path_7" data-name="Path 7" d="M232.37,290.511l-2.774-.5c.718-4.007,6.6-17.345,13.357-19.615a6.25,6.25,0,0,1,6.514,1.537l-1.912,2.071a3.454,3.454,0,0,0-3.7-.936C238.551,274.85,233.016,286.907,232.37,290.511Z" fill="#813c86"/>
    <path id="Path_8" data-name="Path 8" d="M211.073,294.958" fill="#813c86"/>
    <path id="Path_9" data-name="Path 9" d="M224.348,272.684" fill="#813c86"/>
    <path id="Path_10" data-name="Path 10" d="M244.408,253.221l-6.749-5.625L223.3,271.689c0,.006-5.633,9.1-6.082,10.206l-.874,1.465h0l-3.8,6.384c-1.877,2.8-4.175,3.5-6.788,2.622l-4.71-1.168-3.027,4.763c-2.636.017-14.888,2.153-19.048,6.729a4.942,4.942,0,0,0-1.434,4.473c.855,4.033,7.165,6.815,10.935,8.477l.562.248c.9.4,2.856.934,9.387.934,7.95,0,18.148-.809,18.249-.816l.806-.065.352-.728c3.016-6.257,11.325-21.933,17.082-27.192l1.314,28.8h7.226l.094-1.307c.023-.312,2.3-31.3,5.39-39.231C252.32,267.568,250.5,258.3,244.408,253.221Zm1.9,22.041c-2.9,7.452-5,32.621-5.475,38.742h-1.915l-1.408-30.869-1.939.97c-7.053,3.526-17.58,24.368-19.925,29.152-2.547.187-10.672.747-17.224.747-5.819,0-7.661-.433-8.242-.691l-.57-.252c-2.621-1.156-8.759-3.862-9.315-6.482a2.162,2.162,0,0,1,.763-1.993c3.473-3.821,14.976-5.807,17.128-5.807.365,0,.578.009.593.009l.872.04,2.875-4.187,2.562.566c3.641,1.05,7.077.481,10-4.171l4.4-7.443h0l6.117-10.264h0l12.786-21.455,4.214,3.512C247.686,259.621,249.208,267.8,246.3,275.262Z" fill="#813c86"/>
    <path id="Path_11" data-name="Path 11" d="M237.705,251.953a1.5,1.5,0,0,1-1.5-1.5V237.877a1.5,1.5,0,0,1,3,0v12.576A1.5,1.5,0,0,1,237.705,251.953Z" fill="#813c86"/>
    <path id="Path_12" data-name="Path 12" d="M235.705,248.581H212a3.429,3.429,0,0,1-3.424-3.425V241.87A3.428,3.428,0,0,1,212,238.445h23.7a3.428,3.428,0,0,1,3.425,3.425v3.286A3.429,3.429,0,0,1,235.705,248.581ZM212,241.294a.583.583,0,0,0-.575.576v3.286a.582.582,0,0,0,.575.575h23.7a.582.582,0,0,0,.575-.575V241.87a.583.583,0,0,0-.575-.576Z" fill="#813c86"/>
    <path id="Path_13" data-name="Path 13" d="M191.425,311.7a1.5,1.5,0,0,1-.056-3l23.444-.892a1.5,1.5,0,1,1,.115,3l-23.445.892Z" fill="#813c86"/>
  </g>
</svg>