<svg width="137" height="28" viewBox="0 0 137 28" fill="none" xmlns="http://www.w3.org/2000/svg">
<path d="M97.9896 22.5404C97.9896 25.7633 96.0636 27.7815 92.9532 27.7815C90.6308 27.7815 88.6121 26.4429 88.2362 24.3835H90.9706C91.2899 25.1558 92.2735 25.4595 92.9532 25.4595C94.7093 25.4595 95.5023 24.3063 95.5023 22.5764V22.1028C94.731 22.8406 93.7014 23.2472 92.634 23.2354C90.1055 23.2354 87.9993 21.0473 87.9993 18.1797C87.9993 15.312 90.0952 13.1084 92.634 13.1084C93.1897 13.1015 93.741 13.2084 94.2538 13.4227C94.7666 13.637 95.2301 13.9541 95.6156 14.3544V13.3247H97.9896V22.5404ZM92.9996 15.4098C91.6246 15.4098 90.5072 16.6197 90.5072 18.2003C90.4717 18.5484 90.5097 18.9001 90.6187 19.2327C90.7277 19.5653 90.9052 19.8713 91.1399 20.131C91.3745 20.3907 91.661 20.5983 91.9809 20.7404C92.3008 20.8824 92.647 20.9559 92.997 20.9559C93.3471 20.9559 93.6932 20.8824 94.0131 20.7404C94.333 20.5983 94.6195 20.3907 94.8542 20.131C95.0888 19.8713 95.2664 19.5653 95.3754 19.2327C95.4843 18.9001 95.5223 18.5484 95.4869 18.2003C95.5249 17.501 95.2847 16.8151 94.8187 16.2923C94.3527 15.7695 93.6987 15.4523 92.9996 15.4098Z" fill="white"/>
<path d="M108.618 23.0295H106.229V22.144C105.924 22.4998 105.545 22.784 105.117 22.9763C104.69 23.1685 104.226 23.264 103.757 23.2561C101.455 23.2561 99.9258 21.5416 99.9258 18.9932V13.3299H102.418V18.9932C102.393 19.2417 102.421 19.4928 102.502 19.7293C102.583 19.9658 102.714 20.1819 102.886 20.363C103.058 20.544 103.267 20.6855 103.5 20.7779C103.732 20.8703 103.981 20.9113 104.231 20.8981C104.482 20.9046 104.732 20.8596 104.965 20.7659C105.198 20.6722 105.409 20.5318 105.585 20.3533C105.762 20.1748 105.9 19.962 105.991 19.7281C106.083 19.4942 106.125 19.244 106.116 18.9932V13.3299H108.608V23.0295H108.618Z" fill="white"/>
<path d="M113.438 12.259H110.936V9.94217H113.438V12.259ZM113.438 23.0295H110.936V13.3195H113.438V23.0295Z" fill="white"/>
<path d="M125.164 23.0295H122.785V21.9689C122.4 22.3692 121.936 22.6863 121.423 22.9006C120.91 23.1149 120.359 23.2218 119.803 23.2149C117.275 23.2149 115.169 21.0268 115.169 18.1591C115.169 15.2914 117.265 13.0879 119.803 13.0879C120.871 13.0761 121.9 13.4827 122.672 14.2205V9.00003H125.164V23.0295ZM120.184 15.4098C118.81 15.4098 117.692 16.6197 117.692 18.2003C117.657 18.5485 117.695 18.9002 117.804 19.2328C117.913 19.5653 118.09 19.8713 118.325 20.131C118.559 20.3907 118.846 20.5983 119.166 20.7404C119.486 20.8825 119.832 20.9559 120.182 20.9559C120.532 20.9559 120.878 20.8825 121.198 20.7404C121.518 20.5983 121.804 20.3907 122.039 20.131C122.274 19.8713 122.451 19.5653 122.56 19.2328C122.669 18.9002 122.707 18.5485 122.672 18.2003C122.71 17.5011 122.47 16.8152 122.004 16.2924C121.538 15.7696 120.884 15.4523 120.184 15.4098Z" fill="white"/>
<path d="M129.443 19.1476C129.568 19.6985 129.878 20.1901 130.321 20.5404C130.764 20.8908 131.314 21.0788 131.879 21.0731C132.294 21.0919 132.705 20.9961 133.068 20.7963C133.432 20.5964 133.733 20.3003 133.939 19.9404H136.612C136.045 21.9226 134.33 23.2612 131.915 23.2612C130.565 23.2612 129.269 22.7247 128.314 21.7698C127.359 20.8149 126.822 19.5198 126.822 18.1694C126.822 16.8189 127.359 15.5238 128.314 14.5689C129.269 13.614 130.565 13.0775 131.915 13.0775C134.784 13.0775 137.158 15.3017 136.802 19.1527L129.443 19.1476ZM134.31 17.0882C134.169 16.5559 133.852 16.087 133.411 15.7578C132.97 15.4287 132.43 15.2588 131.879 15.2759C131.332 15.278 130.801 15.4602 130.369 15.7943C129.936 16.1284 129.625 16.5958 129.485 17.1242L134.31 17.0882Z" fill="white"/>
<path d="M18.7983 19.2037C18.9231 19.7546 19.2328 20.2462 19.676 20.5966C20.1192 20.9469 20.6691 21.1349 21.2341 21.1292C21.6484 21.148 22.0599 21.0522 22.4233 20.8524C22.7867 20.6526 23.0879 20.3564 23.2939 19.9966H25.9563C25.3795 21.9839 23.6853 23.3225 21.2495 23.3225C19.8988 23.3225 18.6034 22.786 17.6483 21.8311C16.6931 20.8762 16.1566 19.5811 16.1566 18.2307C16.1566 16.8802 16.6931 15.5851 17.6483 14.6302C18.6034 13.6753 19.8988 13.1388 21.2495 13.1388C24.1179 13.1388 26.4918 15.363 26.1365 19.214L18.7983 19.2037ZM23.6647 17.1443C23.5309 16.6045 23.2162 16.1267 22.7731 15.7904C22.3299 15.4542 21.785 15.2797 21.2289 15.296C20.6821 15.2981 20.1511 15.4803 19.7183 15.8144C19.2854 16.1485 18.9748 16.6159 18.8344 17.1443H23.6647Z" fill="white"/>
<path d="M33.3769 15.5998C32.3779 15.4865 31.5488 15.5998 30.9823 16.2022C30.5138 16.8043 30.2978 17.5649 30.3798 18.3233V23.0959H27.872V13.3808H30.2511V14.3436C30.6205 13.8872 31.1067 13.5395 31.658 13.3373C32.2093 13.1352 32.8051 13.0862 33.382 13.1955L33.3769 15.5998Z" fill="white"/>
<path d="M38.681 23.3225C36.2092 23.3225 34.3811 22.0199 34.0772 19.9296H36.6057C36.9456 20.7585 37.9446 21.0623 38.6656 21.0623C39.6646 21.0623 40.4216 20.7585 40.4216 20.1922C40.4216 19.6259 40.0817 19.4199 38.3617 19.1625C36.6418 18.9051 34.3038 18.4263 34.3038 16.2588C34.3038 14.7143 35.6427 13.1697 38.4544 13.1697C40.6791 13.1697 42.3424 14.3796 42.6617 16.2073H40.0868C39.9375 15.7543 39.3916 15.3939 38.4647 15.3939C37.3112 15.3939 36.8426 15.8109 36.8426 16.1661C36.8426 16.681 37.5584 16.8457 38.7685 17.0362C41.1837 17.4326 42.9191 17.9578 42.9191 20.0738C42.9449 21.9684 41.194 23.3225 38.681 23.3225Z" fill="white"/>
<path d="M53.8878 18.2512C53.9182 18.9124 53.8141 19.5729 53.582 20.1927C53.3498 20.8126 52.9944 21.3789 52.5371 21.8575C52.0798 22.3362 51.5302 22.7171 50.9216 22.9774C50.3129 23.2377 49.6577 23.3719 48.9957 23.3719C48.3337 23.3719 47.6785 23.2377 47.0698 22.9774C46.4611 22.7171 45.9116 22.3362 45.4543 21.8575C44.997 21.3789 44.6416 20.8126 44.4094 20.1927C44.1772 19.5729 44.0732 18.9124 44.1035 18.2512C44.0601 17.5823 44.1544 16.9115 44.3806 16.2804C44.6068 15.6493 44.9601 15.0713 45.4186 14.5821C45.8771 14.0929 46.4312 13.703 47.0464 13.4365C47.6617 13.1699 48.3251 13.0324 48.9957 13.0324C49.6662 13.0324 50.3297 13.1699 50.9449 13.4365C51.5602 13.703 52.1142 14.0929 52.5728 14.5821C53.0313 15.0713 53.3846 15.6493 53.6108 16.2804C53.837 16.9115 53.9313 17.5823 53.8878 18.2512ZM51.38 18.2512C51.38 16.5729 50.3037 15.4042 48.9854 15.4042C47.6671 15.4042 46.5908 16.5729 46.5908 18.2512C46.5908 19.9296 47.6671 21.0263 48.9854 21.0263C50.3037 21.0263 51.3748 19.909 51.3748 18.2667L51.38 18.2512Z" fill="white"/>
<path d="M64.2592 23.0959H61.7925V17.4326C61.7925 16.8663 61.6226 15.5071 59.9798 15.5071C59.7272 15.5012 59.476 15.5473 59.242 15.6425C59.0079 15.7378 58.7959 15.8801 58.6192 16.0606C58.4424 16.2412 58.3047 16.4562 58.2145 16.6922C58.1244 16.9282 58.0837 17.1803 58.0951 17.4326V23.0959H55.6027V13.386H57.9818V14.3281C58.2841 13.9548 58.6663 13.6541 59.1004 13.4483C59.5345 13.2425 60.0092 13.1367 60.4896 13.1388C62.7709 13.1388 64.2798 14.8533 64.2798 17.4223V23.0856L64.2592 23.0959Z" fill="white"/>
<path d="M72.8436 22.1898C72.4505 22.5703 71.9822 22.8644 71.4687 23.0533C70.9553 23.2421 70.408 23.3215 69.862 23.2864C67.8021 23.2864 65.9173 22.2567 65.9173 20.1356C65.9173 18.0144 67.7455 17.3812 69.898 17.1958C71.5201 17.0465 72.6737 16.856 72.6737 16.0632C72.6737 15.5483 72.0145 15.1416 70.9022 15.1416C70.0164 15.1416 68.9968 15.538 68.7702 16.3669H66.2778C66.525 14.5186 68.2965 13.144 70.8455 13.144C74.7901 13.144 75.0888 15.6925 75.0888 16.4647V21.5205C75.1106 22.0595 75.2059 22.593 75.372 23.1062H73.0908C72.9673 22.8133 72.8841 22.5051 72.8436 22.1898ZM72.7663 18.416C72.034 18.7904 71.2296 19.0029 70.4078 19.039C69.1822 19.1728 68.4252 19.4354 68.4252 20.151C68.4252 20.6968 69.0638 21.0726 70.0679 21.0726C71.5613 21.0726 72.7663 20.5577 72.7663 19.317V18.416Z" fill="white"/>
<path d="M79.9964 23.0959H77.504V9.06643H79.9964V23.0959Z" fill="white"/>
<path d="M8.43213 3.25899e-05C6.37891 0.000436805 4.39749 0.75552 2.86493 2.12159C1.33238 3.48766 0.355658 5.36937 0.120643 7.40863C0.120643 7.40863 -1.00197 13.7721 3.60179 23.6108C4.55962 20.7585 5.56894 17.9475 6.13025 16.403C7.28215 16.7361 8.4922 16.8178 9.67845 16.6426C10.8647 16.4674 11.9994 16.0393 13.0058 15.3875C14.0121 14.7356 14.8666 13.8751 15.5113 12.8642C16.156 11.8534 16.5758 10.7158 16.7425 9.52862C16.9091 8.3414 16.8185 7.13225 16.4769 5.98307C16.1354 4.83389 15.5507 3.77153 14.7627 2.86794C13.9746 1.96435 13.0015 1.24064 11.9093 0.745835C10.8171 0.25103 9.63125 -0.00331343 8.43213 3.25899e-05ZM8.43213 13.8287C7.35172 13.8277 6.29587 13.5065 5.39804 12.9056C4.50021 12.3048 3.80071 11.4513 3.38796 10.4531C2.97521 9.45486 2.86774 8.35669 3.07915 7.29741C3.29055 6.23813 3.81132 5.26529 4.57565 4.50186C5.33997 3.73843 6.31353 3.21869 7.37325 3.00834C8.43297 2.79798 9.53128 2.90646 10.5294 3.32005C11.5274 3.73365 12.3804 4.43379 12.9806 5.33198C13.5807 6.23017 13.901 7.28608 13.901 8.36624C13.901 9.08402 13.7595 9.79476 13.4846 10.4578C13.2097 11.1209 12.8068 11.7233 12.2989 12.2306C11.791 12.7379 11.1881 13.1402 10.5246 13.4144C9.86111 13.6886 9.15007 13.8294 8.43213 13.8287Z" fill="white"/>
</svg>
