<svg width="145" height="40" viewBox="0 0 145 40" fill="none" xmlns="http://www.w3.org/2000/svg">
<path fill-rule="evenodd" clip-rule="evenodd" d="M10.4449 15.3524C10.4449 12.5029 10.2803 11.3834 7.89528 11.3834H6.82616V19.2875H7.89528C10.2803 19.2875 10.4449 18.2019 10.4449 15.3524ZM17.271 17.5235C17.271 21.1535 13.3645 22.7477 9.33454 22.7477H6.82616V32.0767H0V7.92326H8.34773C13.7756 7.92326 17.271 8.9409 17.271 13.1135V17.5235ZM30.934 26.7847V13.2154C30.934 12.2315 30.564 11.3155 29.1246 11.3155C27.6854 11.3155 27.3153 12.2315 27.3153 13.2154V26.7847C27.3153 27.7684 27.6854 28.6844 29.1246 28.6844C30.564 28.6844 30.934 27.7684 30.934 26.7847ZM37.7601 25.4956C37.7601 31.0251 33.648 32.5517 29.1246 32.5517C24.6012 32.5517 20.489 31.0251 20.489 25.4956V14.5044C20.489 8.9748 24.6012 7.44824 29.1246 7.44824C33.648 7.44824 37.7601 8.9748 37.7601 14.5044V25.4956ZM58.2492 25.8688C58.2492 30.3805 55.3297 32.5517 49.5725 32.5517C45.0493 32.5517 40.9782 31.0251 40.9782 25.4956V14.5044C40.9782 8.9748 45.0493 7.44824 49.5725 7.44824C54.5483 7.44824 58.2492 8.66958 58.2492 13.8938V16.5398H51.4231V13.2154C51.4231 12.2315 51.053 11.3155 49.5725 11.3155C48.1745 11.3155 47.8044 12.2315 47.8044 13.2154V26.7847C47.8044 27.7684 48.1745 28.6844 49.5725 28.6844C51.053 28.6844 51.4231 27.7684 51.4231 26.7847V22.68H58.2492V25.8688ZM71.9122 24.8171C71.9122 21.9675 71.7476 20.882 69.3628 20.882H68.2936V28.6164H69.3628C71.7476 28.6164 71.9122 27.6667 71.9122 24.8171ZM78.7384 24.8171C78.7384 30.7198 75.531 32.0767 71.5009 32.0767H61.4673V7.92326H76.7234V11.3834H68.2936V17.4216H71.4188C75.4486 17.4216 78.7384 18.5073 78.7384 24.8171ZM91.579 22.4763L90.3865 11.7227H90.3041L89.1118 22.4763H91.579ZM99.6389 32.0767H92.8538L92.0725 26.1402H88.3715L87.2612 32.0767H81.5044L86.48 7.92326H95.8556L99.6389 32.0767ZM120.827 32.0767H114.001V11.587H110.958V26.2079C110.958 29.9395 109.271 32.0767 105.9 32.0767H102.035V28.413H103.35C104.831 28.413 105.201 28.0737 105.201 26.6829V7.92326H120.827V32.0767ZM140 11.587H135.23V32.0767H128.403V11.587H123.634V7.92326H140V11.587Z" fill="white"/>
</svg>
