<?xml version="1.0" ?><!DOCTYPE svg  PUBLIC '-//W3C//DTD SVG 1.1//EN'  'http://www.w3.org/Graphics/SVG/1.1/DTD/svg11.dtd'><svg xmlns="http://www.w3.org/2000/svg" xmlns:xlink="http://www.w3.org/1999/xlink" version="1.1" id="Layer_1" width="252" height="252" viewBox="0 0 252 252" overflow="visible" enable-background="new 0 0 252 252" xml:space="preserve"><path fill="#F0F0FF" d="M248,126.002c0-11.384-4.252-21.771-11.244-29.677c2.104-10.344,0.594-21.465-5.1-31.324  c-5.694-9.859-14.568-16.728-24.576-20.079c-3.352-10.009-10.221-18.885-20.078-24.578c-9.859-5.692-20.98-7.203-31.322-5.1  C147.771,8.252,137.387,4,126,4c-11.384,0-21.771,4.252-29.677,11.244C85.981,13.142,74.86,14.652,65,20.345  c-9.859,5.692-16.728,14.567-20.079,24.576C34.913,48.271,26.038,55.14,20.345,65c-5.692,9.859-7.203,20.98-5.101,31.323  C8.252,104.229,4,114.615,4,125.999c0,11.386,4.252,21.771,11.244,29.679c-2.103,10.342-0.592,21.463,5.1,31.321  c5.692,9.858,14.568,16.729,24.576,20.079c3.351,10.009,10.22,18.884,20.079,24.576c9.859,5.691,20.98,7.203,31.324,5.102  c7.906,6.992,18.292,11.244,29.676,11.244c11.385,0,21.771-4.252,29.678-11.244c10.343,2.104,21.464,0.592,31.322-5.1  c9.858-5.692,16.729-14.567,20.079-24.576c10.009-3.352,18.885-10.221,24.576-20.078c5.693-9.859,7.203-20.98,5.102-31.322  C243.749,147.771,248,137.387,248,126.002z M125.999,158.35c-3.05,0-6.027,0.307-8.906,0.887c-2.203-1.94-4.627-3.695-7.269-5.221  c-2.641-1.524-5.373-2.748-8.155-3.685c-0.937-2.784-2.159-5.517-3.685-8.158c-1.524-2.642-3.279-5.065-5.221-7.269  c0.581-2.879,0.888-5.855,0.888-8.905c0-3.05-0.307-6.026-0.888-8.905c1.942-2.202,3.697-4.627,5.222-7.269  c1.525-2.641,2.747-5.373,3.684-8.156c2.783-0.937,5.516-2.159,8.157-3.684c2.641-1.525,5.066-3.28,7.269-5.222  c2.878,0.58,5.855,0.888,8.905,0.888s6.027-0.308,8.904-0.888c2.203,1.942,4.63,3.697,7.271,5.222  c2.642,1.525,5.373,2.748,8.156,3.685c0.938,2.783,2.16,5.515,3.685,8.156c1.525,2.641,3.279,5.066,5.221,7.269  c-0.578,2.879-0.887,5.856-0.887,8.906s0.308,6.026,0.887,8.905c-1.94,2.203-3.695,4.628-5.221,7.269  c-1.524,2.642-2.748,5.373-3.686,8.156c-2.783,0.938-5.516,2.159-8.157,3.685c-2.641,1.524-5.065,3.279-7.269,5.221  C132.027,158.656,129.048,158.35,125.999,158.35z"/><path fill="#6E6E96" d="M125.86,151.339c-2.825,0-5.658,0.282-8.419,0.839l1.923,0.516c-2.115-1.864-4.427-3.525-6.872-4.936  c-2.445-1.412-5.039-2.585-7.709-3.482l1.408,1.406c-0.899-2.673-2.072-5.268-3.483-7.711c-1.409-2.441-3.069-4.756-4.935-6.871  l0.515,1.924c0.557-2.76,0.839-5.592,0.839-8.418c0-2.827-0.282-5.659-0.839-8.418l-0.516,1.924  c1.863-2.112,3.524-4.424,4.937-6.872c1.412-2.444,2.583-5.039,3.482-7.709l-1.407,1.407c2.675-0.901,5.269-2.072,7.711-3.482  c2.446-1.413,4.758-3.074,6.871-4.936l-1.922,0.515c2.763,0.557,5.595,0.84,8.418,0.84c2.824,0,5.656-0.283,8.417-0.84l-1.924-0.515  c2.111,1.861,4.424,3.521,6.873,4.936c2.446,1.412,5.041,2.584,7.711,3.483l-1.407-1.407c0.901,2.673,2.073,5.267,3.481,7.708  c1.414,2.449,3.075,4.761,4.937,6.872l-0.517-1.922c-0.557,2.765-0.838,5.597-0.838,8.418c0,2.825,0.281,5.657,0.838,8.418  l0.517-1.922c-1.863,2.112-3.524,4.426-4.937,6.869c-1.412,2.446-2.584,5.041-3.482,7.711l1.406-1.408  c-2.679,0.904-5.271,2.076-7.711,3.484c-2.443,1.409-4.756,3.07-6.871,4.934l1.924-0.514  C131.52,151.621,128.688,151.339,125.86,151.339z M135.316,156.053c1.893-1.669,3.961-3.154,6.147-4.418  c2.185-1.26,4.505-2.309,6.902-3.117l1.053-0.354l0.354-1.053c0.806-2.389,1.854-4.711,3.117-6.899s2.75-4.257,4.418-6.147  l0.733-0.834l-0.22-1.09c-0.497-2.471-0.75-5.006-0.75-7.534c0-2.525,0.253-5.06,0.75-7.535l0.22-1.088l-0.733-0.833  c-1.666-1.89-3.15-3.958-4.418-6.15c-1.261-2.185-2.31-4.507-3.117-6.901l-0.354-1.052l-1.053-0.354  c-2.389-0.804-4.709-1.854-6.9-3.118c-2.191-1.265-4.261-2.752-6.148-4.417l-0.834-0.735l-1.09,0.22  c-2.472,0.498-5.006,0.751-7.533,0.751c-2.526,0-5.061-0.253-7.533-0.751l-1.09-0.22l-0.834,0.735  c-1.891,1.667-3.959,3.153-6.149,4.417c-2.186,1.262-4.507,2.311-6.901,3.117l-1.053,0.354l-0.354,1.053  c-0.805,2.391-1.854,4.712-3.117,6.9c-1.265,2.19-2.75,4.259-4.417,6.149l-0.735,0.834l0.22,1.089  c0.499,2.468,0.751,5.003,0.751,7.533s-0.252,5.064-0.751,7.534l-0.22,1.088l0.735,0.836c1.669,1.894,3.155,3.961,4.417,6.147  c1.264,2.188,2.313,4.511,3.118,6.901l0.354,1.054l1.054,0.354c2.389,0.806,4.709,1.854,6.898,3.117  c2.188,1.262,4.257,2.748,6.149,4.416l0.833,0.734l1.089-0.219c2.47-0.498,5.005-0.75,7.535-0.75s5.065,0.252,7.534,0.75l1.088,0.22  L135.316,156.053z"/><ellipse transform="matrix(-0.7173 0.6968 -0.6968 -0.7173 183.1767 83.1652)" fill="#E8B787" cx="74.716" cy="78.744" rx="42.913" ry="14.021"/><ellipse transform="matrix(0.7173 0.6968 -0.6968 0.7173 103.3869 -100.7272)" fill="#E8B787" cx="175.819" cy="77.039" rx="42.913" ry="14.02"/><path fill="#E8B787" d="M61.357,115.836v1.638c-0.007,26.874-0.015,57.333,18.128,75.48c10.655,10.657,26.049,15.84,47.06,15.84  c21.811,0,37.584-5.19,48.223-15.869c17.188-17.255,17.08-44.698,16.979-71.239l-0.016-5.85c0-24.21-4.188-42.13-12.799-54.78  c-10.58-15.542-28.207-23.422-52.388-23.422C83.899,37.635,61.357,64.677,61.357,115.836z"/><path opacity="0.45" fill="#FCC793" enable-background="new    " d="M126.77,49.573c23.767,0,41.09,7.805,51.487,23.199  c8.464,12.529,12.579,30.278,12.579,54.259l0.014,5.266c0.026-3.504,0.014-7.018,0.002-10.516l-0.016-5.794  c0-23.98-4.115-41.729-12.579-54.258C167.857,46.334,150.535,38.53,126.77,38.53c-41.915,0.001-64.067,26.785-64.067,77.458v1.622  c-0.001,2.693,0,5.423,0.018,8.172C63.085,75.927,85.205,49.574,126.77,49.573z"/><path opacity="0.15" fill="#6E6E96" enable-background="new    " d="M189.031,115.545c-0.498,36.16-6.37,71.421-62.934,71.421  c-55.826,0-62.152-37.206-62.86-74.375c-0.052,1.683-0.088,3.375-0.088,5.084c0,41.603-0.868,90.224,62.948,90.224  c66.418,0,62.946-48.621,62.946-90.224C189.043,116.963,189.04,116.254,189.031,115.545z"/><ellipse fill="#6E6E96" cx="104.867" cy="99.923" rx="6.59" ry="9.473"/><ellipse fill="#6E6E96" cx="149.947" cy="100.493" rx="6.59" ry="9.473"/><path fill="#6E6E96" d="M140.016,145.111l-13.305,12.449c0.9-0.846,2.314-0.799,3.162,0.102l-13.168-14.016l0,0  c-0.847-0.9-2.264-0.945-3.165-0.1c-0.901,0.848-0.945,2.264-0.099,3.165l0,0l13.167,14.015c0.847,0.9,2.261,0.946,3.162,0.104  l13.306-12.448l0,0c0.901-0.845,0.95-2.262,0.104-3.163C142.335,144.314,140.918,144.268,140.016,145.111L140.016,145.111z"/><path opacity="0.15" fill="#6E6E96" enable-background="new    " d="M44.686,103.48c0,0,17.238-23.9,15.892-8.796l9.695-29.922  C70.273,64.762,47.042,85.938,44.686,103.48z"/><path opacity="0.15" fill="#6E6E96" enable-background="new    " d="M192.979,96.846c0,0-1.785-9.907,4.062-4.061  c5.847,5.846,7.959,12.598,7.959,12.598s5.495-14.776-18.013-33.827L192.979,96.846z"/><path opacity="0.15" fill="#6E6E96" enable-background="new    " d="M153.876,107.904c-0.761-0.864-1.483-1.772-2.179-2.71  c0.58,1.342,1.232,2.666,1.957,3.969C153.727,108.742,153.792,108.32,153.876,107.904z M93.477,122.171  c-0.102,0.675-0.219,1.345-0.353,2.008c0.169,0.192,0.33,0.396,0.497,0.592C93.597,123.898,93.55,123.031,93.477,122.171z   M150.625,14.818c1.271-0.259,2.561-0.453,3.854-0.59C146.732,7.845,136.82,4,126,4c-4.408,0-8.664,0.644-12.687,1.832  c3.258-0.835,6.668-1.29,10.187-1.29C133.906,4.542,143.396,8.428,150.625,14.818z M67.75,19.48  c2.965-1.712,6.056-3.001,9.203-3.904c-4.095,0.982-8.12,2.556-11.953,4.769c-9.394,5.423-16.065,13.739-19.573,23.168  c1.298-0.59,2.622-1.121,3.972-1.573C52.462,32.793,58.74,24.683,67.75,19.48z M248,126.002c0-11.384-4.252-21.771-11.244-29.677  c2.104-10.344,0.594-21.465-5.1-31.324c-5.694-9.859-14.568-16.728-24.576-20.079c-3.352-10.009-10.221-18.885-20.078-24.578  c-7.206-4.161-15.086-6.078-22.844-5.992c5.17,0.681,10.296,2.357,15.094,5.127c9.009,5.203,15.287,13.315,18.35,22.462  c9.146,3.063,17.258,9.341,22.461,18.351c5.205,9.01,6.584,19.174,4.662,28.628C231.113,96.146,235,105.64,235,116.044  c0,10.405-3.885,19.896-10.275,27.123c1.92,9.452,0.541,19.616-4.662,28.627c-5.203,9.009-13.314,15.287-22.463,18.351  c-3.061,9.146-9.341,17.258-18.351,22.461c-9.011,5.201-19.174,6.584-28.626,4.66c-7.229,6.391-16.719,10.276-27.124,10.276  c-10.404,0-19.896-3.886-27.122-10.276c-9.454,1.922-19.618,0.539-28.628-4.662c-9.01-5.203-15.288-13.313-18.351-22.461  c-9.146-3.062-17.258-9.342-22.46-18.352s-6.583-19.174-4.661-28.626C15.886,135.938,12,126.447,12,116.041  c0-10.404,3.886-19.896,10.276-27.122c-1.921-9.453-0.541-19.617,4.662-28.627c2.867-4.965,6.62-9.095,10.938-12.319  C30.801,51.78,24.659,57.529,20.345,65c-5.692,9.859-7.203,20.98-5.101,31.323C8.252,104.229,4,114.615,4,125.999  c0,11.386,4.252,21.771,11.244,29.679c-2.103,10.342-0.592,21.463,5.1,31.321c5.692,9.858,14.568,16.729,24.576,20.079  c3.351,10.009,10.22,18.884,20.079,24.576c9.859,5.691,20.98,7.203,31.324,5.102c7.906,6.992,18.292,11.244,29.676,11.244  c11.385,0,21.771-4.252,29.678-11.244c10.343,2.104,21.464,0.592,31.322-5.1c9.858-5.692,16.729-14.567,20.079-24.576  c10.009-3.352,18.885-10.221,24.576-20.078c5.693-9.859,7.203-20.98,5.102-31.322C243.749,147.771,248,137.387,248,126.002z"/></svg>