<?xml version="1.0" encoding="UTF-8" standalone="no"?>
<svg
   xmlns:dc="http://purl.org/dc/elements/1.1/"
   xmlns:cc="http://creativecommons.org/ns#"
   xmlns:rdf="http://www.w3.org/1999/02/22-rdf-syntax-ns#"
   xmlns:svg="http://www.w3.org/2000/svg"
   xmlns="http://www.w3.org/2000/svg"
   xmlns:sodipodi="http://sodipodi.sourceforge.net/DTD/sodipodi-0.dtd"
   xmlns:inkscape="http://www.inkscape.org/namespaces/inkscape"
   width="64pt"
   height="64pt"
   viewBox="0 0 22.577778 22.577778"
   version="1.1"
   id="svg831"
   inkscape:version="1.0 (4035a4fb49, 2020-05-01)"
   sodipodi:docname="22 - Carrot.svg"
   inkscape:export-filename="E:\Project\27-3-2022\4 - Icon-Icons\016 - Vegetables\Send\3 - Flat\22 - Carrot.png"
   inkscape:export-xdpi="576"
   inkscape:export-ydpi="576">
  <defs
     id="defs825">
    <pattern
       id="EMFhbasepattern"
       patternUnits="userSpaceOnUse"
       width="6"
       height="6"
       x="0"
       y="0" />
    <pattern
       id="EMFhbasepattern-9"
       patternUnits="userSpaceOnUse"
       width="6"
       height="6"
       x="0"
       y="0" />
    <pattern
       id="EMFhbasepattern-0"
       patternUnits="userSpaceOnUse"
       width="6"
       height="6"
       x="0"
       y="0" />
    <pattern
       id="EMFhbasepattern-7"
       patternUnits="userSpaceOnUse"
       width="6"
       height="6"
       x="0"
       y="0" />
    <pattern
       id="EMFhbasepattern-2"
       patternUnits="userSpaceOnUse"
       width="6"
       height="6"
       x="0"
       y="0" />
    <pattern
       id="EMFhbasepattern-98"
       patternUnits="userSpaceOnUse"
       width="6"
       height="6"
       x="0"
       y="0" />
    <pattern
       id="EMFhbasepattern-6"
       patternUnits="userSpaceOnUse"
       width="6"
       height="6"
       x="0"
       y="0" />
    <pattern
       id="EMFhbasepattern-01"
       patternUnits="userSpaceOnUse"
       width="6"
       height="6"
       x="0"
       y="0" />
    <pattern
       id="EMFhbasepattern-07"
       patternUnits="userSpaceOnUse"
       width="6"
       height="6"
       x="0"
       y="0" />
    <pattern
       id="EMFhbasepattern-8"
       patternUnits="userSpaceOnUse"
       width="6"
       height="6"
       x="0"
       y="0" />
    <pattern
       id="EMFhbasepattern-4"
       patternUnits="userSpaceOnUse"
       width="6"
       height="6"
       x="0"
       y="0" />
    <pattern
       id="EMFhbasepattern-40"
       patternUnits="userSpaceOnUse"
       width="6"
       height="6"
       x="0"
       y="0" />
    <pattern
       id="EMFhbasepattern-08"
       patternUnits="userSpaceOnUse"
       width="6"
       height="6"
       x="0"
       y="0" />
    <pattern
       id="EMFhbasepattern-04"
       patternUnits="userSpaceOnUse"
       width="6"
       height="6"
       x="0"
       y="0" />
    <pattern
       id="EMFhbasepattern-014"
       patternUnits="userSpaceOnUse"
       width="6"
       height="6"
       x="0"
       y="0" />
    <pattern
       id="EMFhbasepattern-27"
       patternUnits="userSpaceOnUse"
       width="6"
       height="6"
       x="0"
       y="0" />
    <pattern
       id="EMFhbasepattern-09"
       patternUnits="userSpaceOnUse"
       width="6"
       height="6"
       x="0"
       y="0" />
    <pattern
       id="EMFhbasepattern-5"
       patternUnits="userSpaceOnUse"
       width="6"
       height="6"
       x="0"
       y="0" />
    <pattern
       id="EMFhbasepattern-018"
       patternUnits="userSpaceOnUse"
       width="6"
       height="6"
       x="0"
       y="0" />
  </defs>
  <sodipodi:namedview
     id="base"
     pagecolor="#ffffff"
     bordercolor="#666666"
     borderopacity="1.0"
     inkscape:pageopacity="0.0"
     inkscape:pageshadow="2"
     inkscape:zoom="4.989546"
     inkscape:cx="30.841944"
     inkscape:cy="42.666667"
     inkscape:document-units="pt"
     inkscape:current-layer="layer1"
     showgrid="false"
     units="pt"
     inkscape:window-width="1366"
     inkscape:window-height="716"
     inkscape:window-x="-8"
     inkscape:window-y="-8"
     inkscape:window-maximized="1"
     inkscape:pagecheckerboard="true"
     inkscape:showpageshadow="false"
     inkscape:object-paths="true"
     inkscape:snap-intersection-paths="true"
     inkscape:snap-smooth-nodes="true"
     inkscape:snap-midpoints="true"
     showguides="false"
     inkscape:snap-bbox="true"
     inkscape:bbox-nodes="true"
     inkscape:snap-nodes="false"
     inkscape:snap-global="true"
     inkscape:document-rotation="0">
    <inkscape:grid
       type="xygrid"
       id="grid1378" />
    <sodipodi:guide
       position="0.97013831,21.607643"
       orientation="78.000048,0"
       id="guide1380"
       inkscape:locked="false" />
    <sodipodi:guide
       position="0.97013831,0.97013129"
       orientation="0,78.000005"
       id="guide1382"
       inkscape:locked="false" />
    <sodipodi:guide
       position="21.607639,0.97013129"
       orientation="-78.000048,0"
       id="guide1384"
       inkscape:locked="false" />
    <sodipodi:guide
       position="21.607639,21.607643"
       orientation="0,-78.000005"
       id="guide1386"
       inkscape:locked="false" />
  </sodipodi:namedview>
  <metadata
     id="metadata828">
    <rdf:RDF>
      <cc:Work
         rdf:about="">
        <dc:format>image/svg+xml</dc:format>
        <dc:type
           rdf:resource="http://purl.org/dc/dcmitype/StillImage" />
        <dc:title></dc:title>
      </cc:Work>
    </rdf:RDF>
  </metadata>
  <g
     inkscape:label="Icon"
     inkscape:groupmode="layer"
     id="layer1"
     transform="translate(0,-274.42223)">
    <g
       transform="matrix(1.2547981,0,0,1.2547981,-37.609683,-152.89002)"
       style="display:inline;stroke-width:0.796941"
       id="g1566">
      <path
         sodipodi:nodetypes="ccccsccscccscccc"
         id="path1683"
         d="m 44.517584,346.91213 c -0.05574,-0.21446 -0.09167,-0.44361 -0.207031,-0.61133 -0.14002,-0.20372 -0.342584,-0.3646 -0.589844,-0.41016 l -6e-6,-2e-5 c -0.394082,-0.0727 -0.759199,0.15384 -1.027344,0.48438 -0.268144,0.33054 -0.469726,0.78825 -0.566406,1.3125 -0.02821,0.15359 -0.03001,0.30423 -0.02148,0.45117 -0.04177,0.59327 0.227614,1.06785 0.55664,1.44727 0.329949,0.38048 0.721578,0.69673 1,1.02734 0.01633,0.0196 0.03541,0.0367 0.05664,0.0508 0.376039,0.24525 0.919216,0.50978 1.533203,0.45508 0.531045,-0.0472 1.005174,-0.2034 1.359375,-0.43945 0.354201,-0.23605 0.613644,-0.57938 0.578125,-0.97852 -0.0254,-0.28495 -0.201298,-0.52183 -0.433594,-0.6875 -0.13808,-0.0985 -0.334372,-0.13945 -0.511718,-0.19922 z"
         style="color:#000000;font-style:normal;font-variant:normal;font-weight:normal;font-stretch:normal;font-size:medium;line-height:normal;font-family:sans-serif;font-variant-ligatures:normal;font-variant-position:normal;font-variant-caps:normal;font-variant-numeric:normal;font-variant-alternates:normal;font-variant-east-asian:normal;font-feature-settings:normal;font-variation-settings:normal;text-indent:0;text-align:start;text-decoration:none;text-decoration-line:none;text-decoration-style:solid;text-decoration-color:#000000;letter-spacing:normal;word-spacing:normal;text-transform:none;writing-mode:lr-tb;direction:ltr;text-orientation:mixed;dominant-baseline:auto;baseline-shift:baseline;text-anchor:start;white-space:normal;shape-padding:0;shape-margin:0;inline-size:0;clip-rule:evenodd;display:inline;overflow:visible;visibility:visible;isolation:auto;mix-blend-mode:normal;color-interpolation:sRGB;color-interpolation-filters:linearRGB;solid-color:#000000;solid-opacity:1;vector-effect:none;fill:#50b86b;fill-opacity:1;fill-rule:evenodd;stroke:none;stroke-width:0.421715;stroke-linecap:round;stroke-linejoin:round;stroke-miterlimit:1.5;stroke-dasharray:none;stroke-dashoffset:0;stroke-opacity:1;color-rendering:auto;image-rendering:auto;shape-rendering:auto;text-rendering:auto;enable-background:accumulate;stop-color:#000000" />
      <path
         sodipodi:nodetypes="cscscssscccccscccc"
         id="path1689"
         d="m 39.105469,343.17969 c -0.09184,-0.13195 -0.168556,-0.28792 -0.283203,-0.38086 -0.203347,-0.16486 -0.458509,-0.26275 -0.720704,-0.21485 -0.367329,0.0673 -0.609121,0.38311 -0.730468,0.75196 -0.121347,0.36885 -0.143784,0.82163 -0.05664,1.29687 0.01279,0.0694 0.03583,0.14408 0.07227,0.25977 0.03643,0.11568 0.08397,0.25572 0.140625,0.39648 0.05665,0.14077 0.121734,0.28207 0.197265,0.4043 0.07553,0.12223 0.140016,0.25432 0.351563,0.30273 l -0.04297,-0.0137 1.519531,0.64258 c 0.01454,0.006 0.02957,0.0105 0.04492,0.0137 0.400167,0.0909 0.96005,0.14864 1.478516,-0.10351 0.434594,-0.21116 0.784374,-0.49633 1.009766,-0.8125 0.225391,-0.31618 0.339152,-0.69736 0.175781,-1.03321 -0.117424,-0.24239 -0.35151,-0.38954 -0.607422,-0.45507 -0.134486,-0.0345 -0.312682,0.0156 -0.472656,0.0254 z"
         style="color:#000000;font-style:normal;font-variant:normal;font-weight:normal;font-stretch:normal;font-size:medium;line-height:normal;font-family:sans-serif;font-variant-ligatures:normal;font-variant-position:normal;font-variant-caps:normal;font-variant-numeric:normal;font-variant-alternates:normal;font-variant-east-asian:normal;font-feature-settings:normal;font-variation-settings:normal;text-indent:0;text-align:start;text-decoration:none;text-decoration-line:none;text-decoration-style:solid;text-decoration-color:#000000;letter-spacing:normal;word-spacing:normal;text-transform:none;writing-mode:lr-tb;direction:ltr;text-orientation:mixed;dominant-baseline:auto;baseline-shift:baseline;text-anchor:start;white-space:normal;shape-padding:0;shape-margin:0;inline-size:0;clip-rule:evenodd;display:inline;overflow:visible;visibility:visible;isolation:auto;mix-blend-mode:normal;color-interpolation:sRGB;color-interpolation-filters:linearRGB;solid-color:#000000;solid-opacity:1;vector-effect:none;fill:#50b86b;fill-opacity:1;fill-rule:evenodd;stroke:none;stroke-width:0.421715;stroke-linecap:round;stroke-linejoin:round;stroke-miterlimit:1.5;stroke-dasharray:none;stroke-dashoffset:0;stroke-opacity:1;color-rendering:auto;image-rendering:auto;shape-rendering:auto;text-rendering:auto;enable-background:accumulate;stop-color:#000000" />
      <path
         sodipodi:nodetypes="ccccsccccccssscc"
         id="path1695"
         d="m 31.693359,344.21099 c -0.0948,-0.005 -0.192098,-0.0432 -0.287109,-0.0195 -0.226181,0.0564 -0.420044,0.21655 -0.572266,0.44336 -0.0072,0.01 -0.01375,0.0204 -0.01953,0.0312 -0.146016,0.30278 -0.04229,0.64213 0.154297,0.91601 0.196584,0.27389 0.49953,0.51717 0.873047,0.69727 0.451846,0.21782 0.932647,0.16647 1.275391,0.0879 0.02165,-0.005 0.04265,-0.0118 0.0625,-0.0215 l 1.164062,-0.59375 c 0.01902,-0.0102 0.03673,-0.0226 0.05273,-0.0371 0.26501,-0.23139 0.590817,-0.59028 0.679688,-1.08398 0.07354,-0.40824 0.05364,-0.79726 -0.05273,-1.11719 -0.106374,-0.31992 -0.319672,-0.60246 -0.650391,-0.66211 -0.236257,-0.0426 -0.462384,0.0467 -0.640625,0.18555 -0.08984,0.07 -0.149852,0.18546 -0.22461,0.2793 z"
         style="color:#000000;font-style:normal;font-variant:normal;font-weight:normal;font-stretch:normal;font-size:medium;line-height:normal;font-family:sans-serif;font-variant-ligatures:normal;font-variant-position:normal;font-variant-caps:normal;font-variant-numeric:normal;font-variant-alternates:normal;font-variant-east-asian:normal;font-feature-settings:normal;font-variation-settings:normal;text-indent:0;text-align:start;text-decoration:none;text-decoration-line:none;text-decoration-style:solid;text-decoration-color:#000000;letter-spacing:normal;word-spacing:normal;text-transform:none;writing-mode:lr-tb;direction:ltr;text-orientation:mixed;dominant-baseline:auto;baseline-shift:baseline;text-anchor:start;white-space:normal;shape-padding:0;shape-margin:0;inline-size:0;clip-rule:evenodd;display:inline;overflow:visible;visibility:visible;isolation:auto;mix-blend-mode:normal;color-interpolation:sRGB;color-interpolation-filters:linearRGB;solid-color:#000000;solid-opacity:1;vector-effect:none;fill:#50b86b;fill-opacity:1;fill-rule:evenodd;stroke:none;stroke-width:0.421715;stroke-linecap:round;stroke-linejoin:round;stroke-miterlimit:1.5;stroke-dasharray:none;stroke-dashoffset:0;stroke-opacity:1;color-rendering:auto;image-rendering:auto;shape-rendering:auto;text-rendering:auto;enable-background:accumulate;stop-color:#000000" />
      <path
         id="path1524"
         style="color:#000000;font-style:normal;font-variant:normal;font-weight:normal;font-stretch:normal;font-size:medium;line-height:normal;font-family:sans-serif;font-variant-ligatures:normal;font-variant-position:normal;font-variant-caps:normal;font-variant-numeric:normal;font-variant-alternates:normal;font-variant-east-asian:normal;font-feature-settings:normal;font-variation-settings:normal;text-indent:0;text-align:start;text-decoration:none;text-decoration-line:none;text-decoration-style:solid;text-decoration-color:#000000;letter-spacing:normal;word-spacing:normal;text-transform:none;writing-mode:lr-tb;direction:ltr;text-orientation:mixed;dominant-baseline:auto;baseline-shift:baseline;text-anchor:start;white-space:normal;shape-padding:0;shape-margin:0;inline-size:0;clip-rule:evenodd;display:inline;overflow:visible;visibility:visible;isolation:auto;mix-blend-mode:normal;color-interpolation:sRGB;color-interpolation-filters:linearRGB;solid-color:#000000;solid-opacity:1;vector-effect:none;fill:#349951;fill-opacity:1;fill-rule:evenodd;stroke:none;stroke-width:1.59388;stroke-linecap:round;stroke-linejoin:round;stroke-miterlimit:1.5;stroke-dasharray:none;stroke-dashoffset:0;stroke-opacity:1;color-rendering:auto;image-rendering:auto;shape-rendering:auto;text-rendering:auto;enable-background:accumulate;stop-color:#000000"
         d="m 127.67188,237.87891 c -0.0589,0.0412 -0.12322,0.0752 -0.17969,0.11914 -0.33956,0.26456 -0.56511,0.70197 -0.84766,1.05664 l -6.85937,3.38086 c -0.3583,-0.0189 -0.72489,-0.1638 -1.08399,-0.0742 -0.169,0.0421 -0.3291,0.10993 -0.48828,0.18164 0.31884,1.1459 0.77033,2.32091 1.37305,3.50195 0.36431,0.71494 0.79478,1.36831 1.26367,1.94922 0.0314,0.0389 0.0618,0.0723 0.0957,0.10938 0.0271,0.0325 1.29634,1.53608 3.06836,2.67578 0.41276,-0.0472 0.80503,-0.11525 1.1543,-0.19532 0.0818,-0.0189 0.1613,-0.0434 0.23633,-0.0801 l 4.39843,-2.24414 c 0.0719,-0.0386 0.13875,-0.0858 0.19922,-0.14063 0.28403,-0.24799 0.58359,-0.54497 0.87891,-0.87109 0.0621,-1.7985 -0.13192,-4.0799 -1.26953,-6.31055 -0.5779,-1.13268 -1.23299,-2.15449 -1.93945,-3.05859 z"
         transform="matrix(0.26458334,0,0,0.26458334,0,280.06666)" />
      <path
         id="path1701"
         d="m 32.5,342.42578 c -0.184309,-0.0591 -0.391439,-0.0668 -0.572266,0.0254 a 0.26460996,0.26460996 0 0 0 0,0.002 c -0.180814,0.0923 -0.298965,0.26336 -0.359375,0.44727 -0.06041,0.18391 -0.07391,0.38853 -0.05859,0.61133 0.03064,0.4456 0.185455,0.96572 0.453125,1.49023 0.0844,0.16563 0.183785,0.3159 0.292968,0.45117 a 0.26460996,0.26460996 0 0 0 0.01172,0.0137 c 0,0 0.479589,0.54717 0.990234,0.78906 a 0.26460996,0.26460996 0 0 0 0.277344,-0.0332 l 0.632813,-0.50391 a 0.26460996,0.26460996 0 0 0 0.09961,-0.19531 c 0.02033,-0.44476 -0.02465,-1.01113 -0.296875,-1.54492 -0.267647,-0.5246 -0.598708,-0.9558 -0.941406,-1.24219 -0.171349,-0.1432 -0.344988,-0.25147 -0.529297,-0.31055 z"
         style="color:#000000;font-style:normal;font-variant:normal;font-weight:normal;font-stretch:normal;font-size:medium;line-height:normal;font-family:sans-serif;font-variant-ligatures:normal;font-variant-position:normal;font-variant-caps:normal;font-variant-numeric:normal;font-variant-alternates:normal;font-variant-east-asian:normal;font-feature-settings:normal;font-variation-settings:normal;text-indent:0;text-align:start;text-decoration:none;text-decoration-line:none;text-decoration-style:solid;text-decoration-color:#000000;letter-spacing:normal;word-spacing:normal;text-transform:none;writing-mode:lr-tb;direction:ltr;text-orientation:mixed;dominant-baseline:auto;baseline-shift:baseline;text-anchor:start;white-space:normal;shape-padding:0;shape-margin:0;inline-size:0;clip-rule:evenodd;display:inline;overflow:visible;visibility:visible;isolation:auto;mix-blend-mode:normal;color-interpolation:sRGB;color-interpolation-filters:linearRGB;solid-color:#000000;solid-opacity:1;vector-effect:none;fill:#50b86b;fill-opacity:1;fill-rule:evenodd;stroke:none;stroke-width:0.421715;stroke-linecap:round;stroke-linejoin:round;stroke-miterlimit:1.5;stroke-dasharray:none;stroke-dashoffset:0;stroke-opacity:1;color-rendering:auto;image-rendering:auto;shape-rendering:auto;text-rendering:auto;enable-background:accumulate;stop-color:#000000" />
      <path
         id="path1707"
         d="m 34.652344,345.34961 c -0.392724,-0.1497 -0.829946,-0.14657 -1.220703,0.0527 -0.781553,0.39861 -1.038484,1.41044 -0.617188,2.23633 0.187935,0.36872 0.890462,1.48707 1.695313,2.63867 L 35.5,351.99805 a 0.26460996,0.26460996 0 0 0 0.455078,0.004 l 1.056641,-1.73828 a 0.26460996,0.26460996 0 0 0 0.02344,-0.22265 l -0.578125,-1.71094 a 0.26460996,0.26460996 0 0 0 -0.002,-0.006 c -0.367093,-0.9975 -0.703241,-1.81809 -0.851562,-2.10938 -0.210653,-0.41299 -0.558449,-0.71553 -0.951172,-0.86523 z"
         style="color:#000000;font-style:normal;font-variant:normal;font-weight:normal;font-stretch:normal;font-size:medium;line-height:normal;font-family:sans-serif;font-variant-ligatures:normal;font-variant-position:normal;font-variant-caps:normal;font-variant-numeric:normal;font-variant-alternates:normal;font-variant-east-asian:normal;font-feature-settings:normal;font-variation-settings:normal;text-indent:0;text-align:start;text-decoration:none;text-decoration-line:none;text-decoration-style:solid;text-decoration-color:#000000;letter-spacing:normal;word-spacing:normal;text-transform:none;writing-mode:lr-tb;direction:ltr;text-orientation:mixed;dominant-baseline:auto;baseline-shift:baseline;text-anchor:start;white-space:normal;shape-padding:0;shape-margin:0;inline-size:0;clip-rule:evenodd;display:inline;overflow:visible;visibility:visible;isolation:auto;mix-blend-mode:normal;color-interpolation:sRGB;color-interpolation-filters:linearRGB;solid-color:#000000;solid-opacity:1;vector-effect:none;fill:#ff7247;fill-opacity:1;fill-rule:evenodd;stroke:none;stroke-width:0.421715;stroke-linecap:round;stroke-linejoin:round;stroke-miterlimit:1.5;stroke-dasharray:none;stroke-dashoffset:0;stroke-opacity:1;color-rendering:auto;image-rendering:auto;shape-rendering:auto;text-rendering:auto;enable-background:accumulate;stop-color:#000000" />
      <path
         d="m 34.041335,345.24511 c -0.207243,0.007 -0.414404,0.0575 -0.609783,0.1571 -0.480832,0.24523 -0.761849,0.72308 -0.80977,1.24643 0.08437,-0.0719 0.177683,-0.13561 0.280604,-0.1881 0.390757,-0.19927 0.827873,-0.20241 1.220597,-0.0527 0.392723,0.1497 0.740709,0.45208 0.951362,0.86506 0.148323,0.2913 0.484537,1.11194 0.851627,2.10944 a 0.26460996,0.26460996 0 0 1 0.0021,0.006 l 0.576707,1.70842 0.506947,-0.83302 a 0.26460996,0.26460996 0 0 0 0.02326,-0.22273 l -0.577742,-1.711 a 0.26460996,0.26460996 0 0 0 -0.0021,-0.006 c -0.367091,-0.9975 -0.703305,-1.81814 -0.851628,-2.10943 -0.210653,-0.41299 -0.558638,-0.71536 -0.951362,-0.86506 -0.196363,-0.0748 -0.403574,-0.11137 -0.610815,-0.10439 z"
         style="color:#000000;font-style:normal;font-variant:normal;font-weight:normal;font-stretch:normal;font-size:medium;line-height:normal;font-family:sans-serif;font-variant-ligatures:normal;font-variant-position:normal;font-variant-caps:normal;font-variant-numeric:normal;font-variant-alternates:normal;font-variant-east-asian:normal;font-feature-settings:normal;font-variation-settings:normal;text-indent:0;text-align:start;text-decoration:none;text-decoration-line:none;text-decoration-style:solid;text-decoration-color:#000000;letter-spacing:normal;word-spacing:normal;text-transform:none;writing-mode:lr-tb;direction:ltr;text-orientation:mixed;dominant-baseline:auto;baseline-shift:baseline;text-anchor:start;white-space:normal;shape-padding:0;shape-margin:0;inline-size:0;clip-rule:evenodd;display:inline;overflow:visible;visibility:visible;isolation:auto;mix-blend-mode:normal;color-interpolation:sRGB;color-interpolation-filters:linearRGB;solid-color:#000000;solid-opacity:1;vector-effect:none;fill:#f76336;fill-opacity:1;fill-rule:evenodd;stroke:none;stroke-width:0.421715;stroke-linecap:round;stroke-linejoin:round;stroke-miterlimit:1.5;stroke-dasharray:none;stroke-dashoffset:0;stroke-opacity:1;color-rendering:auto;image-rendering:auto;shape-rendering:auto;text-rendering:auto;enable-background:accumulate;stop-color:#000000"
         id="path2377" />
      <path
         sodipodi:nodetypes="cccccccc"
         transform="matrix(0.26458334,0,0,0.26458334,0,280.06666)"
         d="m 137.78302,257.98051 c -0.66602,-1.8098 -1.29721,-3.43281 -1.84375,-4.78711 l 1.8e-4,-4e-5 -5.50884,12.16972 3.29205,5.71895 1.60546,1.23828 4.38477,-8.625 z"
         style="fill:#f76336;fill-opacity:1;stroke:none;stroke-width:1.59388;stroke-linecap:round;stroke-linejoin:round;stroke-miterlimit:1.5;paint-order:markers fill stroke;stop-color:#000000"
         id="path2382" />
      <path
         transform="matrix(0.26458334,0,0,0.26458334,0,280.06666)"
         d="m 135.17578,251.34961 -4.75976,2.42383 a 1.0000006,1.0000006 0 0 0 -0.43555,1.34375 1.0000006,1.0000006 0 0 0 1.35156,0.43554 l 4.60938,-2.35351 c -0.2829,-0.70109 -0.54133,-1.33021 -0.76563,-1.84961 z m -2.59375,6.76953 a 1.0000006,1.0000006 0 0 0 -0.0547,0.002 1.0000006,1.0000006 0 0 0 -0.41406,0.11133 l -4.82812,2.46289 c 0.36241,0.555 0.70765,1.08561 1.10546,1.67969 l 4.63086,-2.36328 a 1.0000006,1.0000006 0 0 0 0.44336,-1.34375 1.0000006,1.0000006 0 0 0 -0.88281,-0.54883 z"
         style="color:#000000;font-style:normal;font-variant:normal;font-weight:normal;font-stretch:normal;font-size:medium;line-height:normal;font-family:sans-serif;font-variant-ligatures:normal;font-variant-position:normal;font-variant-caps:normal;font-variant-numeric:normal;font-variant-alternates:normal;font-variant-east-asian:normal;font-feature-settings:normal;font-variation-settings:normal;text-indent:0;text-align:start;text-decoration:none;text-decoration-line:none;text-decoration-style:solid;text-decoration-color:#000000;letter-spacing:normal;word-spacing:normal;text-transform:none;writing-mode:lr-tb;direction:ltr;text-orientation:mixed;dominant-baseline:auto;baseline-shift:baseline;text-anchor:start;white-space:normal;shape-padding:0;shape-margin:0;inline-size:0;clip-rule:evenodd;display:inline;overflow:visible;visibility:visible;opacity:1;isolation:auto;mix-blend-mode:normal;color-interpolation:sRGB;color-interpolation-filters:linearRGB;solid-color:#000000;solid-opacity:1;vector-effect:none;fill:#ffa185;fill-opacity:1;fill-rule:evenodd;stroke:none;stroke-width:1.59388;stroke-linecap:round;stroke-linejoin:round;stroke-miterlimit:1.5;stroke-dasharray:none;stroke-dashoffset:0;stroke-opacity:1;color-rendering:auto;image-rendering:auto;shape-rendering:auto;text-rendering:auto;enable-background:accumulate;stop-color:#000000;stop-opacity:1"
         id="path1711" />
      <path
         id="path1530"
         style="color:#000000;font-style:normal;font-variant:normal;font-weight:normal;font-stretch:normal;font-size:medium;line-height:normal;font-family:sans-serif;font-variant-ligatures:normal;font-variant-position:normal;font-variant-caps:normal;font-variant-numeric:normal;font-variant-alternates:normal;font-variant-east-asian:normal;font-feature-settings:normal;font-variation-settings:normal;text-indent:0;text-align:start;text-decoration:none;text-decoration-line:none;text-decoration-style:solid;text-decoration-color:#000000;letter-spacing:normal;word-spacing:normal;text-transform:none;writing-mode:lr-tb;direction:ltr;text-orientation:mixed;dominant-baseline:auto;baseline-shift:baseline;text-anchor:start;white-space:normal;shape-padding:0;shape-margin:0;inline-size:0;clip-rule:evenodd;display:inline;overflow:visible;visibility:visible;isolation:auto;mix-blend-mode:normal;color-interpolation:sRGB;color-interpolation-filters:linearRGB;solid-color:#000000;solid-opacity:1;vector-effect:none;fill:#349951;fill-opacity:1;fill-rule:evenodd;stroke:none;stroke-width:1.59388;stroke-linecap:round;stroke-linejoin:round;stroke-miterlimit:1.5;stroke-dasharray:none;stroke-dashoffset:0;stroke-opacity:1;color-rendering:auto;image-rendering:auto;shape-rendering:auto;text-rendering:auto;enable-background:accumulate;stop-color:#000000"
         d="m 146.85352,237.2207 c -0.76285,1.00619 -1.47052,2.14378 -2.10157,3.39063 -1.3338,2.63637 -1.53546,5.37807 -1.43164,7.49219 0.0174,0.34272 0.12456,0.66517 0.2793,0.96093 0.0987,0.0417 0.18788,0.0891 0.31055,0.11719 l -0.16211,-0.0508 5.74218,2.42773 c 0.055,0.0227 0.11191,0.0406 0.16993,0.0527 0.29443,0.0669 0.6283,0.1183 0.96289,0.16797 1.759,-1.16601 3.84464,-2.93858 5.17187,-5.56446 0.63189,-1.25017 1.13016,-2.49658 1.49024,-3.70703 -0.48765,-0.0693 -1.08899,0.0777 -1.63868,0.11133 l -7.8457,-4.08203 c -0.31173,-0.44787 -0.5825,-0.9604 -0.94726,-1.31641 z"
         transform="matrix(0.26458334,0,0,0.26458334,0,280.06666)" />
      <path
         id="path1721"
         d="m 40.320312,342.07031 c -0.209342,0.0678 -0.410714,0.19425 -0.609374,0.36133 -0.397322,0.33417 -0.783852,0.84086 -1.095704,1.45703 -0.314343,0.62133 -0.367366,1.284 -0.341796,1.80469 0.0048,0.0948 0.05992,0.17972 0.144531,0.22266 l 0.970703,0.49023 c 0.08491,0.0429 0.186327,0.037 0.265625,-0.0156 0.434305,-0.28753 0.937523,-0.72116 1.250436,-1.34025 0.312914,-0.61909 0.492923,-1.23017 0.526908,-1.74769 0.01701,-0.25902 -9.88e-4,-0.49623 -0.07031,-0.70507 -0.06932,-0.20885 -0.201887,-0.39854 -0.402344,-0.5 -0.200465,-0.10146 -0.429329,-0.0952 -0.638672,-0.0274 z"
         style="color:#000000;font-style:normal;font-variant:normal;font-weight:normal;font-stretch:normal;font-size:medium;line-height:normal;font-family:sans-serif;font-variant-ligatures:normal;font-variant-position:normal;font-variant-caps:normal;font-variant-numeric:normal;font-variant-alternates:normal;font-variant-east-asian:normal;font-feature-settings:normal;font-variation-settings:normal;text-indent:0;text-align:start;text-decoration:none;text-decoration-line:none;text-decoration-style:solid;text-decoration-color:#000000;letter-spacing:normal;word-spacing:normal;text-transform:none;writing-mode:lr-tb;direction:ltr;text-orientation:mixed;dominant-baseline:auto;baseline-shift:baseline;text-anchor:start;white-space:normal;shape-padding:0;shape-margin:0;inline-size:0;clip-rule:evenodd;display:inline;overflow:visible;visibility:visible;isolation:auto;mix-blend-mode:normal;color-interpolation:sRGB;color-interpolation-filters:linearRGB;solid-color:#000000;solid-opacity:1;vector-effect:none;fill:#50b86b;fill-opacity:1;fill-rule:evenodd;stroke:none;stroke-width:0.421715;stroke-linecap:round;stroke-linejoin:round;stroke-miterlimit:1.5;stroke-dasharray:none;stroke-dashoffset:0;stroke-opacity:1;color-rendering:auto;image-rendering:auto;shape-rendering:auto;text-rendering:auto;enable-background:accumulate;stop-color:#000000"
         sodipodi:nodetypes="csccccccssscc" />
      <path
         id="path1725"
         d="m 39.525391,344.65625 a 0.2645835,0.2645835 0 0 0 -0.230469,0.14453 l -0.458984,0.90625 a 0.2645835,0.2645835 0 0 0 0.117187,0.35547 0.2645835,0.2645835 0 0 0 0.355469,-0.11523 l 0.458984,-0.90821 a 0.2645835,0.2645835 0 0 0 -0.117187,-0.35547 0.2645835,0.2645835 0 0 0 -0.125,-0.0273 z"
         style="color:#000000;font-style:normal;font-variant:normal;font-weight:normal;font-stretch:normal;font-size:medium;line-height:normal;font-family:sans-serif;font-variant-ligatures:normal;font-variant-position:normal;font-variant-caps:normal;font-variant-numeric:normal;font-variant-alternates:normal;font-variant-east-asian:normal;font-feature-settings:normal;font-variation-settings:normal;text-indent:0;text-align:start;text-decoration:none;text-decoration-line:none;text-decoration-style:solid;text-decoration-color:#000000;letter-spacing:normal;word-spacing:normal;text-transform:none;writing-mode:lr-tb;direction:ltr;text-orientation:mixed;dominant-baseline:auto;baseline-shift:baseline;text-anchor:start;white-space:normal;shape-padding:0;shape-margin:0;inline-size:0;clip-rule:evenodd;display:inline;overflow:visible;visibility:visible;opacity:1;isolation:auto;mix-blend-mode:normal;color-interpolation:sRGB;color-interpolation-filters:linearRGB;solid-color:#000000;solid-opacity:1;vector-effect:none;fill:#349951;fill-opacity:1;fill-rule:evenodd;stroke:none;stroke-width:0.421715;stroke-linecap:round;stroke-linejoin:round;stroke-miterlimit:1.5;stroke-dasharray:none;stroke-dashoffset:0;stroke-opacity:1;color-rendering:auto;image-rendering:auto;shape-rendering:auto;text-rendering:auto;enable-background:accumulate;stop-color:#000000;stop-opacity:1" />
      <path
         id="path1731"
         d="m 37.787109,345.53516 c -0.452053,0.1741 -0.853517,0.52551 -1.095703,1.0039 -0.12111,0.23923 -0.349991,0.78735 -0.630859,1.51563 -0.280868,0.72828 -0.606921,1.62349 -0.896485,2.50586 -0.289563,0.88236 -0.542279,1.75008 -0.677734,2.4375 -0.06773,0.34371 -0.106414,0.64099 -0.101562,0.88867 0.0024,0.12384 0.0135,0.23527 0.05078,0.34375 0.03728,0.10848 0.109916,0.22699 0.236328,0.29101 0.126434,0.064 0.263547,0.0518 0.373047,0.0176 0.1095,-0.0342 0.207357,-0.0907 0.308594,-0.16211 0.202473,-0.14274 0.419378,-0.34932 0.65625,-0.60742 0.473743,-0.51619 1.02292,-1.23442 1.5625,-1.99023 0.53958,-0.75582 1.067711,-1.54752 1.488281,-2.20508 0.42057,-0.65756 0.726576,-1.16904 0.847656,-1.4082 0.484387,-0.95682 0.182863,-2.11906 -0.716797,-2.57422 -0.4497,-0.22775 -0.952243,-0.23075 -1.404297,-0.0566 z"
         style="color:#000000;font-style:normal;font-variant:normal;font-weight:normal;font-stretch:normal;font-size:medium;line-height:normal;font-family:sans-serif;font-variant-ligatures:normal;font-variant-position:normal;font-variant-caps:normal;font-variant-numeric:normal;font-variant-alternates:normal;font-variant-east-asian:normal;font-feature-settings:normal;font-variation-settings:normal;text-indent:0;text-align:start;text-decoration:none;text-decoration-line:none;text-decoration-style:solid;text-decoration-color:#000000;letter-spacing:normal;word-spacing:normal;text-transform:none;writing-mode:lr-tb;direction:ltr;text-orientation:mixed;dominant-baseline:auto;baseline-shift:baseline;text-anchor:start;white-space:normal;shape-padding:0;shape-margin:0;inline-size:0;clip-rule:evenodd;display:inline;overflow:visible;visibility:visible;isolation:auto;mix-blend-mode:normal;color-interpolation:sRGB;color-interpolation-filters:linearRGB;solid-color:#000000;solid-opacity:1;vector-effect:none;fill:#ff7247;fill-opacity:1;fill-rule:evenodd;stroke:none;stroke-width:0.421715;stroke-linecap:round;stroke-linejoin:round;stroke-miterlimit:1.5;stroke-dasharray:none;stroke-dashoffset:0;stroke-opacity:1;color-rendering:auto;image-rendering:auto;shape-rendering:auto;text-rendering:auto;enable-background:accumulate;stop-color:#000000" />
      <path
         d="m 38.490158,345.41306 c -0.199078,-0.006 -0.397666,0.0243 -0.589629,0.0848 0.07851,0.0259 0.156556,0.0556 0.232545,0.094 0.89966,0.45516 1.201139,1.61718 0.716751,2.574 -0.121079,0.23916 -0.426921,0.75063 -0.847492,1.40819 -0.420572,0.65756 -0.948701,1.44921 -1.488282,2.20503 -0.53958,0.75581 -1.088953,1.47439 -1.562695,1.99058 -0.17844,0.19443 -0.345702,0.3592 -0.503846,0.48989 0.0398,0.10012 0.108953,0.2036 0.224277,0.262 0.126433,0.064 0.263604,0.0518 0.373102,0.0176 0.1095,-0.0342 0.207272,-0.0909 0.308509,-0.16227 0.202473,-0.14274 0.41942,-0.34909 0.656291,-0.60719 0.473742,-0.51619 1.023115,-1.23477 1.562696,-1.99058 0.53958,-0.75582 1.06771,-1.54747 1.488281,-2.20503 0.420571,-0.65756 0.726414,-1.16903 0.847492,-1.40819 0.484389,-0.95682 0.182909,-2.11884 -0.716751,-2.574 -0.224851,-0.11387 -0.462894,-0.17135 -0.701249,-0.1788 z"
         style="color:#000000;font-style:normal;font-variant:normal;font-weight:normal;font-stretch:normal;font-size:medium;line-height:normal;font-family:sans-serif;font-variant-ligatures:normal;font-variant-position:normal;font-variant-caps:normal;font-variant-numeric:normal;font-variant-alternates:normal;font-variant-east-asian:normal;font-feature-settings:normal;font-variation-settings:normal;text-indent:0;text-align:start;text-decoration:none;text-decoration-line:none;text-decoration-style:solid;text-decoration-color:#000000;letter-spacing:normal;word-spacing:normal;text-transform:none;writing-mode:lr-tb;direction:ltr;text-orientation:mixed;dominant-baseline:auto;baseline-shift:baseline;text-anchor:start;white-space:normal;shape-padding:0;shape-margin:0;inline-size:0;clip-rule:evenodd;display:inline;overflow:visible;visibility:visible;isolation:auto;mix-blend-mode:normal;color-interpolation:sRGB;color-interpolation-filters:linearRGB;solid-color:#000000;solid-opacity:1;vector-effect:none;fill:#f76336;fill-opacity:1;fill-rule:evenodd;stroke:none;stroke-width:0.421715;stroke-linecap:round;stroke-linejoin:round;stroke-miterlimit:1.5;stroke-dasharray:none;stroke-dashoffset:0;stroke-opacity:1;color-rendering:auto;image-rendering:auto;shape-rendering:auto;text-rendering:auto;enable-background:accumulate;stop-color:#000000"
         id="path2367" />
      <path
         transform="matrix(0.26458334,0,0,0.26458334,0,280.06666)"
         d="m 143.96094,256.1875 a 1.0000006,1.0000006 0 0 0 -0.8711,0.54688 1.0000006,1.0000006 0 0 0 0.43555,1.34374 l 5.3125,2.6875 c 0.38964,-0.62975 0.75324,-1.21704 1.04492,-1.71093 l -5.44922,-2.76367 a 1.0000006,1.0000006 0 0 0 -0.47265,-0.10352 z m -8.13672,2.03125 c -0.23009,0.60799 -0.46276,1.23626 -0.70117,1.88477 l 5.33203,2.69726 a 1.0000006,1.0000006 0 0 0 1.34375,-0.43555 1.0000006,1.0000006 0 0 0 -0.44336,-1.34179 z m 2.9043,7.88281 a 1.0000006,1.0000006 0 0 0 -0.8711,0.54688 1.0000006,1.0000006 0 0 0 0.43555,1.34179 l 4.31055,2.18555 c 0.39128,-0.55543 0.76765,-1.10599 1.15039,-1.66211 l -4.55274,-2.30078 a 1.0000006,1.0000006 0 0 0 -0.47265,-0.11133 z"
         style="color:#000000;font-style:normal;font-variant:normal;font-weight:normal;font-stretch:normal;font-size:medium;line-height:normal;font-family:sans-serif;font-variant-ligatures:normal;font-variant-position:normal;font-variant-caps:normal;font-variant-numeric:normal;font-variant-alternates:normal;font-variant-east-asian:normal;font-feature-settings:normal;font-variation-settings:normal;text-indent:0;text-align:start;text-decoration:none;text-decoration-line:none;text-decoration-style:solid;text-decoration-color:#000000;letter-spacing:normal;word-spacing:normal;text-transform:none;writing-mode:lr-tb;direction:ltr;text-orientation:mixed;dominant-baseline:auto;baseline-shift:baseline;text-anchor:start;white-space:normal;shape-padding:0;shape-margin:0;inline-size:0;clip-rule:evenodd;display:inline;overflow:visible;visibility:visible;opacity:1;isolation:auto;mix-blend-mode:normal;color-interpolation:sRGB;color-interpolation-filters:linearRGB;solid-color:#000000;solid-opacity:1;vector-effect:none;fill:#ffa185;fill-opacity:1;fill-rule:evenodd;stroke:none;stroke-width:1.59388;stroke-linecap:round;stroke-linejoin:round;stroke-miterlimit:1.5;stroke-dasharray:none;stroke-dashoffset:0;stroke-opacity:1;color-rendering:auto;image-rendering:auto;shape-rendering:auto;text-rendering:auto;enable-background:accumulate;stop-color:#000000;stop-opacity:1"
         id="path1735" />
      <path
         id="path1538"
         style="color:#000000;font-style:normal;font-variant:normal;font-weight:normal;font-stretch:normal;font-size:medium;line-height:normal;font-family:sans-serif;font-variant-ligatures:normal;font-variant-position:normal;font-variant-caps:normal;font-variant-numeric:normal;font-variant-alternates:normal;font-variant-east-asian:normal;font-feature-settings:normal;font-variation-settings:normal;text-indent:0;text-align:start;text-decoration:none;text-decoration-line:none;text-decoration-style:solid;text-decoration-color:#000000;letter-spacing:normal;word-spacing:normal;text-transform:none;writing-mode:lr-tb;direction:ltr;text-orientation:mixed;dominant-baseline:auto;baseline-shift:baseline;text-anchor:start;white-space:normal;shape-padding:0;shape-margin:0;inline-size:0;clip-rule:evenodd;display:inline;overflow:visible;visibility:visible;isolation:auto;mix-blend-mode:normal;color-interpolation:sRGB;color-interpolation-filters:linearRGB;solid-color:#000000;solid-opacity:1;vector-effect:none;fill:#349951;fill-opacity:1;fill-rule:evenodd;stroke:none;stroke-width:1.59388;stroke-linecap:round;stroke-linejoin:round;stroke-miterlimit:1.5;stroke-dasharray:none;stroke-dashoffset:0;stroke-opacity:1;color-rendering:auto;image-rendering:auto;shape-rendering:auto;text-rendering:auto;enable-background:accumulate;stop-color:#000000"
         d="m 167.8418,251.11523 c -1.12254,0.71373 -2.24252,1.56609 -3.32813,2.55469 -2.38266,2.17055 -3.65982,4.90092 -4.3789,7.10938 a 1.3287033,1.3287033 0 0 0 0,0.008 c -0.0353,0.10952 -0.0407,0.22468 -0.0586,0.33789 0.33697,0.58611 0.73566,1.12873 1.16602,1.625 1.24705,1.43803 2.72699,2.63326 3.77929,3.88281 0.0617,0.0741 0.13461,0.13812 0.21485,0.19141 0.17094,0.11148 0.37782,0.22066 0.5664,0.33203 0.0498,-0.008 0.10116,-0.002 0.15039,-0.0137 l -0.008,0.008 c 2.26346,-0.50925 5.09239,-1.52056 7.47657,-3.69141 1.09705,-0.99903 2.06132,-2.04456 2.88281,-3.10546 -0.4642,-0.21633 -1.01389,-0.3478 -1.52344,-0.51954 l -6.52539,-7.18945 c -0.13349,-0.5136 -0.24527,-1.0443 -0.41406,-1.5293 z"
         transform="matrix(0.26458334,0,0,0.26458334,0,280.06666)" />
      <path
         id="path1749"
         d="m 46.234375,346.23633 c -0.239119,-0.0121 -0.493533,0.0386 -0.763672,0.13281 -0.540278,0.18844 -1.141463,0.55919 -1.707031,1.07422 -0.5672,0.5167 -0.882031,1.18221 -1.060547,1.73047 a 0.26460996,0.26460996 0 0 0 0.05664,0.25976 l 0.814453,0.89453 a 0.26460996,0.26460996 0 0 0 0.253906,0.0781 c 0.562515,-0.12656 1.252808,-0.37585 1.820313,-0.89258 0.565559,-0.51502 0.990429,-1.0774 1.228515,-1.59765 0.119043,-0.26013 0.19279,-0.51084 0.203125,-0.75 0.01033,-0.23917 -0.049,-0.47844 -0.210937,-0.65625 -0.161917,-0.1779 -0.395647,-0.26136 -0.634766,-0.27344 z"
         style="color:#000000;font-style:normal;font-variant:normal;font-weight:normal;font-stretch:normal;font-size:medium;line-height:normal;font-family:sans-serif;font-variant-ligatures:normal;font-variant-position:normal;font-variant-caps:normal;font-variant-numeric:normal;font-variant-alternates:normal;font-variant-east-asian:normal;font-feature-settings:normal;font-variation-settings:normal;text-indent:0;text-align:start;text-decoration:none;text-decoration-line:none;text-decoration-style:solid;text-decoration-color:#000000;letter-spacing:normal;word-spacing:normal;text-transform:none;writing-mode:lr-tb;direction:ltr;text-orientation:mixed;dominant-baseline:auto;baseline-shift:baseline;text-anchor:start;white-space:normal;shape-padding:0;shape-margin:0;inline-size:0;clip-rule:evenodd;display:inline;overflow:visible;visibility:visible;isolation:auto;mix-blend-mode:normal;color-interpolation:sRGB;color-interpolation-filters:linearRGB;solid-color:#000000;solid-opacity:1;vector-effect:none;fill:#50b86b;fill-opacity:1;fill-rule:evenodd;stroke:none;stroke-width:0.421715;stroke-linecap:round;stroke-linejoin:round;stroke-miterlimit:1.5;stroke-dasharray:none;stroke-dashoffset:0;stroke-opacity:1;color-rendering:auto;image-rendering:auto;shape-rendering:auto;text-rendering:auto;enable-background:accumulate;stop-color:#000000" />
      <path
         id="path1753"
         d="m 44.292969,348.59375 a 0.2645835,0.2645835 0 0 0 -0.181641,0.0684 l -0.835937,0.76172 a 0.2645835,0.2645835 0 0 0 -0.01758,0.37305 0.2645835,0.2645835 0 0 0 0.373047,0.0176 l 0.835938,-0.75976 a 0.2645835,0.2645835 0 0 0 0.01758,-0.375 0.2645835,0.2645835 0 0 0 -0.191406,-0.0859 z"
         style="color:#000000;font-style:normal;font-variant:normal;font-weight:normal;font-stretch:normal;font-size:medium;line-height:normal;font-family:sans-serif;font-variant-ligatures:normal;font-variant-position:normal;font-variant-caps:normal;font-variant-numeric:normal;font-variant-alternates:normal;font-variant-east-asian:normal;font-feature-settings:normal;font-variation-settings:normal;text-indent:0;text-align:start;text-decoration:none;text-decoration-line:none;text-decoration-style:solid;text-decoration-color:#000000;letter-spacing:normal;word-spacing:normal;text-transform:none;writing-mode:lr-tb;direction:ltr;text-orientation:mixed;dominant-baseline:auto;baseline-shift:baseline;text-anchor:start;white-space:normal;shape-padding:0;shape-margin:0;inline-size:0;clip-rule:evenodd;display:inline;overflow:visible;visibility:visible;opacity:1;isolation:auto;mix-blend-mode:normal;color-interpolation:sRGB;color-interpolation-filters:linearRGB;solid-color:#000000;solid-opacity:1;vector-effect:none;fill:#349951;fill-opacity:1;fill-rule:evenodd;stroke:none;stroke-width:0.421715;stroke-linecap:round;stroke-linejoin:round;stroke-miterlimit:1.5;stroke-dasharray:none;stroke-dashoffset:0;stroke-opacity:1;color-rendering:auto;image-rendering:auto;shape-rendering:auto;text-rendering:auto;enable-background:accumulate;stop-color:#000000;stop-opacity:1" />
      <path
         id="path1759"
         d="m 42.230469,348.83594 c -0.531266,0.002 -1.077873,0.20677 -1.513672,0.60351 -0.217931,0.1984 -0.675906,0.68038 -1.255859,1.32617 -0.579954,0.6458 -1.272033,1.44566 -1.921876,2.24805 -0.649842,0.80239 -1.256342,1.60445 -1.667968,2.26367 -0.205813,0.32962 -0.36343,0.62112 -0.455078,0.87696 -0.04583,0.12792 -0.07609,0.24833 -0.08008,0.37109 -0.004,0.12276 0.02364,0.26385 0.123046,0.37305 0.09943,0.10918 0.238738,0.15071 0.361328,0.1582 0.122591,0.007 0.243367,-0.0132 0.375,-0.0469 0.263268,-0.0674 0.568618,-0.19698 0.916016,-0.3711 0.694796,-0.34824 1.550543,-0.87719 2.410156,-1.44922 0.859614,-0.57202 1.720808,-1.18606 2.417969,-1.70312 0.678517,-0.50323 1.170642,-0.89169 1.398438,-1.09571 a 0.26460996,0.26460996 0 0 0 0.02148,-0.0156 c 0.0021,-0.002 0.01165,-0.008 0.01367,-0.01 a 0.26460996,0.26460996 0 0 0 0.0039,-0.004 c 0.871665,-0.79355 1.014595,-2.10396 0.271485,-2.91992 -0.371531,-0.40817 -0.886704,-0.60771 -1.417969,-0.60547 z"
         style="color:#000000;font-style:normal;font-variant:normal;font-weight:normal;font-stretch:normal;font-size:medium;line-height:normal;font-family:sans-serif;font-variant-ligatures:normal;font-variant-position:normal;font-variant-caps:normal;font-variant-numeric:normal;font-variant-alternates:normal;font-variant-east-asian:normal;font-feature-settings:normal;font-variation-settings:normal;text-indent:0;text-align:start;text-decoration:none;text-decoration-line:none;text-decoration-style:solid;text-decoration-color:#000000;letter-spacing:normal;word-spacing:normal;text-transform:none;writing-mode:lr-tb;direction:ltr;text-orientation:mixed;dominant-baseline:auto;baseline-shift:baseline;text-anchor:start;white-space:normal;shape-padding:0;shape-margin:0;inline-size:0;clip-rule:evenodd;display:inline;overflow:visible;visibility:visible;isolation:auto;mix-blend-mode:normal;color-interpolation:sRGB;color-interpolation-filters:linearRGB;solid-color:#000000;solid-opacity:1;vector-effect:none;fill:#ff7247;fill-opacity:1;fill-rule:evenodd;stroke:none;stroke-width:0.421715;stroke-linecap:round;stroke-linejoin:round;stroke-miterlimit:1.5;stroke-dasharray:none;stroke-dashoffset:0;stroke-opacity:1;color-rendering:auto;image-rendering:auto;shape-rendering:auto;text-rendering:auto;enable-background:accumulate;stop-color:#000000" />
      <path
         d="m 42.536939,348.85936 c 0.0176,0.0178 0.03623,0.034 0.05323,0.0527 0.743111,0.81596 0.599847,2.12617 -0.271817,2.91972 a 0.26460996,0.26460996 0 0 1 -0.0036,0.004 c -0.0021,0.002 -0.01185,0.008 -0.01394,0.01 a 0.26460996,0.26460996 0 0 1 -0.02119,0.0155 c -0.227798,0.20402 -0.719849,0.59283 -1.398365,1.09606 -0.697161,0.51706 -1.558327,1.13071 -2.41794,1.70273 -0.859613,0.57203 -1.715394,1.10129 -2.41019,1.44953 -0.257477,0.12905 -0.491532,0.23299 -0.702799,0.30592 -0.0056,0.0366 -0.01328,0.0734 -0.01447,0.11007 -0.004,0.12276 0.02359,0.26391 0.12299,0.37311 0.09943,0.10918 0.239145,0.15064 0.361735,0.15813 0.122591,0.007 0.243021,-0.0133 0.374654,-0.047 0.263268,-0.0674 0.568825,-0.19692 0.916223,-0.37104 0.694796,-0.34823 1.550578,-0.87749 2.41019,-1.44952 0.859613,-0.57202 1.720779,-1.18568 2.41794,-1.70274 0.678516,-0.50323 1.170567,-0.89203 1.398365,-1.09606 a 0.26460996,0.26460996 0 0 0 0.02119,-0.0155 c 0.0021,-0.002 0.01193,-0.008 0.01394,-0.01 a 0.26460996,0.26460996 0 0 0 0.0036,-0.004 c 0.871664,-0.79355 1.014928,-2.10376 0.271817,-2.91972 -0.299297,-0.32881 -0.69251,-0.52027 -1.11156,-0.58188 z"
         style="color:#000000;font-style:normal;font-variant:normal;font-weight:normal;font-stretch:normal;font-size:medium;line-height:normal;font-family:sans-serif;font-variant-ligatures:normal;font-variant-position:normal;font-variant-caps:normal;font-variant-numeric:normal;font-variant-alternates:normal;font-variant-east-asian:normal;font-feature-settings:normal;font-variation-settings:normal;text-indent:0;text-align:start;text-decoration:none;text-decoration-line:none;text-decoration-style:solid;text-decoration-color:#000000;letter-spacing:normal;word-spacing:normal;text-transform:none;writing-mode:lr-tb;direction:ltr;text-orientation:mixed;dominant-baseline:auto;baseline-shift:baseline;text-anchor:start;white-space:normal;shape-padding:0;shape-margin:0;inline-size:0;clip-rule:evenodd;display:inline;overflow:visible;visibility:visible;isolation:auto;mix-blend-mode:normal;color-interpolation:sRGB;color-interpolation-filters:linearRGB;solid-color:#000000;solid-opacity:1;vector-effect:none;fill:#f76336;fill-opacity:1;fill-rule:evenodd;stroke:none;stroke-width:0.421715;stroke-linecap:round;stroke-linejoin:round;stroke-miterlimit:1.5;stroke-dasharray:none;stroke-dashoffset:0;stroke-opacity:1;color-rendering:auto;image-rendering:auto;shape-rendering:auto;text-rendering:auto;enable-background:accumulate;stop-color:#000000"
         id="path2372" />
      <path
         transform="matrix(0.26458334,0,0,0.26458334,0,280.06666)"
         d="m 148.08008,268.42188 c -0.43239,0.48803 -0.87207,0.99063 -1.32422,1.50976 l 4.41016,4.84375 a 1.0000006,1.0000006 0 0 0 1.41015,0.0664 1.0000006,1.0000006 0 0 0 0.0664,-1.41016 z m 8.90234,0.97851 a 1.0000006,1.0000006 0 0 0 -0.68554,0.25977 1.0000006,1.0000006 0 0 0 -0.0664,1.41601 l 4.38476,4.81641 c 0.58611,-0.4494 1.13294,-0.87097 1.58594,-1.23242 l -4.49414,-4.9336 a 1.0000006,1.0000006 0 0 0 -0.72461,-0.32422 z m -9.36719,8.23828 a 1.0000006,1.0000006 0 0 0 -0.68554,0.26563 1.0000006,1.0000006 0 0 0 -0.0664,1.41015 l 3.55078,3.89844 c 0.56181,-0.37945 1.10727,-0.75975 1.66211,-1.14258 l -3.73047,-4.09961 a 1.0000006,1.0000006 0 0 0 -0.73047,-0.33203 z"
         style="color:#000000;font-style:normal;font-variant:normal;font-weight:normal;font-stretch:normal;font-size:medium;line-height:normal;font-family:sans-serif;font-variant-ligatures:normal;font-variant-position:normal;font-variant-caps:normal;font-variant-numeric:normal;font-variant-alternates:normal;font-variant-east-asian:normal;font-feature-settings:normal;font-variation-settings:normal;text-indent:0;text-align:start;text-decoration:none;text-decoration-line:none;text-decoration-style:solid;text-decoration-color:#000000;letter-spacing:normal;word-spacing:normal;text-transform:none;writing-mode:lr-tb;direction:ltr;text-orientation:mixed;dominant-baseline:auto;baseline-shift:baseline;text-anchor:start;white-space:normal;shape-padding:0;shape-margin:0;inline-size:0;clip-rule:evenodd;display:inline;overflow:visible;visibility:visible;opacity:1;isolation:auto;mix-blend-mode:normal;color-interpolation:sRGB;color-interpolation-filters:linearRGB;solid-color:#000000;solid-opacity:1;vector-effect:none;fill:#ffa185;fill-opacity:1;fill-rule:evenodd;stroke:none;stroke-width:1.59388;stroke-linecap:round;stroke-linejoin:round;stroke-miterlimit:1.5;stroke-dasharray:none;stroke-dashoffset:0;stroke-opacity:1;color-rendering:auto;image-rendering:auto;shape-rendering:auto;text-rendering:auto;enable-background:accumulate;stop-color:#000000;stop-opacity:1"
         id="path1763" />
    </g>
  </g>
</svg>
