<?xml version="1.0" ?><!DOCTYPE svg  PUBLIC '-//W3C//DTD SVG 1.1//EN'  'http://www.w3.org/Graphics/SVG/1.1/DTD/svg11.dtd'><svg xmlns="http://www.w3.org/2000/svg" xmlns:xlink="http://www.w3.org/1999/xlink" version="1.1" id="Layer_1" width="225.007" height="250.604" viewBox="0 0 225.007 250.604" overflow="visible" enable-background="new 0 0 225.007 250.604" xml:space="preserve"><path fill="#F0F0FF" d="M189.304,19.769c0,34.626-33.738,62.697-75.354,62.697c-41.618,0-75.354-28.07-75.354-62.697  c0,0-0.118-13.099-3.188-13.099c-6.654,0-13.44,11.872-13.44,11.872C15.58,29.867,12,42.56,12,55.959  c0,47.856,45.645,100.747,101.951,100.747c56.305,0,101.947-52.891,101.947-100.747c0-12.92-3.327-25.181-9.293-36.195  c0,0-6.641-13.764-11.971-13.764S189.304,19.769,189.304,19.769z"/><path opacity="0.15" fill="#6E6E96" enable-background="new    " d="M206.605,19.763c0,0-6.641-13.763-11.971-13.763  c-0.887,0-1.625,0.389-2.244,1.025c1.484,2.367,2.466,4.354,2.466,4.354c5.396,9.738,8.401,20.576,8.401,31.997  c0,16.331-6.151,31.464-16.629,43.896V87.27c-5.721-19.549-21.75-21.842-21.75-21.842l0,0l-4.083,4.231l15.739,27.645  c-16.903,16.304-37.529,22.678-65.457,22.678c-26.462,0-48.004-7.307-64.815-22.149l20.212-29.377l-5.77-3.934  c0,0-18.619,10.737-24.052,24.055C25.494,75.905,18.9,60.281,18.9,43.376c0-11.443,3.027-22.296,8.441-32.047  c-3.148,3.326-5.373,7.214-5.373,7.214C15.58,29.867,12,42.559,12,55.959c0,47.856,45.645,100.748,101.951,100.748  c56.305,0,101.947-52.892,101.947-100.748C215.898,43.039,212.571,30.779,206.605,19.763z M36.654,88.575l7.289,7.288  C41.338,93.563,38.904,91.129,36.654,88.575z"/><ellipse fill="#FAADAA" cx="113.171" cy="142.004" rx="76.297" ry="91.852"/><path fill="#E39E9A" d="M54.616,146.968c0,0,57.067-30.313,113.168,0l-10.912,24.4H56.351L54.616,146.968z"/><path fill="#E39E9A" d="M112.186,50.153c-42.138,0-76.298,41.123-76.298,91.853c0,50.729,34.16,91.852,76.298,91.852  c42.138,0,76.297-41.123,76.297-91.852C188.483,91.276,154.324,50.153,112.186,50.153z M111.2,193.92  c-33.43,0-60.53-32.625-60.53-72.87s27.1-68.366,60.53-68.366c33.428,0,60.529,28.121,60.529,68.366S144.628,193.92,111.2,193.92z"/><path fill="none" d="M185.542,159.153c-6.918,51.127-32.926,87.039-73.541,87.039c-40.616,0-65.108-36.14-73.541-87.039  c-8.547-51.598,14.606-107.517,73.542-107.517C175.501,51.635,192.526,107.555,185.542,159.153z"/><path fill="#FFE496" d="M196.218,195.436c0,29.055-37.346,52.606-83.42,52.606c-46.071,0-83.42-23.553-83.42-52.606  s37.349-47.771,83.42-47.771C158.873,147.663,196.218,166.382,196.218,195.436z"/><ellipse opacity="0.62" fill="#6E6E96" enable-background="new    " cx="75.783" cy="196.521" rx="12.454" ry="11.801"/><ellipse opacity="0.62" fill="#6E6E96" enable-background="new    " cx="152.769" cy="196.521" rx="12.453" ry="11.801"/><path opacity="0.21" fill="#C99356" enable-background="new    " d="M173.251,161.485c7.762,6.288,12.291,14.127,12.291,23.162  c0,24.307-32.725,44.009-73.096,44.009c-40.37,0-73.095-19.702-73.095-44.009c0-8.327,3.846-15.642,10.522-21.654  c-12.765,8.148-20.497,19.227-20.497,32.442c0,29.055,37.349,52.606,83.419,52.606c46.077,0,83.42-23.553,83.42-52.606  C196.218,181.387,187.484,169.754,173.251,161.485z"/><ellipse fill="#6E6E96" cx="83.356" cy="115.464" rx="7.498" ry="12.968"/><ellipse fill="#6E6E96" cx="141.192" cy="115.464" rx="7.499" ry="12.965"/></svg>