<?xml version="1.0" encoding="UTF-8" standalone="no"?>
<!-- Created with Inkscape (http://www.inkscape.org/) -->

<svg
   width="64pt"
   height="64pt"
   viewBox="0 0 22.577778 22.577778"
   version="1.1"
   id="svg831"
   inkscape:version="1.1.1 (3bf5ae0d25, 2021-09-20)"
   sodipodi:docname="Ex.svg"
   inkscape:export-filename="C:\Users\User\Desktop\CARLOS PROJECT\4. APRIL 1\Done\16 - Mint.png"
   inkscape:export-xdpi="576"
   inkscape:export-ydpi="576"
   xmlns:inkscape="http://www.inkscape.org/namespaces/inkscape"
   xmlns:sodipodi="http://sodipodi.sourceforge.net/DTD/sodipodi-0.dtd"
   xmlns="http://www.w3.org/2000/svg"
   xmlns:svg="http://www.w3.org/2000/svg"
   xmlns:rdf="http://www.w3.org/1999/02/22-rdf-syntax-ns#"
   xmlns:cc="http://creativecommons.org/ns#"
   xmlns:dc="http://purl.org/dc/elements/1.1/">
  <defs
     id="defs825">
    <pattern
       id="EMFhbasepattern"
       patternUnits="userSpaceOnUse"
       width="6"
       height="6"
       x="0"
       y="0" />
    <pattern
       id="EMFhbasepattern-9"
       patternUnits="userSpaceOnUse"
       width="6"
       height="6"
       x="0"
       y="0" />
    <pattern
       id="EMFhbasepattern-0"
       patternUnits="userSpaceOnUse"
       width="6"
       height="6"
       x="0"
       y="0" />
    <pattern
       id="EMFhbasepattern-7"
       patternUnits="userSpaceOnUse"
       width="6"
       height="6"
       x="0"
       y="0" />
    <pattern
       id="EMFhbasepattern-2"
       patternUnits="userSpaceOnUse"
       width="6"
       height="6"
       x="0"
       y="0" />
    <pattern
       id="EMFhbasepattern-98"
       patternUnits="userSpaceOnUse"
       width="6"
       height="6"
       x="0"
       y="0" />
    <pattern
       id="EMFhbasepattern-6"
       patternUnits="userSpaceOnUse"
       width="6"
       height="6"
       x="0"
       y="0" />
    <pattern
       id="EMFhbasepattern-01"
       patternUnits="userSpaceOnUse"
       width="6"
       height="6"
       x="0"
       y="0" />
    <pattern
       id="EMFhbasepattern-07"
       patternUnits="userSpaceOnUse"
       width="6"
       height="6"
       x="0"
       y="0" />
    <pattern
       id="EMFhbasepattern-8"
       patternUnits="userSpaceOnUse"
       width="6"
       height="6"
       x="0"
       y="0" />
    <pattern
       id="EMFhbasepattern-4"
       patternUnits="userSpaceOnUse"
       width="6"
       height="6"
       x="0"
       y="0" />
    <pattern
       id="EMFhbasepattern-40"
       patternUnits="userSpaceOnUse"
       width="6"
       height="6"
       x="0"
       y="0" />
    <pattern
       id="EMFhbasepattern-08"
       patternUnits="userSpaceOnUse"
       width="6"
       height="6"
       x="0"
       y="0" />
    <pattern
       id="EMFhbasepattern-04"
       patternUnits="userSpaceOnUse"
       width="6"
       height="6"
       x="0"
       y="0" />
    <pattern
       id="EMFhbasepattern-014"
       patternUnits="userSpaceOnUse"
       width="6"
       height="6"
       x="0"
       y="0" />
    <pattern
       id="EMFhbasepattern-27"
       patternUnits="userSpaceOnUse"
       width="6"
       height="6"
       x="0"
       y="0" />
    <pattern
       id="EMFhbasepattern-09"
       patternUnits="userSpaceOnUse"
       width="6"
       height="6"
       x="0"
       y="0" />
    <pattern
       id="EMFhbasepattern-5"
       patternUnits="userSpaceOnUse"
       width="6"
       height="6"
       x="0"
       y="0" />
    <pattern
       id="EMFhbasepattern-018"
       patternUnits="userSpaceOnUse"
       width="6"
       height="6"
       x="0"
       y="0" />
  </defs>
  <sodipodi:namedview
     id="base"
     pagecolor="#ffffff"
     bordercolor="#666666"
     borderopacity="1.0"
     inkscape:pageopacity="0.0"
     inkscape:pageshadow="2"
     inkscape:zoom="6.4882571"
     inkscape:cx="31.749667"
     inkscape:cy="42.615451"
     inkscape:document-units="pt"
     inkscape:current-layer="layer1"
     showgrid="false"
     units="pt"
     inkscape:window-width="1920"
     inkscape:window-height="1001"
     inkscape:window-x="-9"
     inkscape:window-y="-9"
     inkscape:window-maximized="1"
     inkscape:pagecheckerboard="true"
     inkscape:showpageshadow="false"
     inkscape:object-paths="true"
     inkscape:snap-intersection-paths="true"
     inkscape:snap-smooth-nodes="true"
     inkscape:snap-midpoints="true"
     showguides="true"
     inkscape:snap-bbox="true"
     inkscape:bbox-nodes="true"
     inkscape:snap-nodes="false"
     inkscape:snap-global="true"
     inkscape:lockguides="true">
    <inkscape:grid
       type="xygrid"
       id="grid1378" />
    <sodipodi:guide
       position="0.97013831,21.607643"
       orientation="78.000048,0"
       id="guide1380"
       inkscape:locked="true" />
    <sodipodi:guide
       position="0.97013831,0.97013129"
       orientation="0,78.000005"
       id="guide1382"
       inkscape:locked="true" />
    <sodipodi:guide
       position="21.607639,0.97013129"
       orientation="-78.000048,0"
       id="guide1384"
       inkscape:locked="true" />
    <sodipodi:guide
       position="21.607639,21.607643"
       orientation="0,-78.000005"
       id="guide1386"
       inkscape:locked="true" />
  </sodipodi:namedview>
  <metadata
     id="metadata828">
    <rdf:RDF>
      <cc:Work
         rdf:about="">
        <dc:format>image/svg+xml</dc:format>
        <dc:type
           rdf:resource="http://purl.org/dc/dcmitype/StillImage" />
      </cc:Work>
    </rdf:RDF>
  </metadata>
  <g
     inkscape:label="Icon"
     inkscape:groupmode="layer"
     id="layer1"
     transform="translate(0,-274.42223)">
    <g
       id="g31933"
       style="display:inline;stroke-width:0.785622"
       transform="matrix(1.2728764,0,0,1.2728764,39.330319,-155.64867)">
      <g
         id="g79874"
         style="stroke-width:0.785622">
        <path
           style="color:#000000;fill:#87e59d;stroke-width:0.785622;stroke-linecap:round;stroke-linejoin:round;-inkscape-stroke:none"
           d="m -21.365234,344.56055 c -2.336189,2.15594 -4.932912,4.91619 -6.455078,5.88867 -0.451952,0.62639 -0.809165,1.33934 -1.197265,2.01168 l 1.263675,1.26177 c 0.66724,-0.40154 1.373762,-0.75474 2.011722,-1.19528 0.972476,-1.52216 3.73273,-4.12083 5.888671,-6.45703 z"
           id="path151629"
           sodipodi:nodetypes="ccccccc" />
        <path
           id="path189190"
           style="fill:#50b86b;fill-opacity:1;stroke-width:2.96928;stroke-linecap:round;stroke-linejoin:round"
           d="m -103.92475,265.29476 c -0.13614,0.0844 -5.85075,9.03974 -5.85075,9.03974 -0.10363,0.71928 0.35783,1.71971 1.39723,2.75704 1.0394,1.03733 2.04359,1.50637 2.76268,1.39981 0.14878,-0.0122 9.041935,-5.86005 9.041935,-5.86005 1.067,-1.56014 4.455346,-5.32023 8.395891,-9.45744 -4.429502,3.43476 -9.034371,6.48759 -13.878266,9.042 -1.59509,0.84117 -2.29568,0.14044 -1.45422,-1.45449 2.53907,-4.81264 5.570316,-9.3894 8.97897,-13.79259 z"
           transform="matrix(0.26458334,0,0,0.26458334,0,280.06666)"
           sodipodi:nodetypes="cccccccscc" />
        <path
           style="color:#000000;fill:#349951;stroke-width:2.96928;stroke-linecap:round;stroke-linejoin:round;-inkscape-stroke:none"
           d="m -75.375,256.7832 a 1.0001006,1.0001006 0 0 0 -0.931641,0.67383 l -2.8125,8.14258 a 1.0001006,1.0001006 0 0 0 0.02148,0.73047 c 1.565873,3.60355 3.839646,5.77864 5.914062,6.55469 1.037208,0.388 2.135234,0.4512 2.990235,-0.17579 0.506661,-0.37147 0.802662,-0.93602 0.910156,-1.58398 l 1.273437,0.25391 c 1.532999,0.30652 2.943912,-1.10145 2.636719,-2.63477 l -0.279297,-1.40625 c 0.644626,-0.13082 1.263658,-0.37478 1.806641,-0.75586 0.821628,-0.57679 1.447197,-1.55792 1.447265,-2.7168 8e-6,-1.18767 -0.651723,-2.18924 -1.505859,-2.7539 -0.796949,-0.52682 -1.744739,-0.75852 -2.697265,-0.78711 a 1.0000006,1.0000006 0 0 0 -0.0059,-0.002 l -8.371094,-3.46289 A 1.0001006,1.0001006 0 0 0 -75.375,256.7832 Z"
           transform="matrix(0.26458334,0,0,0.26458334,0,280.06666)"
           id="path149312" />
        <path
           style="color:#000000;fill:#349951;stroke-width:0.785622;stroke-linecap:round;stroke-linejoin:round;-inkscape-stroke:none"
           d="m -18.121094,344.17187 c -0.128333,0.0319 -0.213398,0.15368 -0.199218,0.28516 l 0.271484,2.50781 c 0.0085,0.0746 0.04826,0.14201 0.109375,0.18555 l 1.238281,0.88672 c 0.0164,0.0117 0.03409,0.0216 0.05273,0.0293 0.419183,0.17377 0.805831,0.22001 1.113281,0.0508 0.319111,-0.18518 0.32082,-0.3478 0.27148,-0.61914 l 0.380859,-0.0254 c 0.412051,-0.0266 0.675731,-0.48305 0.494141,-0.85352 l -0.193359,-0.39062 c 0.147499,-0.0734 0.310461,-0.1235 0.419922,-0.24805 0.571424,-0.67476 0.05203,-1.59879 -0.867188,-1.42197 l -0.02734,-0.43554 c -0.02657,-0.41284 -0.368882,-0.62182 -0.855468,-0.49219 -0.414544,0.0887 -1.577078,0.38462 -2.20898,0.54109 z"
           id="path150542"
           sodipodi:nodetypes="cccccccccccccccc" />
        <path
           id="path157494"
           style="color:#000000;fill:#26783f;fill-opacity:1;stroke-width:2.96928;stroke-linecap:round;stroke-linejoin:round;-inkscape-stroke:none"
           d="m -61.71875,240.60938 -6.769531,1.67773 a 1.0001006,1.0001006 0 0 0 -0.753907,1.07812 l 0.923829,8.54688 c 0.496758,-0.0914 0.969963,-0.21265 1.416015,-0.36133 1.605166,-0.53507 3.188652,-1.5581 3.712891,-3.35156 0.218116,-0.74608 -0.002,-1.48277 -0.228516,-2.19922 l 0.494141,-0.33203 c 1.708438,-1.13901 2.109779,-3.39412 1.205078,-5.05859 z"
           transform="matrix(0.26458334,0,0,0.26458334,0,280.06666)" />
        <path
           id="path184256"
           style="color:#000000;fill:#2c8647;fill-opacity:1;stroke-width:2.96928;stroke-linecap:round;stroke-linejoin:round;-inkscape-stroke:none"
           d="m -75.375,256.7832 a 1.0001006,1.0001006 0 0 0 -0.931641,0.67383 l -2.8125,8.14258 a 1.0001006,1.0001006 0 0 0 0.02148,0.73047 c 0.39389,0.90646 0.831745,1.72306 1.300781,2.44922 2.566307,-2.32702 5.204756,-4.82002 7.904297,-7.43946 a 1.0001006,1.0001006 0 0 0 0.02344,-1.41796 l -1.572265,-1.59961 -3.53711,-1.46289 A 1.0001006,1.0001006 0 0 0 -75.375,256.7832 Z"
           transform="matrix(0.26458334,0,0,0.26458334,0,280.06666)" />
        <path
           style="color:#000000;fill:#87e59d;stroke-width:0.785622;stroke-linecap:round;stroke-linejoin:round;-inkscape-stroke:none"
           d="m -20.384766,347.81445 c -2.265331,2.12746 -4.67855,3.95502 -7.392578,5.20899 -0.218044,0.10074 -0.398711,0.33259 -0.382812,0.58984 0.0159,0.25725 0.168485,0.4851 0.417969,0.71875 0.273341,0.25605 0.64995,0.41842 1.042968,0.48242 0.393018,0.064 0.809077,0.0282 1.154297,-0.17773 1.89508,-1.13041 4.121035,-3.09271 6.523438,-5.42383 z"
           id="path150740"
           sodipodi:nodetypes="csscsccc" />
        <path
           id="path179379"
           style="fill:#349951;fill-opacity:1;stroke-width:2.96928;stroke-linecap:round;stroke-linejoin:round"
           d="m -78.125,245.02344 -1.03125,4.1875 a 1.4909395,1.4909395 0 0 0 0.04492,0.082 c -0.451212,1.41116 -0.612937,3.07038 -0.396484,4.90039 1.527876,-1.58947 3.035169,-3.17491 4.470703,-4.73047 a 1.0001006,1.0001006 0 0 0 -0.0293,-1.38867 z"
           transform="matrix(0.26458334,0,0,0.26458334,0,280.06666)" />
        <path
           id="path180601"
           style="color:#000000;fill:#2c8647;fill-opacity:1;stroke-width:2.96928;stroke-linecap:round;stroke-linejoin:round;-inkscape-stroke:none"
           d="m -75.375,256.7832 a 1.0001006,1.0001006 0 0 0 -0.931641,0.67383 l -1.082031,3.13477 c 0.0069,0.0129 0.01257,0.0261 0.01953,0.0391 0.229342,0.42561 0.586091,0.78238 1.011719,1.01172 4.393561,2.36579 8.450776,2.74435 11.382813,1.8164 0.761861,-0.2411 1.534453,-0.60445 2.18164,-1.13476 -0.271801,-0.50047 -0.663265,-0.91668 -1.111328,-1.21289 -0.796949,-0.52682 -1.744739,-0.75852 -2.697265,-0.78711 a 1.0000006,1.0000006 0 0 0 -0.0059,-0.002 l -8.371094,-3.46289 A 1.0001006,1.0001006 0 0 0 -75.375,256.7832 Z"
           transform="matrix(0.26458334,0,0,0.26458334,0,280.06666)" />
        <path
           id="path181622"
           style="color:#000000;fill:#349951;fill-opacity:1;stroke-width:2.96928;stroke-linecap:round;stroke-linejoin:round;-inkscape-stroke:none"
           d="m -77.044922,256.05469 c -0.553006,0.51935 -1.10819,1.03335 -1.666016,1.54297 0.340247,0.98411 0.784063,1.99741 1.341797,3.0332 0.229342,0.42561 0.586091,0.78238 1.011719,1.01172 0.961913,0.51796 1.90673,0.94278 2.828125,1.27734 0.543518,-0.52168 1.088205,-1.04784 1.636719,-1.58008 z"
           transform="matrix(0.26458334,0,0,0.26458334,0,280.06666)"
           sodipodi:nodetypes="ccccccc" />
        <path
           id="path179502"
           style="color:#000000;fill:#2c8647;fill-opacity:1;stroke-width:2.96928;stroke-linecap:round;stroke-linejoin:round;-inkscape-stroke:none"
           d="m -65.771484,241.61328 -2.716797,0.67383 c -0.485567,0.12025 -0.8076,0.58077 -0.753907,1.07812 l 1.025391,9.47852 c 0.03231,0.28188 0.182832,0.53676 0.414063,0.70117 l 4.679687,3.35156 c 0.06194,0.0446 0.128782,0.0819 0.199219,0.11133 0.835767,0.34647 1.637469,0.55848 2.378906,0.58789 1.275444,-1.41973 1.218124,-4.17318 -1.027344,-5.68945 1.089324,-1.81239 0.66495,-4.47157 -1.779296,-5.69922 l -0.376954,-2.30273 c -0.01662,-0.10352 -0.04412,-0.20499 -0.08203,-0.30274 -0.192657,-0.94132 -0.958748,-1.76056 -1.902344,-1.9707 -0.01748,-0.006 -0.03506,-0.0107 -0.05273,-0.0156 z"
           transform="matrix(0.26458334,0,0,0.26458334,0,280.06666)"
           sodipodi:nodetypes="ccccccccccccccc" />
        <path
           style="color:#000000;fill:#50b86b;stroke-width:0.785622;stroke-linecap:round;stroke-linejoin:round;-inkscape-stroke:none"
           d="m -19.777344,343.95703 c -0.137765,-0.0252 -0.271337,0.0612 -0.304687,0.19727 l -0.478516,1.94336 0.0078,-0.0254 c -0.228764,0.64061 -0.174287,1.64396 0.429687,2.76562 0.02454,0.0455 0.06189,0.0829 0.107422,0.10742 1.08701,0.58532 2.063564,0.6542 2.705078,0.45117 0.320757,-0.10151 0.581355,-0.2725 0.681641,-0.55273 0.07558,-0.23665 0.0085,-0.40075 -0.119143,-0.5625 l 0.306641,-0.20508 c 0.344194,-0.22945 0.344318,-0.75692 0,-0.98633 l -0.363281,-0.24218 c 0.09072,-0.1371 0.207788,-0.2616 0.240234,-0.42383 0.05365,-0.26825 -0.01065,-0.57899 -0.234375,-0.80274 -0.09195,-0.0919 -0.209127,-0.12411 -0.322266,-0.16601 L -17.25,344.66211 c -0.0047,-0.009 -0.0099,-0.0172 -0.01563,-0.0254 -0.002,-0.12232 -0.08762,-0.22732 -0.207031,-0.25391 z"
           id="path150344"
           sodipodi:nodetypes="ccccccscccccscccccc" />
        <path
           id="path176482"
           style="color:#000000;fill:#349951;fill-opacity:1;stroke-width:2.96928;stroke-linecap:round;stroke-linejoin:round;-inkscape-stroke:none"
           d="m -80.75,243.75586 c -1.561746,1.44125 -3.154564,2.9561 -4.75,4.49023 1.981551,0.25647 3.765549,0.0768 5.244141,-0.45117 z"
           transform="matrix(0.26458334,0,0,0.26458334,0,280.06666)"
           sodipodi:nodetypes="cccc" />
        <path
           id="path157499"
           style="color:#000000;fill:#349951;fill-opacity:1;stroke-width:2.96928;stroke-linecap:round;stroke-linejoin:round;-inkscape-stroke:none"
           d="m -74.964844,241.45898 c -0.447127,0.0161 -0.829191,0.32713 -0.935547,0.76172 l -1.800781,7.3125 c -0.100209,0.28942 -0.18562,0.59578 -0.253906,0.92188 5.411646,2.44973 12.917436,2.55206 14.781255,-2.31646 -0.361869,-0.55359 -1.025932,-0.94407 -1.535156,-1.00195 l -0.488282,-2.9961 c -0.01772,-0.033 -0.03728,-0.0649 -0.05859,-0.0957 -0.0071,-0.46302 -0.331134,-0.8606 -0.783203,-0.96094 l -8.708985,-1.60937 c -0.07148,-0.0131 -0.144179,-0.0183 -0.216797,-0.0156 z"
           transform="matrix(0.26458334,0,0,0.26458334,0,280.06666)"
           sodipodi:nodetypes="scccccccccss" />
        <path
           style="color:#000000;fill:#349951;stroke-width:0.785622;stroke-linecap:round;stroke-linejoin:round;-inkscape-stroke:none"
           d="m -20.460937,338.66992 c -0.292246,-0.0783 -0.58426,0.009 -0.78711,0.17578 -0.137236,0.11252 -0.202691,0.2801 -0.28125,0.4375 l -0.382812,-0.1875 c -0.370846,-0.18348 -0.828833,0.0794 -0.855469,0.49219 l -0.02344,0.38086 c -0.06457,-0.006 -0.131953,-0.0464 -0.195312,-0.0352 -0.181379,0.0323 -0.341163,0.15487 -0.425781,0.3086 -0.169236,0.30745 -0.122992,0.6941 0.05078,1.11328 0.0073,0.008 0.01515,0.0161 0.02344,0.0234 -0.0022,0.006 -0.0041,0.0117 -0.0059,0.0176 l 0.710938,1.64454 c 0.04398,0.10297 0.148014,0.1671 0.259765,0.16015 l 2.91211,-0.19922 c 0.138502,-0.01 0.24594,-0.12483 0.246093,-0.26367 v -0.70117 c 0.0706,-0.52321 0.217584,-1.07038 0.283205,-1.5957 0.04177,-0.32436 -0.138603,-0.65542 -0.486328,-0.67774 l -0.435547,-0.0293 c 0.01,-0.16397 0.04907,-0.32971 -0.0039,-0.48632 -0.08766,-0.25914 -0.297881,-0.49623 -0.603515,-0.57813 z"
           id="path146049"
           sodipodi:nodetypes="cccccccscccccccccccscc" />
        <path
           id="path172134"
           style="color:#000000;fill:#26783f;fill-opacity:1;stroke-width:2.96928;stroke-linecap:round;stroke-linejoin:round;-inkscape-stroke:none"
           d="m -88.880859,229.27734 c 0.03141,0.7377 0.241557,1.53451 0.585937,2.36524 0.02759,0.0302 0.05656,0.0603 0.08789,0.0879 -0.0083,0.0227 -0.01468,0.0441 -0.02148,0.0664 l 2.6875,6.21679 c 0.166224,0.38918 0.558103,0.63174 0.980469,0.60547 l 9.494141,-0.65039 -1.611328,-4.26367 c -0.449641,-3.03037 -3.942177,-4.8678 -6.552735,-3.47266 -0.90227,-1.96505 -3.684827,-2.6757 -5.650394,-0.95508 z"
           transform="matrix(0.26458334,0,0,0.26458334,0,280.06666)"
           sodipodi:nodetypes="cccccccccc" />
        <path
           id="path157489"
           style="color:#000000;fill:#26783f;fill-opacity:1;stroke-width:2.96928;stroke-linecap:round;stroke-linejoin:round;-inkscape-stroke:none"
           d="m -77.28125,232.13677 c -0.720559,-0.22488 -1.46068,-0.44433 -2.199219,-0.22852 -1.7917,0.52403 -2.822893,2.1035 -3.359375,3.71289 -0.292104,0.87632 -0.475758,1.85608 -0.537109,2.91797 l 9.824219,-0.67383 c 0.523472,-0.0378 0.929109,-0.47134 0.929687,-0.99609 v -2.65039 c 0.168064,-1.24551 0.451072,-2.52669 0.699219,-3.80078 -2.081349,-0.98511 -4.315408,-0.2962 -5.357422,1.71875 z"
           transform="matrix(0.26458334,0,0,0.26458334,0,280.06666)"
           sodipodi:nodetypes="ccscccccc" />
        <path
           style="color:#000000;fill:#349951;stroke-width:2.96928;stroke-linecap:round;stroke-linejoin:round;-inkscape-stroke:none"
           d="m -95.152344,231.11914 c -1.19588,8e-5 -2.194065,0.65927 -2.767578,1.51953 -0.34966,0.52449 -0.578508,1.11717 -0.703125,1.73242 l -1.408203,-0.28515 c -1.53327,-0.30728 -2.94331,1.10167 -2.63672,2.63476 l 0.25586,1.27344 c -0.64877,0.10704 -1.21214,0.40439 -1.58398,0.91211 -0.62688,0.855 -0.56578,1.95302 -0.17774,2.99023 0.77605,2.07444 2.95895,4.34626 6.562502,5.91211 a 1.0000006,1.0000006 0 0 0 1.109375,-0.21679 1.0000006,1.0000006 0 0 0 0.08789,-0.0566 l 10.222656,-7.78711 a 1.0001006,1.0001006 0 0 0 -0.0957,-1.6543 l -5.34375,-3.1582 c -0.07791,-0.85548 -0.331773,-1.69296 -0.828125,-2.40039 -0.568959,-0.81098 -1.547105,-1.41602 -2.69336,-1.41602 z"
           transform="matrix(0.26458334,0,0,0.26458334,0,280.06666)"
           id="path143681" />
        <path
           style="color:#000000;fill:#87e59d;stroke-width:0.785622;stroke-linecap:round;stroke-linejoin:round;-inkscape-stroke:none"
           d="m -24.507812,343.72658 c -2.331123,2.4024 -4.293401,4.62835 -5.423829,6.52344 -0.205933,0.34522 -0.239781,0.76323 -0.175781,1.15625 0.064,0.39302 0.22638,0.76767 0.482422,1.04102 0.23367,0.24946 0.459551,0.40401 0.716797,0.41992 0.257245,0.0159 0.489099,-0.16477 0.589844,-0.38282 1.25397,-2.71403 3.083488,-5.1292 5.210937,-7.39453 z"
           id="path151821"
           sodipodi:nodetypes="cssssscc" />
        <path
           id="path172129"
           style="color:#000000;fill:#26783f;fill-opacity:1;stroke-width:2.96928;stroke-linecap:round;stroke-linejoin:round;-inkscape-stroke:none"
           d="m -93.597656,231.51953 c -0.489424,0.60208 -0.837169,1.31056 -1.074219,2.00586 -0.981834,2.87977 -0.643218,6.89533 1.623047,11.25781 l 0.0078,0.0137 c 0.02154,0.0412 0.01519,0.0779 0.03711,0.11914 0.0032,0.005 0.0065,0.009 0.0098,0.0137 l 6.802735,-5.18164 c 0.562757,-0.42981 0.512866,-1.29225 -0.0957,-1.6543 l -5.34375,-3.1582 c -0.07791,-0.85548 -0.331773,-1.69296 -0.828125,-2.40039 z"
           transform="matrix(0.26458334,0,0,0.26458334,0,280.06666)"
           sodipodi:nodetypes="csccccccccc" />
        <path
           id="path172139"
           style="color:#000000;fill:#349951;fill-opacity:1;stroke-width:2.96928;stroke-linecap:round;stroke-linejoin:round;-inkscape-stroke:none"
           d="m -91.919922,240.30078 a 1.0001006,1.0001006 0 0 0 -0.708984,0.30274 c -0.522881,0.53886 -1.040039,1.07532 -1.552735,1.60937 0.303991,0.83855 0.679475,1.69765 1.132813,2.57031 l 0.0078,0.0137 c 0.02154,0.0412 0.01519,0.0779 0.03711,0.11914 a 1.4830047,1.4830047 0 0 0 0.04687,0.0723 c 0.225199,0.45808 0.589206,0.85044 1.037109,1.09375 a 1.4830047,1.4830047 0 0 0 0.0078,0 c 1.031744,0.55556 2.045037,1.00058 3.029297,1.3457 0.510908,-0.55927 1.026239,-1.11554 1.546874,-1.66992 a 1.0001006,1.0001006 0 0 0 -0.0293,-1.39648 l -3.845704,-3.77149 a 1.0001006,1.0001006 0 0 0 -0.708984,-0.28906 z"
           transform="matrix(0.26458334,0,0,0.26458334,0,280.06666)" />
        <path
           style="color:#000000;fill:#50b86b;stroke-width:0.785622;stroke-linecap:round;stroke-linejoin:round;-inkscape-stroke:none"
           d="m -23.558769,341.42984 c -0.161852,-0.12442 -0.325418,-0.16673 -0.538988,-0.1075 -0.290456,0.0821 -0.471791,0.34153 -0.57981,0.65836 -0.216039,0.63366 -0.1596,1.61 0.417546,2.70268 0.0017,0.003 0.0034,0.005 0.0052,0.008 0.02261,0.0595 0.06591,0.10885 0.121956,0.13901 1.121656,0.60397 2.125105,0.65819 2.765723,0.42943 0.0086,-0.003 0.01709,-0.007 0.02532,-0.0114 l 1.390613,-0.6625 c 0.132382,-0.0629 0.188455,-0.22135 0.125057,-0.35347 -5.27e-4,-10e-4 -0.0011,-0.002 -0.0016,-0.003 -8.34e-4,-0.002 -0.0017,-0.005 -0.0026,-0.007 l -0.837675,-2.21641 v -5.3e-4 c -0.153598,-0.81589 -0.984254,-0.91376 -1.504301,-0.54157 -0.322801,-0.80118 -1.181961,-0.6633 -1.386441,-0.0341 z"
           id="path144902"
           sodipodi:nodetypes="ccsccccccccccccc" />
        <path
           id="path157484"
           style="color:#000000;fill:#349951;fill-opacity:1;stroke-width:2.96928;stroke-linecap:round;stroke-linejoin:round;-inkscape-stroke:none"
           d="m -79.410156,231.89062 c -6.492205,2.9138 -3.945324,10.93999 -2.324216,14.78323 0.345903,-0.0729 0.67217,-0.1667 0.976563,-0.27539 0.03263,-0.0127 0.06457,-0.027 0.0957,-0.043 l 5.255859,-2.50391 c 0.500336,-0.23757 0.712263,-0.83657 0.472656,-1.33594 -0.0019,-0.003 -0.0039,-0.007 -0.0059,-0.01 -0.0031,-0.009 -0.0064,-0.0182 -0.0098,-0.0273 l -3.166015,-8.37696 c 10e-7,-6.7e-4 10e-7,-0.001 0,-0.002 -0.0847,-0.67642 -0.392798,-1.35957 -0.929688,-1.89649 -0.115666,-0.11565 -0.23829,-0.21927 -0.365234,-0.3125 z"
           transform="matrix(0.26458334,0,0,0.26458334,0,280.06666)"
           sodipodi:nodetypes="ccccccccccscc" />
        <path
           id="path157361"
           style="fill:#349951;fill-opacity:1;stroke-width:2.96928;stroke-linecap:round;stroke-linejoin:round"
           d="M -80.203125,243.5 A 1.0001006,1.0001006 0 0 0 -80.75,243.75586 c -0.517695,0.47775 -1.039052,0.9654 -1.5625,1.45703 0.385984,1.087 0.881337,2.20792 1.496094,3.34961 0.219968,0.40823 0.566371,0.75464 0.974609,0.97461 1.140475,0.61411 2.257833,1.10701 3.34375,1.49219 0.492935,-0.52487 0.981951,-1.04737 1.460938,-1.56641 a 1.0001006,1.0001006 0 0 0 -0.0293,-1.38867 l -4.296875,-4.28711 A 1.0001006,1.0001006 0 0 0 -80.203125,243.5 Z"
           transform="matrix(0.26458334,0,0,0.26458334,0,280.06666)" />
        <path
           style="color:#000000;fill:#50b86b;stroke-width:0.785622;stroke-linecap:round;stroke-linejoin:round;-inkscape-stroke:none"
           d="m -19.515625,341.27539 c -0.205848,0 -0.412028,0.0936 -0.537109,0.28125 l -0.259766,0.39063 c -0.0432,-0.0341 -0.07532,-0.0925 -0.123047,-0.11719 -0.152106,-0.0786 -0.331582,-0.0972 -0.490234,-0.0508 -0.317304,0.0928 -0.521226,0.38204 -0.642578,0.74609 -0.242704,0.72811 -0.17343,1.86402 0.509765,3.13281 a 0.26460996,0.26460996 0 0 0 0.107422,0.10742 c 1.268793,0.6832 2.404705,0.75052 3.132813,0.50782 0.364054,-0.12135 0.653342,-0.32332 0.746093,-0.64063 0.04638,-0.15865 0.02583,-0.33813 -0.05273,-0.49023 -0.02465,-0.0477 -0.08312,-0.0799 -0.117187,-0.12305 l 0.390625,-0.25976 c 0.375233,-0.25016 0.375322,-0.82411 0,-1.07422 l -0.451172,-0.30078 c 0.11471,-0.16429 0.251911,-0.31815 0.291015,-0.51368 0.06008,-0.30038 -0.01032,-0.64508 -0.259765,-0.89453 -0.249451,-0.24944 -0.594148,-0.31984 -0.894532,-0.25976 -0.195522,0.0391 -0.349381,0.1763 -0.513671,0.29101 l -0.300782,-0.45117 c -0.125058,-0.18766 -0.329308,-0.28125 -0.535156,-0.28125 z"
           id="path153958" />
        <path
           id="path10793"
           style="color:#000000;fill:#349951;fill-opacity:1;stroke-width:2.96928;stroke-linecap:round;stroke-linejoin:round;-inkscape-stroke:none"
           d="m -71.640625,238.94336 -5.117187,5.11719 1.130859,-4.15039 c 0.143259,-0.53162 -0.170175,-1.07904 -0.701172,-1.22461 -0.532255,-0.1445 -1.081019,0.1692 -1.226563,0.70117 l -2.05664,7.52734 -0.324219,0.32422 c -0.148382,0.87087 0.703421,1.52402 1.408203,1.41406 l 0.326172,-0.32617 7.527344,-2.05273 c 0.534912,-0.14546 0.849434,-0.69828 0.701172,-1.23242 -0.14554,-0.53198 -0.694305,-0.84568 -1.226563,-0.70118 l -4.146484,1.13282 5.121094,-5.11914 c 0.387829,-0.39006 0.387829,-1.0201 0,-1.41016 -0.564302,-0.43862 -0.987216,-0.40296 -1.416016,0 z"
           transform="matrix(0.26458334,0,0,0.26458334,0,280.06666)"
           sodipodi:nodetypes="cccccccccccccccc" />
        <path
           id="path11871"
           style="color:#000000;fill:#349951;stroke-width:2.96928;stroke-linecap:round;stroke-linejoin:round;-inkscape-stroke:none"
           d="m -70.224609,253.08789 c -2.057442,2.05746 -4.115473,4.11157 -6.173829,6.16797 -0.235096,0.75211 0.820389,1.77643 1.416016,1.41602 2.056265,-2.05822 4.110664,-4.11847 6.167969,-6.17579 0.386532,-0.38983 0.386532,-1.01837 0,-1.4082 -0.561258,-0.43307 -1.145772,-0.23184 -1.410156,0 z"
           transform="matrix(0.26458334,0,0,0.26458334,0,280.06666)"
           sodipodi:nodetypes="cccccc" />
        <path
           id="path146426"
           style="color:#000000;fill:#349951;fill-opacity:1;stroke-width:2.96928;stroke-linecap:round;stroke-linejoin:round;-inkscape-stroke:none"
           d="m -85.785156,237.52539 -6.171875,6.17188 c -0.08212,0.73824 0.620152,1.47929 1.414061,1.42187 l 6.175781,-6.17578 c 0.393035,-0.39095 0.393035,-1.02702 0,-1.41797 -0.562668,-0.42999 -1.062829,-0.32195 -1.417967,0 z"
           transform="matrix(0.26458334,0,0,0.26458334,0,280.06666)"
           sodipodi:nodetypes="cccccc" />
      </g>
    </g>
  </g>
</svg>
