<?xml version="1.0" ?><svg viewBox="0 0 44.59 48.23" xmlns="http://www.w3.org/2000/svg"><defs><style>.cls-1{fill:#b5e3f7;}.cls-2{fill:#5ea3c1;}</style></defs><g data-name="Layer 2" id="Layer_2"><g data-name="Layer 1" id="Layer_1-2"><g id="tea"><path class="cls-1" d="M13.62,30.47V19.57A1.58,1.58,0,0,1,15.2,18H2.92a1.57,1.57,0,0,0-1.57,1.58v10.9A16.39,16.39,0,0,0,23.9,45.68,16.47,16.47,0,0,1,13.62,30.47Z"/><path class="cls-2" d="M12.76,42.41c-5-1.7-8.26-7-8.28-12.17v-3.3a1.35,1.35,0,1,1,2.69,0v3.3a10.64,10.64,0,0,0,6.16,9.6A1.35,1.35,0,0,1,12.76,42.41Z"/><path class="cls-2" d="M41.67,20.44H35.52v-.87a2.92,2.92,0,0,0-2.92-2.92H2.92A2.92,2.92,0,0,0,0,19.57v10.9A17.79,17.79,0,0,0,8.37,45.54H2a1.35,1.35,0,0,0,0,2.69h31.6a1.35,1.35,0,0,0,0-2.69H27.15a18.14,18.14,0,0,0,5.24-5,11.52,11.52,0,0,0,12.2-11.46V23.36A2.92,2.92,0,0,0,41.67,20.44ZM17.76,45.54A15.09,15.09,0,0,1,2.69,30.47V19.57a.23.23,0,0,1,.23-.23H32.6a.23.23,0,0,1,.23.23v10.9A15.09,15.09,0,0,1,17.76,45.54ZM41.9,29.07A8.78,8.78,0,0,1,34,37.8c2.12-4,1.53-10.29,1.6-14.67h6.08a.24.24,0,0,1,.23.23Z"/><path class="cls-2" d="M13.37,13.69c-2.25-.13-1.13-3.27-.45-4a1.59,1.59,0,0,0,0-2.12,4.31,4.31,0,0,1,0-5.22,1.54,1.54,0,0,0,.4-1.06,1.35,1.35,0,0,1,2.69,0,4.1,4.1,0,0,1-.9,2.61,1.6,1.6,0,0,0,0,2.12,4.32,4.32,0,0,1,0,5.22,1.54,1.54,0,0,0-.4,1.06A1.35,1.35,0,0,1,13.37,13.69Z"/><path class="cls-2" d="M20.86,13.69c-2.25-.13-1.13-3.27-.45-4a1.59,1.59,0,0,0,0-2.12,4.31,4.31,0,0,1,0-5.22,1.54,1.54,0,0,0,.4-1.06,1.35,1.35,0,0,1,2.69,0,4.1,4.1,0,0,1-.9,2.61,1.6,1.6,0,0,0,0,2.12,4.32,4.32,0,0,1,0,5.22,1.54,1.54,0,0,0-.4,1.06A1.35,1.35,0,0,1,20.86,13.69Z"/></g></g></g></svg>