<?xml version="1.0" ?>
<!DOCTYPE svg  PUBLIC '-//W3C//DTD SVG 1.1//EN'  'http://www.w3.org/Graphics/SVG/1.1/DTD/svg11.dtd'>
<!-- Скачано с сайта svg4.ru / Downloaded from svg4.ru -->
<svg fill="#000000" width="800px" height="800px" viewBox="0 0 512 512" enable-background="new 0 0 512 512" id="Eat_x5F_dairy" version="1.1" xml:space="preserve" xmlns="http://www.w3.org/2000/svg" xmlns:xlink="http://www.w3.org/1999/xlink">
<g>
<rect height="9.528" width="9.528" x="395.048" y="379.328"/>
<rect height="9.528" width="9.527" x="443.042" y="206.977"/>
<rect height="9.527" width="9.527" x="339.733" y="213.625"/>
<rect height="9.527" width="9.527" x="447.806" y="424.342"/>
<rect height="9.527" width="9.528" x="360.96" y="433.393"/>
<path d="M439.856,110.34c-4.482-2.437-7.268-7.118-7.268-12.217V83.777c5.443-0.923,9.607-5.659,9.607-11.362V55.916   c0-6.361-5.176-11.537-11.537-11.537h-79.626c-6.361,0-11.536,5.176-11.536,11.537v16.499c0,5.701,4.16,10.438,9.602,11.361v14.347   c0,2.498-0.676,4.954-1.955,7.101c-1.283,2.153-3.121,3.924-5.312,5.115c-30.034,16.319-48.692,47.691-48.692,81.874v9.764H83.813   c-14.491,0-26.597,10.864-28.158,25.27l-9.688,89.342l9.941,1.078l9.688-89.342c1.011-9.319,8.842-16.348,18.217-16.348h218.912   c9.375,0,17.206,7.028,18.217,16.348l9.68,89.261l9.941-1.078l-5.521-50.915h91.973v83.152h-60.104v10h70.104v-126H331.479   l-0.596-5.498c-1.547-14.268-13.438-25.055-27.744-25.26v-9.773c0-3.969,0.287-7.894,0.837-11.754   c10.021,1.129,15.729,5.169,22.165,9.751c7.852,5.59,16.752,11.927,33.801,11.927s25.949-6.337,33.803-11.927   c7.592-5.405,14.148-10.073,28.002-10.073s20.41,4.668,28.003,10.073c7.042,5.014,14.948,10.612,28.8,11.717v236.236   c0,10.405-8.461,18.87-18.86,18.87h-121.62v10h121.62c15.913,0,28.86-12.951,28.86-28.87v-245.94   C488.55,158.033,469.892,126.658,439.856,110.34z M427.015,242.744v12.848h-93.057l-1.394-12.848H427.015z M349.497,55.916   c0-0.848,0.689-1.537,1.536-1.537h79.626c0.848,0,1.537,0.689,1.537,1.537v16.499c0,0.848-0.689,1.537-1.537,1.537h-79.626   c-0.847,0-1.536-0.689-1.536-1.537V55.916z M455.55,182.063c-7.853-5.591-16.753-11.927-33.803-11.927   c-17.049,0-25.949,6.336-33.803,11.927c-7.592,5.405-14.148,10.073-28.002,10.073c-13.853,0-20.41-4.668-28.002-10.073   c-6.546-4.661-13.838-9.826-25.955-11.42c5.824-21.718,20.303-40.479,40.624-51.52c3.769-2.051,6.925-5.088,9.126-8.782   c0.805-1.353,1.469-2.777,1.99-4.25h46.828v-10h-45.455V83.953h63.49v14.17c0,8.767,4.787,16.814,12.493,21.003   c26.72,14.518,43.349,42.385,43.462,72.783C467.995,190.918,462.163,186.771,455.55,182.063z"/>
<rect height="15.048" width="10" x="96.222" y="142.236"/>
<rect height="15.048" width="10" x="96.222" y="167.96"/>
<rect height="10" width="15.048" x="80.836" y="157.622"/>
<rect height="10" width="15.048" x="106.56" y="157.622"/>
<rect height="15.048" width="10" x="264.374" y="68.112"/>
<rect height="15.048" width="10" x="264.374" y="93.836"/>
<rect height="10" width="15.049" x="248.987" y="83.498"/>
<rect height="10" width="15.047" x="274.712" y="83.498"/>
<path d="M346.915,400.563c8.988-0.117,16.266-7.456,16.266-16.472s-7.279-16.354-16.269-16.471c0-0.028,0.003-0.057,0.003-0.085   c0-12.995-5.178-27.528-13.852-38.874c-9.695-12.685-22.098-19.67-34.922-19.67c-3.646,0-7.256,0.584-10.781,1.684   c-9.27-18.979-25.33-30.996-41.935-30.996c-16.521,0-32.558,11.957-41.858,30.833c-3.357-0.994-6.788-1.521-10.252-1.521   c-3.713,0-7.387,0.604-10.973,1.742c-9.268-19.015-25.337-31.055-41.965-31.055c-16.48,0-32.495,11.914-41.794,30.722   c-3.242-0.925-6.552-1.409-9.891-1.409c-12.827,0-25.23,6.985-34.925,19.67c-8.671,11.345-13.848,25.877-13.848,38.874   c0,0.025,0.002,0.05,0.002,0.075c-9.083,0.006-16.472,7.396-16.472,16.48s7.385,16.473,16.466,16.481v19.474   c0,26.155,21.278,47.434,47.434,47.434c19.654,0,36.554-12.017,43.741-29.088h18.562c7.153,17.145,24.088,29.229,43.795,29.229   c19.708,0,36.642-12.084,43.796-29.229h18.495c6.354,15.092,20.301,26.225,37.029,28.605v0.031c0.066,0,0.133-0.006,0.199-0.006   c2.131,0.293,4.303,0.457,6.513,0.457c26.155,0,47.435-21.278,47.435-47.434V400.563z M298.142,318.992   c20.882,0,38.773,26.692,38.773,48.544c0,0.024-0.002,0.05-0.002,0.075h-77.541c0-0.025-0.002-0.051-0.002-0.075   C259.37,345.685,277.261,318.992,298.142,318.992z M245.426,289.68c14.212,0,26.247,12.055,32.819,25.148   c-5.439,3.304-10.527,7.945-15.027,13.834c-8.672,11.345-13.849,25.877-13.849,38.874c0,0.024,0.002,0.05,0.003,0.075h-7.286   c0-0.025,0.002-0.051,0.002-0.075c0-12.995-5.178-27.528-13.851-38.874c-4.629-6.057-9.879-10.796-15.493-14.113   C219.349,301.588,231.341,289.68,245.426,289.68z M193.315,318.992c20.882,0,38.772,26.692,38.772,48.544   c0,0.024-0.002,0.05-0.002,0.075h-77.541c0-0.025-0.002-0.051-0.002-0.075C154.543,345.685,172.435,318.992,193.315,318.992z    M140.378,289.68c14.251,0,26.306,12.108,32.872,25.25c-5.376,3.297-10.405,7.904-14.859,13.732   c-8.671,11.345-13.848,25.877-13.848,38.874c0,0.024,0.002,0.05,0.002,0.075h-7.081c0-0.025,0.002-0.051,0.002-0.075   c0-12.995-5.178-27.528-13.852-38.874c-4.717-6.171-10.076-10.98-15.811-14.305C114.413,301.486,126.364,289.68,140.378,289.68z    M88.693,318.992c20.881,0,38.772,26.692,38.772,48.544c0,0.024-0.002,0.05-0.002,0.075H49.923c0-0.025-0.002-0.051-0.002-0.075   C49.921,345.685,67.812,318.992,88.693,318.992z M49.917,420.047v-19.473h6.266v19.307c0,11.366,3.205,21.805,8.534,29.956   C55.73,442.992,49.917,432.188,49.917,420.047z M134.035,428.393c0.483-2.711,0.75-5.497,0.75-8.346v-2.482   c0-3.078,2.504-5.582,5.647-5.582c3.078,0,5.582,2.504,5.582,5.582v2.622c0,2.8,0.258,5.538,0.725,8.206H134.035z M240.157,428.393   c0.468-2.668,0.726-5.406,0.726-8.206v-2.622c0-3.078,2.504-5.582,5.581-5.582c3.078,0,5.582,2.504,5.582,5.582v2.482   c0,2.849,0.267,5.635,0.75,8.346H240.157z M320.142,419.881c0,20.137-11.869,36.57-26.61,37.122   c-17.823-2.858-31.485-18.34-31.485-36.956v-2.482c0-8.592-6.99-15.582-15.582-15.582s-15.581,6.99-15.581,15.582v2.622   c0,20.642-16.793,37.435-37.435,37.435c-20.641,0-37.434-16.793-37.434-37.435v-2.622c0-8.592-6.99-15.582-15.648-15.582   c-8.591,0-15.581,6.99-15.581,15.582v2.482c0,18.645-13.703,34.146-31.567,36.971c-14.938-0.248-27.035-16.807-27.035-37.137   v-19.307h253.959V419.881z M336.915,420.047c0,12.591-6.256,23.742-15.814,30.531c5.628-8.256,9.041-18.979,9.041-30.697v-19.307   h6.773V420.047z M39.933,390.574c-3.574,0-6.481-2.908-6.481-6.482c0-3.573,2.907-6.48,6.481-6.48h306.766   c3.574,0,6.482,2.907,6.482,6.48c0,3.574-2.908,6.482-6.482,6.482H39.933z"/>
<path d="M101.784,233.032c0-7.22-5.873-13.094-13.093-13.094s-13.094,5.874-13.094,13.094s5.874,13.094,13.094,13.094   S101.784,240.252,101.784,233.032z M85.598,233.032c0-1.706,1.388-3.094,3.094-3.094c1.705,0,3.093,1.388,3.093,3.094   s-1.388,3.094-3.093,3.094C86.985,236.126,85.598,234.738,85.598,233.032z"/>
<path d="M298.14,246.126c7.221,0,13.094-5.874,13.094-13.094s-5.873-13.094-13.094-13.094c-7.219,0-13.094,5.874-13.094,13.094   S290.921,246.126,298.14,246.126z M298.14,229.938c1.706,0,3.094,1.388,3.094,3.094s-1.388,3.094-3.094,3.094   c-1.705,0-3.094-1.388-3.094-3.094S296.435,229.938,298.14,229.938z"/>
<rect height="10" width="19.545" x="253.554" y="228.567"/>
<rect height="10" width="127.441" x="114.438" y="228.567"/>
<rect height="15.671" width="10" x="454.356" y="373.847"/>
<rect height="127.234" width="10" x="454.356" y="232.321"/>
</g>
</svg>