<?xml version="1.0" encoding="UTF-8" standalone="no"?>
<!-- Created with Inkscape (http://www.inkscape.org/) -->

<svg
   width="64pt"
   height="64pt"
   viewBox="0 0 22.577778 22.577778"
   version="1.1"
   id="svg831"
   inkscape:version="1.1.1 (3bf5ae0d25, 2021-09-20)"
   sodipodi:docname="Ex.svg"
   inkscape:export-filename="C:\Users\User\Desktop\CARLOS PROJECT\4. APRIL 1\Done\5 - Garlic.png"
   inkscape:export-xdpi="576"
   inkscape:export-ydpi="576"
   xmlns:inkscape="http://www.inkscape.org/namespaces/inkscape"
   xmlns:sodipodi="http://sodipodi.sourceforge.net/DTD/sodipodi-0.dtd"
   xmlns="http://www.w3.org/2000/svg"
   xmlns:svg="http://www.w3.org/2000/svg"
   xmlns:rdf="http://www.w3.org/1999/02/22-rdf-syntax-ns#"
   xmlns:cc="http://creativecommons.org/ns#"
   xmlns:dc="http://purl.org/dc/elements/1.1/">
  <defs
     id="defs825">
    <pattern
       id="EMFhbasepattern"
       patternUnits="userSpaceOnUse"
       width="6"
       height="6"
       x="0"
       y="0" />
    <pattern
       id="EMFhbasepattern-9"
       patternUnits="userSpaceOnUse"
       width="6"
       height="6"
       x="0"
       y="0" />
    <pattern
       id="EMFhbasepattern-0"
       patternUnits="userSpaceOnUse"
       width="6"
       height="6"
       x="0"
       y="0" />
    <pattern
       id="EMFhbasepattern-7"
       patternUnits="userSpaceOnUse"
       width="6"
       height="6"
       x="0"
       y="0" />
    <pattern
       id="EMFhbasepattern-2"
       patternUnits="userSpaceOnUse"
       width="6"
       height="6"
       x="0"
       y="0" />
    <pattern
       id="EMFhbasepattern-98"
       patternUnits="userSpaceOnUse"
       width="6"
       height="6"
       x="0"
       y="0" />
    <pattern
       id="EMFhbasepattern-6"
       patternUnits="userSpaceOnUse"
       width="6"
       height="6"
       x="0"
       y="0" />
    <pattern
       id="EMFhbasepattern-01"
       patternUnits="userSpaceOnUse"
       width="6"
       height="6"
       x="0"
       y="0" />
    <pattern
       id="EMFhbasepattern-07"
       patternUnits="userSpaceOnUse"
       width="6"
       height="6"
       x="0"
       y="0" />
    <pattern
       id="EMFhbasepattern-8"
       patternUnits="userSpaceOnUse"
       width="6"
       height="6"
       x="0"
       y="0" />
    <pattern
       id="EMFhbasepattern-4"
       patternUnits="userSpaceOnUse"
       width="6"
       height="6"
       x="0"
       y="0" />
    <pattern
       id="EMFhbasepattern-40"
       patternUnits="userSpaceOnUse"
       width="6"
       height="6"
       x="0"
       y="0" />
    <pattern
       id="EMFhbasepattern-08"
       patternUnits="userSpaceOnUse"
       width="6"
       height="6"
       x="0"
       y="0" />
    <pattern
       id="EMFhbasepattern-04"
       patternUnits="userSpaceOnUse"
       width="6"
       height="6"
       x="0"
       y="0" />
    <pattern
       id="EMFhbasepattern-014"
       patternUnits="userSpaceOnUse"
       width="6"
       height="6"
       x="0"
       y="0" />
    <pattern
       id="EMFhbasepattern-27"
       patternUnits="userSpaceOnUse"
       width="6"
       height="6"
       x="0"
       y="0" />
    <pattern
       id="EMFhbasepattern-09"
       patternUnits="userSpaceOnUse"
       width="6"
       height="6"
       x="0"
       y="0" />
    <pattern
       id="EMFhbasepattern-5"
       patternUnits="userSpaceOnUse"
       width="6"
       height="6"
       x="0"
       y="0" />
    <pattern
       id="EMFhbasepattern-018"
       patternUnits="userSpaceOnUse"
       width="6"
       height="6"
       x="0"
       y="0" />
  </defs>
  <sodipodi:namedview
     id="base"
     pagecolor="#ffffff"
     bordercolor="#666666"
     borderopacity="1.0"
     inkscape:pageopacity="0.0"
     inkscape:pageshadow="2"
     inkscape:zoom="6.4882571"
     inkscape:cx="31.749667"
     inkscape:cy="42.615451"
     inkscape:document-units="pt"
     inkscape:current-layer="layer1"
     showgrid="false"
     units="pt"
     inkscape:window-width="1920"
     inkscape:window-height="1001"
     inkscape:window-x="-9"
     inkscape:window-y="-9"
     inkscape:window-maximized="1"
     inkscape:pagecheckerboard="true"
     inkscape:showpageshadow="false"
     inkscape:object-paths="true"
     inkscape:snap-intersection-paths="true"
     inkscape:snap-smooth-nodes="true"
     inkscape:snap-midpoints="true"
     showguides="true"
     inkscape:snap-bbox="true"
     inkscape:bbox-nodes="true"
     inkscape:snap-nodes="false"
     inkscape:snap-global="true"
     inkscape:lockguides="true">
    <inkscape:grid
       type="xygrid"
       id="grid1378" />
    <sodipodi:guide
       position="0.97013831,21.607643"
       orientation="78.000048,0"
       id="guide1380"
       inkscape:locked="true" />
    <sodipodi:guide
       position="0.97013831,0.97013129"
       orientation="0,78.000005"
       id="guide1382"
       inkscape:locked="true" />
    <sodipodi:guide
       position="21.607639,0.97013129"
       orientation="-78.000048,0"
       id="guide1384"
       inkscape:locked="true" />
    <sodipodi:guide
       position="21.607639,21.607643"
       orientation="0,-78.000005"
       id="guide1386"
       inkscape:locked="true" />
  </sodipodi:namedview>
  <metadata
     id="metadata828">
    <rdf:RDF>
      <cc:Work
         rdf:about="">
        <dc:format>image/svg+xml</dc:format>
        <dc:type
           rdf:resource="http://purl.org/dc/dcmitype/StillImage" />
      </cc:Work>
    </rdf:RDF>
  </metadata>
  <g
     inkscape:label="Icon"
     inkscape:groupmode="layer"
     id="layer1"
     transform="translate(0,-274.42223)">
    <g
       id="g6226"
       style="display:inline;stroke-width:0.79504"
       transform="matrix(1.2577987,0,0,1.2577987,77.374298,-77.176423)">
      <g
         id="g67044"
         style="stroke-width:0.79504">
        <path
           style="color:#000000;fill:#612d82;stroke-width:0.79504;stroke-linecap:round;stroke-linejoin:round;-inkscape-stroke:none"
           d="m -50.1582,286.28711 c -0.530521,1.35669 -1.20364,2.04328 -1.941406,2.50391 l -1.472657,7.11132 c 1.042308,0.27941 1.992004,0.1385 2.804688,-0.28711 0.812684,-0.42561 1.492388,-1.1245 2.060547,-1.95312 1.136318,-1.65723 1.836517,-3.84668 2.193359,-5.57031 z"
           id="path77538"
           sodipodi:nodetypes="cccsscc" />
        <path
           id="path93370"
           style="color:#000000;fill:#4e2669;fill-opacity:1;stroke-width:0.79504;stroke-linecap:round;stroke-linejoin:round;-inkscape-stroke:none"
           d="m -48.21153,284.92476 a 0.26460996,0.26460996 0 0 0 -0.153479,0.0481 l -1.69757,1.19528 a 0.26460996,0.26460996 0 0 0 -0.0956,0.11885 c -0.530522,1.35669 -1.203717,2.04361 -1.941484,2.50424 a 0.26460996,0.26460996 0 0 0 -0.117306,0.16382 l -1.544608,6.63112 a 0.26460996,0.26460996 0 0 0 0.189135,0.31626 c 0.124822,0.0335 0.248433,0.0605 0.370522,0.0822 l 1.514118,-6.50038 a 0.26460996,0.26460996 0 0 1 0.117306,-0.16381 c 0.737767,-0.46063 1.410962,-1.14755 1.941483,-2.50424 a 0.26460996,0.26460996 0 0 1 0.0956,-0.11886 l 1.69757,-1.19527 a 0.26460996,0.26460996 0 0 1 0.306443,0.002 l 1.276408,0.92139 a 0.26460996,0.26460996 0 0 0 -0.110072,-0.22634 l -1.695503,-1.22422 a 0.26460996,0.26460996 0 0 0 -0.152964,-0.0501 z" />
        <path
           id="path95288"
           style="fill:#4e2669;fill-opacity:1;stroke-width:3.00488;stroke-linecap:round;stroke-linejoin:round"
           d="m -202.47852,59.851562 c 1.36538,0.366013 2.68861,0.541186 3.9629,0.546876 4.88081,-5.166442 5.43501,-9.103216 6.02539,-13.316407 0.73955,-5.594149 0.19721,-11.559255 -0.90039,-17.054687 -1.10965,1.244424 -2.29147,2.179292 -3.52149,2.947265 z"
           transform="matrix(0.26458334,0,0,0.26458334,0,280.06666)"
           sodipodi:nodetypes="cccccc" />
        <path
           style="color:#000000;fill:#612d82;stroke-width:0.79504;stroke-linecap:round;stroke-linejoin:round;-inkscape-stroke:none"
           d="m -53.443359,283.29687 -2.179688,0.14844 c -0.100616,0.007 -0.188481,0.0707 -0.226562,0.16406 l -0.898438,2.19336 c -0.01819,0.0438 -0.02426,0.0917 -0.01758,0.13868 0.340343,2.23917 -0.346038,3.33809 -1.158203,4.39257 -0.812166,1.05449 -1.792969,2.06602 -1.792969,3.88868 0,0.99118 0.464813,1.6775 1.167969,2.05078 0.703156,0.37327 1.615301,0.47656 2.815229,0.42996 1.199928,-0.0466 2.227672,-0.55918 2.923054,-1.34012 0.695382,-0.78094 1.05724,-1.8114 1.205078,-2.92969 0.29551,-2.23531 -0.254318,-4.84691 -0.884765,-6.7539 l -0.683594,-2.19727 c -0.03625,-0.11665 -0.14763,-0.19332 -0.269531,-0.18555 z"
           id="path80215"
           sodipodi:nodetypes="cccccssscssccc" />
        <path
           style="color:#000000;fill:#ae61d9;fill-opacity:1;stroke-width:0.79504;stroke-linecap:round;stroke-linejoin:round;-inkscape-stroke:none"
           d="m -55.634114,287.95703 c -0.06436,1.0761 -0.614727,2.10002 -1.232422,2.90625 -0.08903,0.11595 -0.06717,0.28212 0.04883,0.37109 0.115938,0.089 0.282119,0.0672 0.371094,-0.0488 0.656333,-0.85667 1.266105,-1.96437 1.339844,-3.19727 0.0095,-0.14627 -0.101731,-0.2724 -0.248017,-0.28101 -0.146287,-0.009 -0.271493,0.10346 -0.279329,0.24974 z m -1.851563,3.69724 c -0.102614,0.13467 -0.203712,0.27222 -0.300781,0.41406 -0.08357,0.1207 -0.05289,0.28637 0.06836,0.36914 0.120836,0.0818 0.28513,0.0504 0.367188,-0.0703 0.09039,-0.13208 0.186259,-0.26084 0.285156,-0.39063 0.08903,-0.11595 0.06717,-0.28212 -0.0488,-0.37112 -0.115968,-0.089 -0.282149,-0.0671 -0.371124,0.0489 z"
           id="path1639"
           sodipodi:nodetypes="cccccccccccccc" />
        <path
           id="path88891"
           style="color:#000000;fill:#4e2669;fill-opacity:1;stroke-width:0.79504;stroke-linecap:round;stroke-linejoin:round;-inkscape-stroke:none"
           d="m -53.76933,283.31917 -1.706872,0.11628 c -2.09e-4,0.0395 -7.94e-4,0.0778 -0.0021,0.11317 -0.0035,0.0944 -0.01167,0.17321 -0.0217,0.21807 -0.17857,0.0325 -0.335565,0.0798 -0.472323,0.1416 l -0.775663,1.89445 c -0.01815,0.0438 -0.02422,0.0916 -0.01757,0.1385 0.06636,0.43659 0.09288,0.8295 0.08785,1.18752 0.483662,-0.0992 0.879135,-0.28263 1.255736,-0.5333 0.05645,0.33265 0.202592,0.63229 0.365352,0.89504 0.100518,0.12296 0.243182,0.23461 0.433565,0.23461 0.184328,0 0.322599,-0.10544 0.42168,-0.22273 0.218069,-0.27638 0.300387,-0.60246 0.378272,-0.91054 0.508315,0.36631 1.207078,0.5702 1.770433,0.601 -0.133546,-0.53597 -0.283221,-1.04582 -0.437697,-1.51309 l -0.49661,-1.59576 c -0.188034,-0.15086 -0.438163,-0.25838 -0.759129,-0.31678 -0.01006,-0.0451 -0.01831,-0.1236 -0.0217,-0.21808 -0.0024,-0.0683 -0.0024,-0.1472 -0.0016,-0.22996 z"
           sodipodi:nodetypes="ccccccccccsccccccccc" />
        <path
           style="color:#000000;fill:#50b86b;stroke-width:0.79504;stroke-linecap:round;stroke-linejoin:round;-inkscape-stroke:none"
           d="m -57.238404,286.13699 c 0.781805,-0.0368 1.281343,-0.24381 1.816425,-0.59996 0.03342,0.16045 0.07549,0.30956 0.125058,0.4439 0.119153,0.38614 0.373793,0.68575 0.67386,0.68575 0.383437,0 0.524083,-0.36209 0.661974,-0.65268 0.05553,-0.14388 0.102164,-0.3055 0.137978,-0.48059 0.468477,0.32234 1.07042,0.57802 1.64925,0.60374 0.301575,0.009 0.379987,-0.0167 0.437447,-0.0705 0.106993,-0.10006 0.112318,-0.26801 0.01188,-0.37465 -0.568105,-0.60566 -0.631809,-1.17859 -0.761711,-1.73064 -0.06495,-0.27603 -0.147188,-0.55598 -0.349848,-0.79117 -0.196562,-0.22811 -0.494274,-0.38582 -0.910024,-0.46147 -0.01005,-0.0451 -0.01831,-0.12359 -0.0217,-0.21807 -0.0076,-0.21076 0.0074,-0.50292 0.0041,-0.79892 -0.0033,-0.29601 -0.01924,-0.59819 -0.129191,-0.86713 -0.109956,-0.26894 -0.382275,-0.50798 -0.730189,-0.50798 l 7.1e-5,-4e-4 c -0.348213,0 -0.620837,0.23874 -0.730705,0.50798 -0.109866,0.26923 -0.125484,0.57296 -0.128675,0.86919 -0.0032,0.29623 0.01185,0.58636 0.0041,0.79685 -0.0035,0.0944 -0.01167,0.17322 -0.0217,0.21808 -0.415862,0.0756 -0.715529,0.23336 -0.91209,0.46147 -0.202661,0.23519 -0.282832,0.51514 -0.347782,0.79117 -0.129902,0.55205 -0.193609,1.12498 -0.761712,1.73064 z"
           id="path79982"
           sodipodi:nodetypes="cccccccccssccssccssccsscc" />
        <path
           id="path64526"
           style="fill:#4e2669;fill-opacity:1;stroke-width:3.00488;stroke-linecap:round;stroke-linejoin:round"
           d="m -189.57422,23.509766 c -0.41918,1.071952 -0.86258,2.03252 -1.32617,2.898437 0.98955,0.297371 2.02906,0.465422 3.06055,0.630859 -0.19313,1.989309 0.85119,4.096319 2.25197,4.945313 1.90965,0.875317 3.72915,0.588057 5.27734,-0.449219 0.99609,1.229127 2.11943,2.38114 3.44141,3.25 0.4185,-1.541009 0.77763,-3.039392 1.07031,-4.453125 l -4.23605,-7.653773 z"
           transform="matrix(0.26458334,0,0,0.26458334,0,280.06666)"
           sodipodi:nodetypes="ccccccccc" />
        <path
           style="color:#000000;fill:#50b86b;stroke-width:0.79504;stroke-linecap:round;stroke-linejoin:round;-inkscape-stroke:none"
           d="m -46.102097,282.59932 c -0.180789,0.001 -0.355338,0.0672 -0.485759,0.16847 -0.219657,0.17048 -0.375192,0.41113 -0.517797,0.65215 -0.142605,0.24102 -0.268206,0.48711 -0.373105,0.65423 -0.04359,0.0695 -0.08435,0.1251 -0.112654,0.15709 -0.372613,-0.13136 -0.692166,-0.14356 -0.961181,-0.0496 -0.280128,0.0978 -0.480439,0.28897 -0.664041,0.48421 -0.36721,0.39047 -0.686824,0.82566 -1.431954,1.0511 -0.139407,0.0427 -0.217983,0.19016 -0.175702,0.3297 0.09609,0.32137 1.281377,0.60554 1.94717,0.56273 -0.115976,0.30861 -0.127349,0.62263 -0.109073,0.9219 0.02779,0.13875 0.092,0.28865 0.241845,0.37517 0.161033,0.093 0.33614,0.0673 0.478523,0.0134 0.297772,-0.12365 0.505343,-0.33498 0.710552,-0.5426 0.268075,0.55182 0.747809,1.05212 1.026738,1.22757 0.364571,0.24931 0.6925,0.0505 0.634139,-0.1437 -0.177337,-0.75803 0.03871,-1.25253 0.193267,-1.76578 0.07728,-0.25662 0.143203,-0.52499 0.08785,-0.81649 -0.05312,-0.27977 -0.222795,-0.55029 -0.522449,-0.80719 0.01397,-0.0418 0.04375,-0.1077 0.08475,-0.18448 0.0937,-0.17549 0.242917,-0.40551 0.379304,-0.64854 0.13639,-0.24302 0.264301,-0.49732 0.300758,-0.77153 0.03646,-0.27421 -0.0758,-0.60554 -0.363287,-0.77153 -0.117448,-0.0678 -0.244236,-0.0971 -0.367934,-0.0961 z"
           id="path78779"
           sodipodi:nodetypes="ccscccccccccccccsscsssccc" />
        <path
           id="path80403"
           style="color:#000000;fill:#349951;fill-opacity:1;stroke-width:0.79504;stroke-linecap:round;stroke-linejoin:round;-inkscape-stroke:none"
           d="m -53.871655,280.87943 c -0.330385,-0.84479 -1.242166,-0.66264 -1.482074,-0.0552 v 10e-6 c -0.214458,0.62285 -0.08673,1.29589 -0.146275,1.88412 -0.415862,0.0756 -0.715529,0.23336 -0.912091,0.46147 -0.20266,0.23519 -0.282831,0.51514 -0.347781,0.79117 -0.129903,0.55205 -0.193609,1.12498 -0.761712,1.73064 -0.100438,0.10664 -0.09511,0.27459 0.01188,0.37465 0.17291,0.13494 0.413691,0.0688 0.618569,0.0402 0.474906,-0.56369 0.538703,-1.09916 0.660424,-1.61644 0.06495,-0.27603 0.145122,-0.55597 0.347782,-0.79116 0.196561,-0.22811 0.496229,-0.38587 0.91209,-0.46147 0,-0.61816 -0.0769,-1.31662 0.146275,-1.88413 0.170284,-0.41411 0.510511,-0.54177 0.952913,-0.47386 z"
           sodipodi:nodetypes="ccccsscccssccc" />
        <path
           id="path91080"
           style="color:#000000;fill:#349951;fill-opacity:1;stroke-width:0.79504;stroke-linecap:round;stroke-linejoin:round;-inkscape-stroke:none"
           d="m -46.587856,282.76779 c -0.219657,0.17048 -0.375192,0.41113 -0.517797,0.65215 -0.163715,0.28304 -0.30124,0.55402 -0.485759,0.81132 -0.37261,-0.13136 -0.692166,-0.14357 -0.961181,-0.0496 -0.280128,0.0978 -0.480441,0.28897 -0.664041,0.48421 -0.367213,0.39047 -0.686827,0.82566 -1.431954,1.0511 -0.139404,0.0427 -0.21798,0.19016 -0.175702,0.3297 0.04451,0.17395 0.338089,0.27573 0.53847,0.35137 0.03005,-0.0729 0.09106,-0.12862 0.1664,-0.15193 0.745127,-0.22544 1.064741,-0.66063 1.431954,-1.0511 0.46443,-0.50392 1.050275,-0.63129 1.625221,-0.43461 0.294733,-0.51049 0.557122,-1.10787 1.003557,-1.46348 0.234677,-0.16216 0.424554,-0.19431 0.665594,-0.14776 -0.112295,-0.58113 -0.806262,-0.68115 -1.194762,-0.38137 z"
           sodipodi:nodetypes="cccccccccccccc" />
      </g>
    </g>
  </g>
</svg>
