<?xml version="1.0" encoding="utf-8"?>
<!-- Скачано с сайта svg4.ru / Downloaded from svg4.ru -->
<svg fill="#000000" height="800px" width="800px" version="1.1" id="Layer_1" xmlns="http://www.w3.org/2000/svg" xmlns:xlink="http://www.w3.org/1999/xlink" 
	 viewBox="0 0 128 128" xml:space="preserve">
<path d="M11.4,66.9c-0.4,0-0.7-0.1-1-0.4c-0.5-0.5-0.5-1.2-0.3-1.7c2.3-3.9,12.3-20.3,41.2-24.6l5.6-7.9L73,34.8l-3.7,5.2
	c16.5,3.2,29.2,16.1,33.7,21.7l18.5,4.4c0.2,0,0.3,0.1,0.5,0.3c0.5,0.5,0.5,1.3,0,1.8c-0.2,0.2-0.3,0.3-0.6,0.3l-14,5.6l-5.6,14
	c0,0.2-0.2,0.4-0.3,0.6c-0.5,0.5-1.3,0.5-1.8,0c-0.1-0.1-0.2-0.3-0.3-0.4L95,69.9c-12-12-31.1-3.9-35.9-1.5
	c-9.4,4.7-35.9,10.4-48,5.1c-0.2-0.1-0.4-0.2-0.5-0.3c-0.6-0.6-0.6-1.5,0-2c0.3-0.3,0.5-0.4,0.9-0.5l7.9-1.2c0.2,0,0.4-0.1,0.6-0.3
	c0.3-0.3,0.3-0.8,0-1.2c-0.2-0.2-0.4-0.3-0.7-0.2L11.4,66.9z M25.5,62.5c1.2-1.2,1.2-3.2,0-4.4c-1.2-1.2-3.2-1.2-4.4,0
	c-1.2,1.2-1.2,3.2,0,4.4C22.3,63.7,24.3,63.7,25.5,62.5"/>
</svg>