<?xml version="1.0" encoding="UTF-8" standalone="no"?>
<!-- Created with Inkscape (http://www.inkscape.org/) -->

<svg
   width="64pt"
   height="64pt"
   viewBox="0 0 22.577778 22.577778"
   version="1.1"
   id="svg831"
   inkscape:version="1.1.1 (3bf5ae0d25, 2021-09-20)"
   sodipodi:docname="Ex.svg"
   inkscape:export-filename="C:\Users\User\Desktop\CARLOS PROJECT\4. APRIL 1\Done\8 - Turnip.png"
   inkscape:export-xdpi="576"
   inkscape:export-ydpi="576"
   xmlns:inkscape="http://www.inkscape.org/namespaces/inkscape"
   xmlns:sodipodi="http://sodipodi.sourceforge.net/DTD/sodipodi-0.dtd"
   xmlns="http://www.w3.org/2000/svg"
   xmlns:svg="http://www.w3.org/2000/svg"
   xmlns:rdf="http://www.w3.org/1999/02/22-rdf-syntax-ns#"
   xmlns:cc="http://creativecommons.org/ns#"
   xmlns:dc="http://purl.org/dc/elements/1.1/">
  <defs
     id="defs825">
    <pattern
       id="EMFhbasepattern"
       patternUnits="userSpaceOnUse"
       width="6"
       height="6"
       x="0"
       y="0" />
    <pattern
       id="EMFhbasepattern-9"
       patternUnits="userSpaceOnUse"
       width="6"
       height="6"
       x="0"
       y="0" />
    <pattern
       id="EMFhbasepattern-0"
       patternUnits="userSpaceOnUse"
       width="6"
       height="6"
       x="0"
       y="0" />
    <pattern
       id="EMFhbasepattern-7"
       patternUnits="userSpaceOnUse"
       width="6"
       height="6"
       x="0"
       y="0" />
    <pattern
       id="EMFhbasepattern-2"
       patternUnits="userSpaceOnUse"
       width="6"
       height="6"
       x="0"
       y="0" />
    <pattern
       id="EMFhbasepattern-98"
       patternUnits="userSpaceOnUse"
       width="6"
       height="6"
       x="0"
       y="0" />
    <pattern
       id="EMFhbasepattern-6"
       patternUnits="userSpaceOnUse"
       width="6"
       height="6"
       x="0"
       y="0" />
    <pattern
       id="EMFhbasepattern-01"
       patternUnits="userSpaceOnUse"
       width="6"
       height="6"
       x="0"
       y="0" />
    <pattern
       id="EMFhbasepattern-07"
       patternUnits="userSpaceOnUse"
       width="6"
       height="6"
       x="0"
       y="0" />
    <pattern
       id="EMFhbasepattern-8"
       patternUnits="userSpaceOnUse"
       width="6"
       height="6"
       x="0"
       y="0" />
    <pattern
       id="EMFhbasepattern-4"
       patternUnits="userSpaceOnUse"
       width="6"
       height="6"
       x="0"
       y="0" />
    <pattern
       id="EMFhbasepattern-40"
       patternUnits="userSpaceOnUse"
       width="6"
       height="6"
       x="0"
       y="0" />
    <pattern
       id="EMFhbasepattern-08"
       patternUnits="userSpaceOnUse"
       width="6"
       height="6"
       x="0"
       y="0" />
    <pattern
       id="EMFhbasepattern-04"
       patternUnits="userSpaceOnUse"
       width="6"
       height="6"
       x="0"
       y="0" />
    <pattern
       id="EMFhbasepattern-014"
       patternUnits="userSpaceOnUse"
       width="6"
       height="6"
       x="0"
       y="0" />
    <pattern
       id="EMFhbasepattern-27"
       patternUnits="userSpaceOnUse"
       width="6"
       height="6"
       x="0"
       y="0" />
    <pattern
       id="EMFhbasepattern-09"
       patternUnits="userSpaceOnUse"
       width="6"
       height="6"
       x="0"
       y="0" />
    <pattern
       id="EMFhbasepattern-5"
       patternUnits="userSpaceOnUse"
       width="6"
       height="6"
       x="0"
       y="0" />
    <pattern
       id="EMFhbasepattern-018"
       patternUnits="userSpaceOnUse"
       width="6"
       height="6"
       x="0"
       y="0" />
  </defs>
  <sodipodi:namedview
     id="base"
     pagecolor="#ffffff"
     bordercolor="#666666"
     borderopacity="1.0"
     inkscape:pageopacity="0.0"
     inkscape:pageshadow="2"
     inkscape:zoom="6.4882571"
     inkscape:cx="31.749667"
     inkscape:cy="42.615451"
     inkscape:document-units="pt"
     inkscape:current-layer="layer1"
     showgrid="false"
     units="pt"
     inkscape:window-width="1920"
     inkscape:window-height="1001"
     inkscape:window-x="-9"
     inkscape:window-y="-9"
     inkscape:window-maximized="1"
     inkscape:pagecheckerboard="true"
     inkscape:showpageshadow="false"
     inkscape:object-paths="true"
     inkscape:snap-intersection-paths="true"
     inkscape:snap-smooth-nodes="true"
     inkscape:snap-midpoints="true"
     showguides="true"
     inkscape:snap-bbox="true"
     inkscape:bbox-nodes="true"
     inkscape:snap-nodes="false"
     inkscape:snap-global="true"
     inkscape:lockguides="true">
    <inkscape:grid
       type="xygrid"
       id="grid1378" />
    <sodipodi:guide
       position="0.97013831,21.607643"
       orientation="78.000048,0"
       id="guide1380"
       inkscape:locked="true" />
    <sodipodi:guide
       position="0.97013831,0.97013129"
       orientation="0,78.000005"
       id="guide1382"
       inkscape:locked="true" />
    <sodipodi:guide
       position="21.607639,0.97013129"
       orientation="-78.000048,0"
       id="guide1384"
       inkscape:locked="true" />
    <sodipodi:guide
       position="21.607639,21.607643"
       orientation="0,-78.000005"
       id="guide1386"
       inkscape:locked="true" />
  </sodipodi:namedview>
  <metadata
     id="metadata828">
    <rdf:RDF>
      <cc:Work
         rdf:about="">
        <dc:format>image/svg+xml</dc:format>
        <dc:type
           rdf:resource="http://purl.org/dc/dcmitype/StillImage" />
      </cc:Work>
    </rdf:RDF>
  </metadata>
  <g
     inkscape:label="Icon"
     inkscape:groupmode="layer"
     id="layer1"
     transform="translate(0,-274.42223)">
    <g
       id="g223456"
       style="display:inline;stroke-width:0.800264"
       transform="matrix(1.2495878,0,0,1.2495878,-37.407113,-74.836563)">
      <path
         style="color:#000000;fill:#b01d47;fill-opacity:1;stroke-width:0.800264;stroke-linecap:round;stroke-linejoin:round;-inkscape-stroke:none"
         d="m 45.997841,283.5857 c -0.09742,-0.60591 -0.582924,-0.99654 -1.056641,-1.24414 -0.607258,-0.31273 -1.427866,-0.48328 -2.292969,-0.25391 l -1.025386,0.0682 c -0.727769,-0.19501 -1.457129,-0.0318 -2.011719,0.26562 -0.46797,0.26064 -0.986328,0.69884 -0.986328,1.21875 z"
         id="path212835"
         sodipodi:nodetypes="ccccccc" />
      <path
         id="path212837"
         style="fill:#801231;fill-opacity:1;stroke-width:0.800264;stroke-linecap:round;stroke-linejoin:round"
         d="m 45.997766,283.58591 c 0,-0.37986 -0.224553,-0.59848 -0.483171,-0.85624 -0.856394,0.0215 -1.664565,0.44363 -2.251025,1.03718 z"
         sodipodi:nodetypes="cccc" />
      <path
         id="path212839"
         style="fill:#801231;fill-opacity:1;stroke-width:0.800264;stroke-linecap:round;stroke-linejoin:round"
         d="m 41.548428,283.7645 c -0.72775,-0.71033 -1.506463,-1.05034 -2.401404,-1.02883 -0.265874,0.23404 -0.522447,0.52946 -0.522447,0.90434 9.2e-5,0.0733 0.03059,0.1433 0.08423,0.19327 z"
         sodipodi:nodetypes="ccccc" />
      <path
         style="color:#000000;fill:#dc1c4b;fill-opacity:1;stroke-width:0.800264;stroke-linecap:round;stroke-linejoin:round;-inkscape-stroke:none"
         d="m 43.286914,291.45832 c 0.409658,0.14897 0.765889,0.23605 1.107422,0.20117 0.341533,-0.0349 0.650179,-0.20949 0.902344,-0.50195 0.504329,-0.58492 0.880755,-1.61883 1.46875,-3.38281 6.78e-4,-10e-4 0.0013,-0.003 0.002,-0.004 0.349622,-1.09881 0.46173,-1.9739 0.394531,-2.66015 -0.0672,-0.68626 -0.323561,-1.19411 -0.712891,-1.49219 -0.389329,-0.29808 -0.891078,-0.36707 -1.378906,-0.25586 l -4.9e-5,9e-5 c -0.487828,0.11121 -0.973161,0.39504 -1.394531,0.81641 z"
         id="path212841"
         sodipodi:nodetypes="ccsccsscccc" />
      <path
         id="path212843"
         style="color:#000000;fill:#801231;fill-opacity:1;stroke-width:0.800264;stroke-linecap:round;stroke-linejoin:round;-inkscape-stroke:none"
         d="m 42.407807,282.58342 c -0.9413,0 -1.693556,0.5804 -2.117183,1.32034 -0.179848,0.31412 -0.316333,0.65814 -0.418063,1.02267 l 2.064991,1.94045 a 0.26460996,0.26460996 0 0 0 0.351399,0.008 l 2.577621,-2.20141 c -0.09044,-0.27101 -0.201867,-0.52904 -0.339513,-0.76946 -0.424053,-0.74069 -1.177952,-1.32034 -2.119252,-1.32034 z" />
      <path
         style="color:#000000;fill:#50b86b;fill-opacity:1;stroke-width:0.800264;stroke-linecap:round;stroke-linejoin:round;-inkscape-stroke:none"
         d="m 42.929537,283.38804 c -0.06196,-0.79315 0.04194,-1.36935 0.550781,-2.06836 0.08883,-0.12202 0.130747,-0.28096 0.09375,-0.43164 -0.037,-0.15068 -0.154857,-0.27757 -0.296875,-0.33984 l -0.474656,-0.20902 c -0.280322,-0.12291 -0.603004,-0.0712 -0.808594,0.18555 -0.678628,0.84755 -0.787925,1.92013 -0.710937,3.15234 z"
         id="path212845"
         sodipodi:nodetypes="cssccccc" />
      <path
         id="path212847"
         style="color:#000000;fill:#349951;fill-opacity:1;stroke-width:0.800264;stroke-linecap:round;stroke-linejoin:round;-inkscape-stroke:none"
         d="m 42.929739,283.38802 c -0.06196,-0.79315 0.04151,-1.36908 0.550355,-2.06809 0.08883,-0.12202 0.131048,-0.28133 0.09405,-0.43201 -0.037,-0.15068 -0.155122,-0.27725 -0.29714,-0.33952 l -0.47439,-0.20929 c -0.211086,-0.0892 -0.41098,-0.0705 -0.555005,-0.0104 0.0086,0.003 0.01728,0.007 0.02585,0.0103 l 0.47439,0.20929 c 0.142018,0.0623 0.260138,0.18884 0.29714,0.33952 0.037,0.15068 -0.0052,0.30999 -0.09405,0.43201 -0.508842,0.69901 -0.612315,1.27494 -0.550355,2.06809 z"
         sodipodi:nodetypes="csscccccsccc" />
      <path
         style="color:#000000;fill:#dc1c4b;fill-opacity:1;stroke-width:0.800264;stroke-linecap:round;stroke-linejoin:round;-inkscape-stroke:none"
         d="m 41.14047,284.17912 c -0.42137,-0.42137 -0.906703,-0.7052 -1.394532,-0.81641 l -4.2e-5,-9e-5 c -0.487828,-0.11121 -0.989576,-0.0422 -1.378906,0.25586 -0.38933,0.29808 -0.643739,0.80593 -0.710937,1.49219 -0.0672,0.68625 0.04491,1.56134 0.394531,2.66015 6.55e-4,10e-4 0.0013,0.003 0.002,0.004 0.587995,1.76398 0.964421,2.79789 1.46875,3.38281 0.252165,0.29246 0.560811,0.46708 0.902344,0.50195 0.341533,0.0349 0.69581,-0.0522 1.105469,-0.20117 z"
         id="path212849"
         sodipodi:nodetypes="ccccsccsccc" />
      <path
         id="path212851"
         style="color:#000000;fill:#b01d47;fill-opacity:1;stroke-width:0.800264;stroke-linecap:round;stroke-linejoin:round;-inkscape-stroke:none"
         d="m 39.634333,286.44469 c -0.107122,1.8002 0.259736,3.81212 1.134298,5.21156 0.237292,-0.0263 0.486569,-0.0982 0.760677,-0.19792 0.111213,-0.0404 0.182108,-0.14967 0.173633,-0.26768 l -0.484209,-6.84351 c -0.0049,-0.0636 -0.03264,-0.12319 -0.07803,-0.16795 -0.214415,-0.21442 -0.445788,-0.39318 -0.685228,-0.53175 -0.544101,0.85653 -0.821141,1.96996 -0.821141,2.79725 z"
         sodipodi:nodetypes="cccccccc" />
      <path
         id="path212853"
         style="fill:#b01d47;fill-opacity:1;stroke-width:0.800264;stroke-linecap:round;stroke-linejoin:round"
         d="m 44.361694,283.64692 c -0.239906,0.13868 -0.471458,0.31747 -0.686263,0.53227 a 0.26460996,0.26460996 0 0 0 -0.07597,0.16795 l -0.484208,6.84351 a 0.26460996,0.26460996 0 0 0 0.171566,0.26768 c 0.274302,0.0998 0.524722,0.17171 0.762744,0.19792 0.87463,-1.39973 1.238811,-3.41175 1.131713,-5.21156 -0.05527,-0.92893 -0.238197,-1.81428 -0.654222,-2.54093 -0.05045,-0.0881 -0.105826,-0.17399 -0.165365,-0.25684 z" />
      <path
         id="path213251"
         style="color:#000000;fill:#801231;fill-opacity:1;stroke-width:0.800264;stroke-linecap:round;stroke-linejoin:round;-inkscape-stroke:none"
         d="m 37.681938,286.16965 c 0.05893,0.47127 0.178086,1.00263 0.368453,1.60093 a 0.26460996,0.26460996 0 0 0 0.0021,0.004 c 0.587997,1.76398 0.964316,2.79782 1.468644,3.38274 0.252166,0.29246 0.561255,0.46742 0.902787,0.50229 0.148754,0.0152 0.299707,0.007 0.456822,-0.0191 0.140989,-0.68493 0.182631,-1.29186 0.129191,-1.83762 -0.08136,-0.83087 -0.411811,-1.55442 -0.996323,-2.00194 -0.129961,-0.0995 -0.281162,-0.14839 -0.425813,-0.21497 -0.08188,-0.13914 -0.144589,-0.30721 -0.239778,-0.41393 -0.255905,-0.28692 -0.578663,-0.52688 -0.951365,-0.71882 -0.218969,-0.11276 -0.458529,-0.20976 -0.714685,-0.28371 z" />
      <path
         style="color:#000000;fill:#dc1c4b;fill-opacity:1;stroke-width:0.800264;stroke-linecap:round;stroke-linejoin:round;-inkscape-stroke:none"
         d="m 42.408006,283.12434 c -0.728027,0 -1.294628,0.43084 -1.648438,1.04883 -0.35381,0.61798 -0.533825,1.42698 -0.585937,2.30273 -0.104224,1.75151 0.298753,3.76771 1.130859,5.01367 0.24897,0.3728 0.684003,0.53907 1.103516,0.53907 0.419512,0 0.856499,-0.16627 1.105469,-0.53907 0.832107,-1.24596 1.233129,-3.26216 1.128906,-5.01367 -0.05211,-0.87575 -0.230175,-1.68475 -0.583985,-2.30273 -0.353809,-0.61799 -0.922364,-1.04883 -1.65039,-1.04883 z"
         id="path212855" />
      <path
         id="path215878"
         style="color:#000000;fill:#801231;fill-opacity:1;stroke-width:0.800264;stroke-linecap:round;stroke-linejoin:round;-inkscape-stroke:none"
         d="m 39.630139,287.6047 c 0.0745,1.46185 0.448429,2.94732 1.138433,4.05143 0.03381,-0.004 0.06797,-0.008 0.10232,-0.014 0.0033,-5.3e-4 0.0065,-0.002 0.0098,-0.002 0.140904,-0.68472 0.182618,-1.29147 0.129191,-1.8371 -0.08136,-0.83087 -0.411811,-1.55442 -0.996323,-2.00194 -0.117345,-0.0899 -0.251918,-0.13878 -0.38344,-0.19637 z" />
      <path
         style="color:#000000;fill:#b01d47;fill-opacity:1;stroke-width:0.800264;stroke-linecap:round;stroke-linejoin:round;-inkscape-stroke:none"
         d="m 35.822266,286.8418 -1.16211,0.0684 0.08398,0.008 c -0.727769,-0.19501 -1.457129,-0.0318 -2.011719,0.26562 -0.465903,0.26064 -0.976544,0.68433 -0.986328,1.21875 2e-6,0.0733 0.03041,0.14332 0.08398,0.19336 l 3.228516,3.03321 c 0.09821,0.0914 0.249294,0.0949 0.351562,0.008 l 3.615235,-3.08789 c 0.05922,-0.0501 0.09349,-0.12361 0.09375,-0.20117 -0.09742,-0.60591 -0.582924,-0.99654 -1.056641,-1.24414 -0.607258,-0.31273 -1.427866,-0.48328 -2.292969,-0.25391 z"
         id="path10546"
         sodipodi:nodetypes="ccccccccccccc" />
      <path
         id="path207350"
         style="fill:#801231;fill-opacity:1;stroke-width:0.800264;stroke-linecap:round;stroke-linejoin:round"
         d="m 38.635885,287.49205 c -0.856393,0.0215 -1.728644,0.52424 -2.251024,1.03718 -10e-7,6.7e-4 -10e-7,0.001 0,0.002 -0.141484,0.14253 -0.230429,0.33657 -0.24443,0.53691 l -0.146762,2.07016 3.031858,-2.58899 c 0.0591,-0.0501 0.09328,-0.12355 0.09353,-0.20102 -0.06069,-0.39426 -0.224554,-0.59848 -0.483172,-0.85624 z"
         sodipodi:nodetypes="cccccccc" />
      <path
         id="path207307"
         style="fill:#801231;fill-opacity:1;stroke-width:0.800264;stroke-linecap:round;stroke-linejoin:round"
         d="m 34.669718,288.52688 c -0.73887,-0.75263 -1.506463,-1.05034 -2.401404,-1.02883 -0.265873,0.23404 -0.515737,0.53892 -0.522446,0.90434 9.2e-5,0.0733 0.03059,0.1433 0.08423,0.19327 l 3.228745,3.0334 z"
         sodipodi:nodetypes="cccccc" />
      <path
         style="color:#000000;fill:#dc1c4b;fill-opacity:1;stroke-width:0.800264;stroke-linecap:round;stroke-linejoin:round;-inkscape-stroke:none"
         d="m 36.796875,288.94141 c -0.04471,0.045 -0.07174,0.10465 -0.07617,0.16796 l -0.484375,6.84375 c -0.0087,0.11751 0.0614,0.2266 0.171875,0.26758 0.409658,0.14897 0.765889,0.23605 1.107422,0.20117 0.341533,-0.0349 0.650179,-0.20949 0.902344,-0.50195 0.504329,-0.58492 0.880755,-1.61883 1.46875,-3.38281 6.78e-4,-10e-4 0.0013,-0.003 0.002,-0.004 0.349622,-1.09881 0.46173,-1.9739 0.394531,-2.66015 -0.0672,-0.68626 -0.323561,-1.19411 -0.712891,-1.49219 -0.389329,-0.29808 -0.891078,-0.36707 -1.37893,-0.25582 -0.487853,0.11126 -0.973186,0.39509 -1.394556,0.81646 z"
         id="path9707"
         sodipodi:nodetypes="cccccsccsscc" />
      <path
         id="path194620"
         style="color:#000000;fill:#801231;fill-opacity:1;stroke-width:0.800264;stroke-linecap:round;stroke-linejoin:round;-inkscape-stroke:none"
         d="m 33.411915,288.66614 c -0.179848,0.31412 -0.316333,0.65814 -0.418063,1.02267 l 2.064991,1.94045 c 0.09819,0.0913 0.249157,0.0948 0.351398,0.008 l 2.577622,-2.20141 c -0.09044,-0.27101 -0.201867,-0.52904 -0.339514,-0.76946 -0.424053,-0.74069 -1.177951,-1.32034 -2.119252,-1.32046 -0.9413,-1.3e-4 -1.693555,0.58027 -2.117182,1.32021 z"
         sodipodi:nodetypes="cccccccc" />
      <path
         style="color:#000000;fill:#50b86b;fill-opacity:1;stroke-width:0.800264;stroke-linecap:round;stroke-linejoin:round;-inkscape-stroke:none"
         d="m 36.050828,288.15042 c -0.06196,-0.79315 0.04194,-1.36935 0.550781,-2.06836 0.08883,-0.12202 0.130747,-0.28096 0.09375,-0.43164 -0.037,-0.15068 -0.154857,-0.27757 -0.296875,-0.33984 l -0.474656,-0.20902 c -0.280322,-0.12291 -0.603004,-0.0712 -0.808594,0.18555 -0.678628,0.84755 -0.787925,1.92013 -0.710937,3.15234 z"
         id="rect9898"
         sodipodi:nodetypes="cssccccc" />
      <path
         id="path210349"
         style="color:#000000;fill:#349951;fill-opacity:1;stroke-width:0.800264;stroke-linecap:round;stroke-linejoin:round;-inkscape-stroke:none"
         d="m 36.05103,288.1504 c -0.06196,-0.79315 0.04151,-1.36908 0.550355,-2.06809 0.08883,-0.12202 0.131048,-0.28133 0.09405,-0.43201 -0.037,-0.15068 -0.155122,-0.27725 -0.29714,-0.33952 l -0.47439,-0.20929 c -0.211086,-0.0892 -0.389649,-0.0789 -0.555005,-0.0104 0.16548,0.0702 0.334088,0.14629 0.50024,0.21959 0.142018,0.0623 0.260138,0.18884 0.29714,0.33952 0.037,0.15068 -0.0052,0.30999 -0.09405,0.43201 -0.508842,0.69901 -0.612315,1.27494 -0.550355,2.06809 z"
         sodipodi:nodetypes="cssccccsccc" />
      <path
         style="color:#000000;fill:#dc1c4b;fill-opacity:1;stroke-width:0.800264;stroke-linecap:round;stroke-linejoin:round;-inkscape-stroke:none"
         d="m 31.488281,288.38086 c -0.38933,0.29808 -0.643739,0.80593 -0.710937,1.49219 -0.0672,0.68625 0.04491,1.56134 0.394531,2.66015 6.55e-4,10e-4 0.0013,0.003 0.002,0.004 0.587995,1.76398 0.964421,2.79789 1.46875,3.38281 0.252165,0.29246 0.560811,0.46708 0.902344,0.50195 0.341533,0.0349 0.69581,-0.0522 1.105469,-0.20117 0.111252,-0.0403 0.182229,-0.14955 0.173828,-0.26758 l -0.484375,-6.84375 c -0.005,-0.0636 -0.0327,-0.12322 -0.07813,-0.16796 -0.42137,-0.42137 -0.906703,-0.7052 -1.394553,-0.81646 -0.487849,-0.11125 -0.989597,-0.0422 -1.378927,0.25582 z"
         id="path8344"
         sodipodi:nodetypes="csccsccccccc" />
      <path
         id="path193092"
         style="color:#000000;fill:#b01d47;fill-opacity:1;stroke-width:0.800264;stroke-linecap:round;stroke-linejoin:round;-inkscape-stroke:none"
         d="m 32.755624,291.20707 c -0.107122,1.8002 0.259736,3.81212 1.134298,5.21156 0.237291,-0.0263 0.486569,-0.0982 0.760677,-0.19792 0.111213,-0.0404 0.182108,-0.14967 0.173633,-0.26768 l -0.484209,-6.84351 c -0.0049,-0.0635 -0.03264,-0.12319 -0.07803,-0.16795 -0.214416,-0.21442 -0.445788,-0.39318 -0.685228,-0.53175 -0.544101,0.85653 -0.750632,1.71433 -0.821141,2.79725 z"
         sodipodi:nodetypes="cccccccc" />
      <path
         id="path192971"
         style="fill:#b01d47;fill-opacity:1;stroke-width:0.800264;stroke-linecap:round;stroke-linejoin:round"
         d="m 37.482985,288.4093 c -0.239906,0.13868 -0.471459,0.31747 -0.686263,0.53227 -0.04463,0.0451 -0.0716,0.10467 -0.07597,0.16795 l -0.484209,6.84351 c -0.0088,0.11747 0.06117,0.22659 0.171567,0.26768 0.274301,0.0998 0.524722,0.17171 0.762743,0.19792 0.874631,-1.39973 1.238811,-3.41175 1.131713,-5.21156 -0.09029,-1.21605 -0.289194,-1.97396 -0.819581,-2.79777 z"
         sodipodi:nodetypes="cccccccc" />
      <path
         style="color:#000000;fill:#dc1c4b;fill-opacity:1;stroke-width:0.800264;stroke-linecap:round;stroke-linejoin:round;-inkscape-stroke:none"
         d="m 35.529297,287.88672 c -0.728027,0 -1.294628,0.43084 -1.648438,1.04883 -0.35381,0.61798 -0.533825,1.42698 -0.585937,2.30273 -0.104224,1.75151 0.298753,3.76771 1.130859,5.01367 0.24897,0.3728 0.684003,0.53907 1.103516,0.53907 0.419512,0 0.856499,-0.16627 1.105469,-0.53907 0.832107,-1.24596 1.233129,-3.26216 1.128906,-5.01367 -0.05211,-0.87575 -0.230175,-1.68475 -0.583985,-2.30273 -0.353809,-0.61799 -0.922364,-1.04883 -1.65039,-1.04883 z"
         id="path9705" />
      <path
         style="color:#000000;fill:#f0517a;fill-opacity:1;stroke-width:0.800264;stroke-linecap:round;stroke-linejoin:round;-inkscape-stroke:none"
         d="m 32.023437,289.23633 a 0.2645835,0.2645835 0 0 0 -0.353515,0.125 c -0.03015,0.0625 -0.05716,0.12699 -0.08203,0.19531 a 0.2645835,0.2645835 0 0 0 0.158203,0.33984 0.2645835,0.2645835 0 0 0 0.33789,-0.1582 c 0.01909,-0.0524 0.04037,-0.10256 0.0625,-0.14844 a 0.2645835,0.2645835 0 0 0 -0.123048,-0.35351 z m -0.332031,1.02344 a 0.2645835,0.2645835 0 0 0 -0.271484,0.25781 c -0.02116,0.82982 0.198096,1.71373 0.412109,2.39258 a 0.2645835,0.2645835 0 0 0 0.330078,0.17187 0.2645835,0.2645835 0 0 0 0.173828,-0.33203 c -0.204789,-0.64959 -0.405204,-1.49364 -0.386718,-2.21875 a 0.2645835,0.2645835 0 0 0 -0.257813,-0.27148 z"
         id="path11786" />
      <path
         id="path216860"
         style="color:#000000;fill:#801231;fill-opacity:1;stroke-width:0.800264;stroke-linecap:round;stroke-linejoin:round;-inkscape-stroke:none"
         d="m 40.201681,287.96385 c 0.10001,1.07212 0.368607,2.13708 0.790134,2.98277 0.04643,-0.40977 0.05273,-0.78983 0.0181,-1.1436 -0.07215,-0.73685 -0.340794,-1.3888 -0.80822,-1.83917 z" />
    </g>
  </g>
</svg>
