<?xml version="1.0" encoding="UTF-8" standalone="no"?>
<!-- Created with Inkscape (http://www.inkscape.org/) -->

<svg
   width="64pt"
   height="64pt"
   viewBox="0 0 22.577778 22.577778"
   version="1.1"
   id="svg831"
   inkscape:version="1.1.1 (3bf5ae0d25, 2021-09-20)"
   sodipodi:docname="Ex.svg"
   inkscape:export-filename="C:\Users\User\Desktop\CARLOS PROJECT\4. APRIL 1\Done\20 - Bitter Gourd.png"
   inkscape:export-xdpi="576"
   inkscape:export-ydpi="576"
   xmlns:inkscape="http://www.inkscape.org/namespaces/inkscape"
   xmlns:sodipodi="http://sodipodi.sourceforge.net/DTD/sodipodi-0.dtd"
   xmlns="http://www.w3.org/2000/svg"
   xmlns:svg="http://www.w3.org/2000/svg"
   xmlns:rdf="http://www.w3.org/1999/02/22-rdf-syntax-ns#"
   xmlns:cc="http://creativecommons.org/ns#"
   xmlns:dc="http://purl.org/dc/elements/1.1/">
  <defs
     id="defs825">
    <pattern
       id="EMFhbasepattern"
       patternUnits="userSpaceOnUse"
       width="6"
       height="6"
       x="0"
       y="0" />
    <pattern
       id="EMFhbasepattern-9"
       patternUnits="userSpaceOnUse"
       width="6"
       height="6"
       x="0"
       y="0" />
    <pattern
       id="EMFhbasepattern-0"
       patternUnits="userSpaceOnUse"
       width="6"
       height="6"
       x="0"
       y="0" />
    <pattern
       id="EMFhbasepattern-7"
       patternUnits="userSpaceOnUse"
       width="6"
       height="6"
       x="0"
       y="0" />
    <pattern
       id="EMFhbasepattern-2"
       patternUnits="userSpaceOnUse"
       width="6"
       height="6"
       x="0"
       y="0" />
    <pattern
       id="EMFhbasepattern-98"
       patternUnits="userSpaceOnUse"
       width="6"
       height="6"
       x="0"
       y="0" />
    <pattern
       id="EMFhbasepattern-6"
       patternUnits="userSpaceOnUse"
       width="6"
       height="6"
       x="0"
       y="0" />
    <pattern
       id="EMFhbasepattern-01"
       patternUnits="userSpaceOnUse"
       width="6"
       height="6"
       x="0"
       y="0" />
    <pattern
       id="EMFhbasepattern-07"
       patternUnits="userSpaceOnUse"
       width="6"
       height="6"
       x="0"
       y="0" />
    <pattern
       id="EMFhbasepattern-8"
       patternUnits="userSpaceOnUse"
       width="6"
       height="6"
       x="0"
       y="0" />
    <pattern
       id="EMFhbasepattern-4"
       patternUnits="userSpaceOnUse"
       width="6"
       height="6"
       x="0"
       y="0" />
    <pattern
       id="EMFhbasepattern-40"
       patternUnits="userSpaceOnUse"
       width="6"
       height="6"
       x="0"
       y="0" />
    <pattern
       id="EMFhbasepattern-08"
       patternUnits="userSpaceOnUse"
       width="6"
       height="6"
       x="0"
       y="0" />
    <pattern
       id="EMFhbasepattern-04"
       patternUnits="userSpaceOnUse"
       width="6"
       height="6"
       x="0"
       y="0" />
    <pattern
       id="EMFhbasepattern-014"
       patternUnits="userSpaceOnUse"
       width="6"
       height="6"
       x="0"
       y="0" />
    <pattern
       id="EMFhbasepattern-27"
       patternUnits="userSpaceOnUse"
       width="6"
       height="6"
       x="0"
       y="0" />
    <pattern
       id="EMFhbasepattern-09"
       patternUnits="userSpaceOnUse"
       width="6"
       height="6"
       x="0"
       y="0" />
    <pattern
       id="EMFhbasepattern-5"
       patternUnits="userSpaceOnUse"
       width="6"
       height="6"
       x="0"
       y="0" />
    <pattern
       id="EMFhbasepattern-018"
       patternUnits="userSpaceOnUse"
       width="6"
       height="6"
       x="0"
       y="0" />
  </defs>
  <sodipodi:namedview
     id="base"
     pagecolor="#ffffff"
     bordercolor="#666666"
     borderopacity="1.0"
     inkscape:pageopacity="0.0"
     inkscape:pageshadow="2"
     inkscape:zoom="6.4882571"
     inkscape:cx="31.749667"
     inkscape:cy="42.615451"
     inkscape:document-units="pt"
     inkscape:current-layer="layer1"
     showgrid="false"
     units="pt"
     inkscape:window-width="1920"
     inkscape:window-height="1001"
     inkscape:window-x="-9"
     inkscape:window-y="-9"
     inkscape:window-maximized="1"
     inkscape:pagecheckerboard="true"
     inkscape:showpageshadow="false"
     inkscape:object-paths="true"
     inkscape:snap-intersection-paths="true"
     inkscape:snap-smooth-nodes="true"
     inkscape:snap-midpoints="true"
     showguides="true"
     inkscape:snap-bbox="true"
     inkscape:bbox-nodes="true"
     inkscape:snap-nodes="false"
     inkscape:snap-global="true"
     inkscape:lockguides="true">
    <inkscape:grid
       type="xygrid"
       id="grid1378" />
    <sodipodi:guide
       position="0.97013831,21.607643"
       orientation="78.000048,0"
       id="guide1380"
       inkscape:locked="true" />
    <sodipodi:guide
       position="0.97013831,0.97013129"
       orientation="0,78.000005"
       id="guide1382"
       inkscape:locked="true" />
    <sodipodi:guide
       position="21.607639,0.97013129"
       orientation="-78.000048,0"
       id="guide1384"
       inkscape:locked="true" />
    <sodipodi:guide
       position="21.607639,21.607643"
       orientation="0,-78.000005"
       id="guide1386"
       inkscape:locked="true" />
  </sodipodi:namedview>
  <metadata
     id="metadata828">
    <rdf:RDF>
      <cc:Work
         rdf:about="">
        <dc:format>image/svg+xml</dc:format>
        <dc:type
           rdf:resource="http://purl.org/dc/dcmitype/StillImage" />
      </cc:Work>
    </rdf:RDF>
  </metadata>
  <g
     inkscape:label="Icon"
     inkscape:groupmode="layer"
     id="layer1"
     transform="translate(0,-274.42223)">
    <g
       id="g98106"
       style="display:inline;stroke-width:0.80118"
       transform="matrix(1.2481583,0,0,1.2481583,76.849027,-36.350774)">
      <path
         style="color:#000000;fill:#50b86b;fill-opacity:1;stroke-width:0.80118;stroke-linecap:round;stroke-linejoin:round;-inkscape-stroke:none"
         d="m -53.489685,253.38322 0.207664,-0.78776 c 0.297331,-1.06993 0.912697,-2.15497 2.211753,-2.80448 0.04093,-0.0209 0.08652,-0.0299 0.132292,-0.0279 l -5.2e-5,-5.4e-4 c 0.0304,0.002 0.06029,0.008 0.08837,0.0202 0.07063,0.03 0.124742,0.0893 0.148312,0.16226 l 0.529166,1.58802 c 0.04365,0.13232 -0.02279,0.27584 -0.151929,0.32814 -0.695849,0.30422 -0.888297,0.75244 -1.134258,1.48624 z"
         id="path65645"
         sodipodi:nodetypes="ccccccccccc" />
      <path
         id="path194103"
         style="color:#000000;fill:#349951;fill-opacity:1;stroke-width:0.80118;stroke-linecap:round;stroke-linejoin:round;-inkscape-stroke:none"
         d="m -51.458363,253.34696 c 0.245962,-0.7338 0.438449,-1.182 1.134298,-1.48622 0.129138,-0.0523 0.195577,-0.19582 0.151929,-0.32814 l -0.529167,-1.58802 c -0.08657,-0.22124 -0.275292,-0.19614 -0.368965,-0.15359 -0.0636,0.0318 -0.125674,0.0643 -0.186036,0.0982 0.197008,0.5359 0.372819,1.09704 0.555016,1.64381 0.04365,0.13232 -0.02278,0.27585 -0.151929,0.32815 -0.695849,0.30422 -0.888336,0.75241 -1.134298,1.48621 z"
         sodipodi:nodetypes="cccccccccc" />
      <path
         style="color:#000000;fill:#e51c19;stroke-width:0.80118;stroke-linecap:round;stroke-linejoin:round;-inkscape-stroke:none"
         d="m -58.058594,254.45507 c -1.056243,1.25381 -1.69336,2.86096 -1.693359,4.6289 2e-6,3.98077 3.232125,7.2129 7.212891,7.21289 3.980765,0 7.212888,-3.23212 7.21289,-7.21289 10e-7,-1.75043 -0.621313,-3.40965 -1.662109,-4.66211 z"
         id="path12357"
         sodipodi:nodetypes="cssscc" />
      <path
         id="path61605"
         style="color:#000000;fill:#c00f0c;fill-opacity:1;stroke-width:0.80118;stroke-linecap:round;stroke-linejoin:round;-inkscape-stroke:none"
         d="m -46.992483,254.45521 c 1.056244,1.25381 1.69344,2.86072 1.693437,4.62866 0,3.98077 -3.232229,7.21301 -7.212994,7.213 -0.178017,0 -0.35437,-0.007 -0.529167,-0.0196 3.734253,-0.27118 6.683828,-3.39045 6.683828,-7.19336 2e-6,-1.76794 -0.637194,-3.37485 -1.693437,-4.62866 z"
         sodipodi:nodetypes="csscscc" />
      <path
         id="path62979"
         style="fill:#c00f0c;fill-opacity:1;stroke-width:0.80118;stroke-linecap:round;stroke-linejoin:round"
         d="m -58.058472,254.45521 c -0.236207,0.28039 -0.451525,0.57836 -0.643372,0.89194 0.3089,0.32597 0.693146,0.50678 1.076937,0.62731 -0.04695,0.66004 0.199342,1.24292 0.571766,1.61944 0.243536,0.24472 0.75105,0.3327 1.125321,0.32604 0.66356,-0.007 1.217836,-0.28533 1.758032,-0.53898 0.275085,0.43421 0.641033,0.86527 1.064867,1.02705 0.423834,0.16177 0.708314,0.16177 1.134546,-9.1e-4 0.426231,-0.16269 0.795015,-0.59816 1.070221,-1.03596 0.548536,0.30021 1.166039,0.52661 1.736328,0.54673 0.383816,0.0111 0.894636,-0.0783 1.287262,-0.47077 v -5.3e-4 -5.3e-4 -5.3e-4 -5.2e-4 c 0.349621,-0.39489 0.445695,-1.0031 0.423746,-1.47072 0.418117,-0.11904 0.859456,-0.37964 1.09864,-0.65263 -0.188878,-0.31809 -0.400756,-0.61944 -0.634069,-0.9002 z"
         sodipodi:nodetypes="ccccccccccccccccccc" />
      <path
         style="color:#000000;fill:#50b86b;fill-opacity:1;stroke-width:0.80118;stroke-linecap:round;stroke-linejoin:round;-inkscape-stroke:none"
         d="m -54.806476,252.46472 c -1.072121,0.13329 -2.150664,0.4202 -2.958991,1.08985 -0.338073,0.26199 -0.451281,0.58207 -0.460959,0.94155 0.09087,0.33913 0.397579,0.52474 0.737939,0.64854 0.247232,0.0899 0.532876,0.15068 0.83561,0.19172 -5.29e-4,0.002 -0.0011,0.003 -0.0016,0.005 -0.151722,0.45619 -0.214373,0.95777 0.0065,1.32091 0.220837,0.36313 0.463857,0.41608 0.704625,0.4118 0.770312,-0.0646 1.51738,-0.43391 2.134235,-0.78599 0.05037,0.12969 0.105844,0.25841 0.168466,0.38343 0.215291,0.42986 0.52629,0.82848 1.101482,0.82848 0.575193,0 0.886195,-0.39862 1.101484,-0.82848 0.06596,-0.13168 0.124266,-0.26742 0.176733,-0.40411 0.696101,0.3533 1.372197,0.7798 2.120284,0.80667 0.242543,0.007 0.488254,-0.047 0.709947,-0.41097 0.221694,-0.36397 0.158525,-0.86555 0.0068,-1.32174 -5.29e-4,-0.002 -0.0011,-0.003 -0.0016,-0.005 0.302948,-0.041 0.588219,-0.10224 0.835607,-0.19223 0.340363,-0.1238 0.647589,-0.30941 0.738458,-0.64854 0.05643,-0.39287 -0.169026,-0.64405 -0.398428,-0.88677 -0.785142,-0.62388 -1.748325,-0.97141 -2.664436,-1.10536 -0.385935,-0.0776 -1.66326,-0.028 -2.634646,0.49939 -0.521724,-0.54079 -1.754058,-0.62182 -2.257516,-0.53815 z"
         id="rect5124"
         sodipodi:nodetypes="cccccccccccscccccscccccc" />
      <path
         id="path72403"
         style="color:#000000;fill:#349951;fill-opacity:1;stroke-width:0.80118;stroke-linecap:round;stroke-linejoin:round;-inkscape-stroke:none"
         d="m -54.806476,252.46472 c -1.072121,0.13329 -2.150665,0.4202 -2.958992,1.08985 -0.156625,0.1321 -0.283646,0.2696 -0.371038,0.4222 -0.08739,0.15261 -0.138901,0.33653 -0.08992,0.51935 0.03862,0.14413 0.116501,0.26034 0.219109,0.35605 0.06933,-0.0829 0.150273,-0.16203 0.241845,-0.23926 0.880783,-0.65319 1.946939,-1.00641 2.958992,-1.08986 0.50346,-0.0837 1.736019,-0.003 2.257743,0.53795 0.971388,-0.52739 2.248529,-0.57679 2.634466,-0.49919 0.96953,0.18739 1.945568,0.46837 2.664437,1.10536 0.06653,0.06 0.12673,0.12085 0.179834,0.18396 0.102315,-0.0956 0.18007,-0.21177 0.218591,-0.35553 0.04573,-0.17068 0.0039,-0.34357 -0.07235,-0.48834 -0.07631,-0.14476 -0.187564,-0.27347 -0.326078,-0.39843 -0.785147,-0.62387 -1.748328,-0.97141 -2.664437,-1.10536 -0.385937,-0.0776 -1.663078,-0.0282 -2.634466,0.4992 -0.671729,-0.49293 -1.483011,-0.61434 -2.257736,-0.53795 z"
         sodipodi:nodetypes="ccsscccccccsccccc" />
      <path
         style="color:#000000;fill:#f4504c;stroke-width:0.80118;stroke-linecap:round;stroke-linejoin:round;-inkscape-stroke:none"
         d="m -57.875304,256.73438 c -0.528028,0.88832 -0.634817,2.02206 -0.457031,3.09571 0.177786,1.07365 0.64347,2.08031 1.191406,2.68164 0.09788,0.10797 0.09002,0.27476 -0.01758,0.37305 -0.107976,0.0979 -0.274765,0.09 -0.373047,-0.0176 -0.642133,-0.70471 -1.129252,-1.78361 -1.322265,-2.94922 -0.193014,-1.16561 -0.08863,-2.42342 0.523437,-3.45313 0.103652,-0.14805 0.239504,-0.1557 0.364314,-0.0873 0.12481,0.0684 0.165952,0.23124 0.09077,0.35687 z m 2.392575,7.36132 c 0.119371,0.0833 0.149045,0.24736 0.06641,0.36719 -0.08329,0.11937 -0.247364,0.14904 -0.367188,0.0664 -0.222423,-0.15404 -0.438295,-0.31928 -0.644531,-0.4961 -0.11051,-0.0955 -0.122748,-0.26246 -0.02734,-0.37304 0.09492,-0.11111 0.261944,-0.12423 0.373047,-0.0293 z"
         id="path193941"
         sodipodi:nodetypes="cscccscccccccccc" />
    </g>
  </g>
</svg>
