<?xml version="1.0" encoding="utf-8"?>
<!-- Generator: Adobe Illustrator 16.0.0, SVG Export Plug-In . SVG Version: 6.00 Build 0)  -->
<!DOCTYPE svg PUBLIC "-//W3C//DTD SVG 1.1//EN" "http://www.w3.org/Graphics/SVG/1.1/DTD/svg11.dtd">
<svg version="1.1" id="Layer_1" xmlns="http://www.w3.org/2000/svg" xmlns:xlink="http://www.w3.org/1999/xlink" x="0px" y="0px"
	 width="66px" height="66px" viewBox="0 0 66 66" enable-background="new 0 0 66 66" xml:space="preserve">
<g>
	<g>
		<g>
			<path fill="#E57A1A" d="M49.321,19.938c0,6.294-7.309,13.396-16.32,13.396c-9.014,0-16.322-7.102-16.322-13.396
				S23.987,6.541,33.001,6.541C42.013,6.541,49.321,13.644,49.321,19.938z"/>
			<path fill="#C4570C" d="M49.321,19.938c0,6.294-7.309,13.396-16.32,13.396c-9.014,0-16.322-7.102-16.322-13.396"/>
			<g>
				<path fill="#E57A1A" d="M14.86,19.699c-0.004-0.013-0.012-0.023-0.016-0.035c0.438-2.093-1.334-4.682-4.295-6.067
					c-3.275-1.531-6.754-1.011-7.771,1.166c-0.693,1.479-0.068,3.343,1.434,4.867c-1.488,1.354-2.193,3.062-1.66,4.532
					c0.818,2.259,4.236,3.092,7.635,1.859C13.587,24.789,15.679,21.961,14.86,19.699z"/>
				<path fill="#C4570C" d="M4.212,19.63c-1.488,1.354-2.193,3.062-1.66,4.532c0.818,2.259,4.236,3.092,7.635,1.859
					c3.4-1.232,5.492-4.061,4.674-6.322c-0.004-0.013-0.012-0.023-0.016-0.035"/>
				<path fill="#E57A1A" d="M51.14,19.611c0.004,0.014,0.01,0.024,0.016,0.037c-0.439,2.094,1.334,4.682,4.293,6.065
					c3.275,1.533,6.754,1.012,7.773-1.164c0.693-1.479,0.068-3.343-1.434-4.867c1.49-1.354,2.193-3.062,1.66-4.533
					c-0.818-2.258-4.238-3.093-7.635-1.859C52.411,14.522,50.319,17.352,51.14,19.611z"/>
				<path fill="#C4570C" d="M51.14,19.611c0.004,0.014,0.01,0.024,0.016,0.037c-0.439,2.094,1.334,4.682,4.293,6.065
					c3.275,1.533,6.754,1.012,7.773-1.164c0.693-1.479,0.068-3.343-1.434-4.867"/>
			</g>
		</g>
		<g>
			<path fill="#06718E" d="M18.376,15.076l-0.391,0.391c-0.84,1.373-1.307,2.883-1.307,4.471s0.467,3.099,1.307,4.472l0.391,0.39
				l2.438-2.438l-2.424-2.424l2.424-2.424L18.376,15.076z"/>
			<polygon fill="#673BAD" points="25.688,17.514 23.251,15.076 20.813,17.514 23.237,19.938 20.813,22.361 23.251,24.799 
				25.688,22.361 23.265,19.938 			"/>
			<polygon fill="#06718E" points="30.563,17.514 28.126,15.076 25.688,17.514 28.112,19.938 25.688,22.361 28.126,24.799 
				30.563,22.361 28.14,19.938 			"/>
			<polygon fill="#673BAD" points="35.438,17.514 33.001,15.076 30.563,17.514 32.987,19.938 30.563,22.361 33.001,24.799 
				35.438,22.361 33.015,19.938 			"/>
			<polygon fill="#06718E" points="40.313,17.514 37.876,15.076 35.438,17.514 37.862,19.938 35.438,22.361 37.876,24.799 
				40.313,22.361 37.89,19.938 			"/>
			<polygon fill="#673BAD" points="45.188,17.514 42.751,15.076 40.313,17.514 42.737,19.938 40.313,22.361 42.751,24.799 
				45.188,22.361 42.765,19.938 			"/>
			<path fill="#06718E" d="M48.009,15.46l-0.383-0.384l-2.438,2.438l2.424,2.424l-2.424,2.424l2.438,2.438l0.383-0.384
				c0.844-1.375,1.312-2.888,1.312-4.478S48.853,16.835,48.009,15.46z"/>
		</g>
		<g>
			<path fill="#06718E" d="M18.376,15.076l-0.391,0.391c-0.84,1.373-1.307,2.883-1.307,4.471s0.467,3.099,1.307,4.472l0.391,0.39
				l2.438-2.438l-2.424-2.424l2.424-2.424L18.376,15.076z"/>
			<polygon fill="#673BAD" points="25.688,17.514 23.251,15.076 20.813,17.514 23.237,19.938 20.813,22.361 23.251,24.799 
				25.688,22.361 23.265,19.938 			"/>
			<polygon fill="#06718E" points="30.563,17.514 28.126,15.076 25.688,17.514 28.112,19.938 25.688,22.361 28.126,24.799 
				30.563,22.361 28.14,19.938 			"/>
			<polygon fill="#673BAD" points="35.438,17.514 33.001,15.076 30.563,17.514 32.987,19.938 30.563,22.361 33.001,24.799 
				35.438,22.361 33.015,19.938 			"/>
			<polygon fill="#06718E" points="40.313,17.514 37.876,15.076 35.438,17.514 37.862,19.938 35.438,22.361 37.876,24.799 
				40.313,22.361 37.89,19.938 			"/>
			<polygon fill="#673BAD" points="45.188,17.514 42.751,15.076 40.313,17.514 42.737,19.938 40.313,22.361 42.751,24.799 
				45.188,22.361 42.765,19.938 			"/>
			<path fill="#06718E" d="M48.009,15.46l-0.383-0.384l-2.438,2.438l2.424,2.424l-2.424,2.424l2.438,2.438l0.383-0.384
				c0.844-1.375,1.312-2.888,1.312-4.478S48.853,16.835,48.009,15.46z"/>
		</g>
		<ellipse fill="#F78C34" cx="33.001" cy="11.291" rx="7.312" ry="3.5"/>
	</g>
	<g>
		<g>
			<g>
				<path fill="#13C2EA" d="M10.075,43.59c-2.256-2.297-4.84-3.34-5.764-2.322c-0.416,0.457-0.408,1.262-0.086,2.207
					c-0.99,0.029-1.727,0.326-1.977,0.922c-0.275,0.656,0.078,1.531,0.869,2.41c-1.199,0.469-1.961,1.158-1.961,1.928
					s0.762,1.459,1.961,1.928c-0.791,0.877-1.145,1.752-0.869,2.408c0.25,0.596,0.986,0.893,1.977,0.922
					c-0.322,0.947-0.33,1.75,0.086,2.209c0.924,1.016,3.508-0.025,5.764-2.322c1.783-1.816,2.814-3.859,2.719-5.145
					C12.89,47.449,11.858,45.404,10.075,43.59z"/>
				<path fill="#059ECE" d="M1.157,48.734c0,0.77,0.762,1.459,1.961,1.928c-0.791,0.877-1.145,1.752-0.869,2.408
					c0.25,0.596,0.986,0.893,1.977,0.922c-0.322,0.947-0.33,1.75,0.086,2.209c0.924,1.016,3.508-0.025,5.764-2.322
					c1.783-1.816,2.814-3.859,2.719-5.145"/>
				<path fill="#86DBF2" d="M10.53,45.287c-0.174,0.273-1.467-0.326-2.885-1.336c-1.422-1.01-2.434-2.051-2.26-2.322
					c0.176-0.273,1.467,0.324,2.887,1.334C9.694,43.975,10.704,45.014,10.53,45.287z"/>
				<path fill="#86DBF2" d="M8.062,46.363c-0.07,0.217-1.146,0.025-2.4-0.428c-1.256-0.453-2.217-0.994-2.146-1.211
					c0.07-0.219,1.143-0.025,2.4,0.426C7.167,45.604,8.13,46.146,8.062,46.363z"/>
			</g>
			<g>
				<path fill="#13C2EA" d="M55.923,43.59c2.258-2.297,4.838-3.34,5.762-2.322c0.418,0.457,0.41,1.262,0.09,2.207
					c0.988,0.029,1.725,0.326,1.975,0.922c0.275,0.656-0.078,1.531-0.867,2.41c1.199,0.469,1.961,1.158,1.961,1.928
					s-0.762,1.459-1.961,1.928c0.789,0.877,1.143,1.752,0.867,2.408c-0.25,0.596-0.986,0.893-1.975,0.922
					c0.32,0.947,0.328,1.75-0.09,2.209c-0.924,1.016-3.504-0.025-5.762-2.322c-1.785-1.816-2.814-3.859-2.721-5.145
					C53.108,47.449,54.138,45.404,55.923,43.59z"/>
				<path fill="#059ECE" d="M64.843,48.734c0,0.77-0.762,1.459-1.961,1.928c0.789,0.877,1.143,1.752,0.867,2.408
					c-0.25,0.596-0.986,0.893-1.975,0.922c0.32,0.947,0.328,1.75-0.09,2.209c-0.924,1.016-3.504-0.025-5.762-2.322
					c-1.785-1.816-2.814-3.859-2.721-5.145"/>
				<path fill="#86DBF2" d="M55.468,45.287c0.174,0.273,1.465-0.326,2.887-1.336c1.418-1.01,2.43-2.051,2.256-2.322
					c-0.174-0.273-1.467,0.324-2.887,1.334C56.306,43.975,55.294,45.014,55.468,45.287z"/>
				<path fill="#86DBF2" d="M57.938,46.363c0.07,0.217,1.143,0.025,2.398-0.428c1.254-0.453,2.217-0.994,2.146-1.211
					c-0.07-0.219-1.143-0.025-2.4,0.426C58.831,45.604,57.868,46.146,57.938,46.363z"/>
			</g>
		</g>
		<g>
			<g>
				<path fill="#CC3BA0" d="M15.571,50.605c0,1.459-1.117,2.641-2.496,2.641l0,0c-1.377,0-2.494-1.182-2.494-2.641v-3.744
					c0-1.457,1.117-2.639,2.494-2.639l0,0c1.379,0,2.496,1.182,2.496,2.639V50.605z"/>
				<path fill="#A0207F" d="M15.571,46.861v3.744c0,1.459-1.117,2.641-2.496,2.641l0,0c-1.377,0-2.494-1.182-2.494-2.641v-3.744"/>
			</g>
			<g>
				<path fill="#CC3BA0" d="M55.417,50.605c0,1.459-1.117,2.641-2.496,2.641l0,0c-1.375,0-2.494-1.182-2.494-2.641v-3.744
					c0-1.457,1.119-2.639,2.494-2.639l0,0c1.379,0,2.496,1.182,2.496,2.639V50.605z"/>
				<path fill="#A0207F" d="M55.417,46.861v3.744c0,1.459-1.117,2.641-2.496,2.641l0,0c-1.375,0-2.494-1.182-2.494-2.641v-3.744"/>
			</g>
		</g>
		<path fill="#13C2EA" d="M52.962,49.244c0,5.641-4.326,10.215-9.66,10.215H22.694c-5.334,0-9.658-4.574-9.658-10.215v-1.021
			c0-5.641,4.324-10.213,9.658-10.213h20.607c5.334,0,9.66,4.572,9.66,10.213V49.244z"/>
		<path fill="#059ECE" d="M52.962,48.223v1.021c0,5.641-4.326,10.215-9.66,10.215H22.694c-5.334,0-9.658-4.574-9.658-10.215v-1.021"
			/>
		<g>
			<g>
				<ellipse fill="#EF73C3" cx="18.512" cy="43.287" rx="1.288" ry="1.361"/>
				<ellipse fill="#EACD6E" cx="24.307" cy="43.287" rx="1.288" ry="1.361"/>
				<path fill="#EF73C3" d="M31.392,43.287c0,0.752-0.58,1.361-1.289,1.361c-0.713,0-1.289-0.609-1.289-1.361
					s0.576-1.363,1.289-1.363C30.812,41.924,31.392,42.535,31.392,43.287z"/>
				<ellipse fill="#EACD6E" cx="35.896" cy="43.287" rx="1.288" ry="1.361"/>
				<ellipse fill="#EF73C3" cx="41.69" cy="43.287" rx="1.289" ry="1.361"/>
				<ellipse fill="#EACD6E" cx="47.486" cy="43.287" rx="1.288" ry="1.361"/>
			</g>
			<g>
				<ellipse fill="#EACD6E" cx="18.512" cy="48.734" rx="1.288" ry="1.361"/>
				<ellipse fill="#EF73C3" cx="24.307" cy="48.734" rx="1.288" ry="1.361"/>
				<path fill="#EACD6E" d="M31.392,48.734c0,0.752-0.58,1.361-1.289,1.361c-0.713,0-1.289-0.609-1.289-1.361
					c0-0.754,0.576-1.361,1.289-1.361C30.812,47.373,31.392,47.98,31.392,48.734z"/>
				<ellipse fill="#EF73C3" cx="35.896" cy="48.734" rx="1.288" ry="1.361"/>
				<ellipse fill="#EACD6E" cx="41.69" cy="48.734" rx="1.289" ry="1.361"/>
				<ellipse fill="#EF73C3" cx="47.486" cy="48.734" rx="1.288" ry="1.361"/>
			</g>
			<g>
				<ellipse fill="#EF73C3" cx="18.512" cy="54.182" rx="1.288" ry="1.361"/>
				<ellipse fill="#EACD6E" cx="24.307" cy="54.182" rx="1.288" ry="1.361"/>
				<path fill="#EF73C3" d="M31.392,54.182c0,0.752-0.58,1.361-1.289,1.361c-0.713,0-1.289-0.609-1.289-1.361
					s0.576-1.363,1.289-1.363C30.812,52.818,31.392,53.43,31.392,54.182z"/>
				<ellipse fill="#EACD6E" cx="35.896" cy="54.182" rx="1.288" ry="1.361"/>
				<ellipse fill="#EF73C3" cx="41.69" cy="54.182" rx="1.289" ry="1.361"/>
				<ellipse fill="#EACD6E" cx="47.486" cy="54.182" rx="1.288" ry="1.361"/>
			</g>
		</g>
	</g>
	<path fill="#86DBF2" d="M44.438,41.604c0,0.381-0.309,0.688-0.688,0.688h-21.5c-0.381,0-0.688-0.307-0.688-0.688l0,0
		c0-0.379,0.307-0.688,0.688-0.688h21.5C44.13,40.916,44.438,41.225,44.438,41.604L44.438,41.604z"/>
</g>
</svg>
