<?xml version="1.0" encoding="utf-8"?>
<!-- Generator: Adobe Illustrator 16.0.0, SVG Export Plug-In . SVG Version: 6.00 Build 0)  -->
<!DOCTYPE svg PUBLIC "-//W3C//DTD SVG 1.1//EN" "http://www.w3.org/Graphics/SVG/1.1/DTD/svg11.dtd">
<svg version="1.1" id="Layer_1" xmlns="http://www.w3.org/2000/svg" xmlns:xlink="http://www.w3.org/1999/xlink" x="0px" y="0px"
	 width="128px" height="128px" viewBox="0 0 128 128" enable-background="new 0 0 128 128" xml:space="preserve">
<g>
	<g>
		<g>
			<path fill="#B0BEC5" d="M15.7,72.3V5.9c0,0,13.8,7,14.4,23.3c0.7,16.3-0.1,22-0.1,22l-9.2,9.2l0,9.5l-4,1.7"/>
			<path fill="#37474F" d="M17.5,73l-0.3-0.6h-3V3.4l2.2,1.1C17,4.8,31,12.1,31.7,29.1c0.7,16.3-0.1,22-0.1,22.2l-0.1,0.5L22.3,61
				l0,9.9L17.5,73z M17.2,8.6v61.2l2.1-0.9l0-9.1l9.3-9.2c0.2-1.7,0.6-7.9,0-21.2C28.2,17.8,21,11.2,17.2,8.6z"/>
		</g>
		<g>
			<path fill="#FFAB00" d="M12.7,76v39.5c0,3.7,2.8,6.7,6.5,6.7c3.7,0,6.5-3,6.5-6.7V76L12.7,76z"/>
			<path fill="#37474F" d="M19.2,123.6c-4.5,0-8-3.6-8-8.2V76c0-0.8,0.7-1.5,1.5-1.5l13,0c0,0,0,0,0,0c0.4,0,0.8,0.2,1.1,0.4
				c0.3,0.3,0.4,0.7,0.4,1.1v39.5C27.2,120,23.7,123.6,19.2,123.6z M14.2,77.5v38c0,2.9,2.2,5.2,5,5.2c2.8,0,5-2.3,5-5.2v-38
				L14.2,77.5z"/>
		</g>
		<g>
			<polygon fill="#FFECB3" points="28.3,77.8 10.2,77.8 10.2,70.3 28.3,70.4 			"/>
			<path fill="#37474F" d="M28.3,79.3C28.3,79.4,28.3,79.4,28.3,79.3H10.2c-0.8,0-1.5-0.7-1.5-1.5l0-7.5c0-0.4,0.2-0.8,0.4-1.1
				s0.7-0.5,1.1-0.4l18.1,0.1c0.8,0,1.5,0.7,1.5,1.5l0,7.2c0,0.1,0,0.2,0,0.2C29.8,78.7,29.2,79.3,28.3,79.3z M11.7,76.3h15.1l0-4.4
				l-15.1-0.1L11.7,76.3z"/>
		</g>
		<g>
			<line fill="#B0BEC5" x1="23.8" y1="23" x2="29.1" y2="28.3"/>
			<path fill="#37474F" d="M29.1,29.8c-0.4,0-0.8-0.1-1.1-0.4L22.7,24c-0.6-0.6-0.6-1.5,0-2.1s1.5-0.6,2.1,0l5.4,5.4
				c0.6,0.6,0.6,1.5,0,2.1C29.9,29.7,29.5,29.8,29.1,29.8z"/>
		</g>
		<g>
			<line fill="#B0BEC5" x1="23.8" y1="30.4" x2="29.1" y2="35.8"/>
			<path fill="#37474F" d="M29.1,37.3c-0.4,0-0.8-0.1-1.1-0.4l-5.4-5.4c-0.6-0.6-0.6-1.5,0-2.1c0.6-0.6,1.5-0.6,2.1,0l5.4,5.4
				c0.6,0.6,0.6,1.5,0,2.1C29.9,37.1,29.5,37.3,29.1,37.3z"/>
		</g>
		<g>
			<line fill="#B0BEC5" x1="23.8" y1="37.8" x2="29.1" y2="43.2"/>
			<path fill="#37474F" d="M29.1,44.7c-0.4,0-0.8-0.1-1.1-0.4l-5.4-5.4c-0.6-0.6-0.6-1.5,0-2.1c0.6-0.6,1.5-0.6,2.1,0l5.4,5.4
				c0.6,0.6,0.6,1.5,0,2.1C29.9,44.6,29.5,44.7,29.1,44.7z"/>
		</g>
		<g>
			<line fill="#B0BEC5" x1="23.8" y1="45.2" x2="29.1" y2="50.6"/>
			<path fill="#37474F" d="M29.1,52.1c-0.4,0-0.8-0.1-1.1-0.4l-5.4-5.4c-0.6-0.6-0.6-1.5,0-2.1c0.6-0.6,1.5-0.6,2.1,0l5.4,5.4
				c0.6,0.6,0.6,1.5,0,2.1C29.9,52,29.5,52.1,29.1,52.1z"/>
		</g>
		<g>
			<g>
				<path fill="#37474F" d="M19.3,88.4c-0.8,0-1.4-0.6-1.4-1.4c0-0.8,0.6-1.4,1.4-1.4c0.8,0,1.4,0.6,1.4,1.4
					C20.7,87.8,20.1,88.4,19.3,88.4z"/>
				<path fill="#37474F" d="M19.3,88.9L19.3,88.9c-1,0-1.9-0.9-1.9-1.9c0-0.5,0.2-1,0.6-1.4c0.7-0.7,2-0.7,2.7,0
					c0.4,0.4,0.6,0.9,0.5,1.4c0,0.5-0.2,0.9-0.5,1.3C20.3,88.7,19.8,88.9,19.3,88.9z M19.3,86.1c-0.2,0-0.5,0.1-0.6,0.3
					c-0.2,0.2-0.3,0.4-0.3,0.7c0,0.5,0.4,0.9,0.9,0.9c0.3,0,0.5-0.1,0.7-0.3c0.2-0.2,0.2-0.4,0.2-0.6c0-0.3-0.1-0.5-0.3-0.7
					C19.7,86.2,19.5,86.1,19.3,86.1z"/>
			</g>
			<g>
				<path fill="#37474F" d="M19.3,98.3c-0.8,0-1.4-0.6-1.4-1.4c0-0.8,0.6-1.4,1.4-1.4c0.8,0,1.4,0.6,1.4,1.4
					C20.7,97.7,20.1,98.3,19.3,98.3z"/>
				<path fill="#37474F" d="M19.2,98.8c-0.5,0-1-0.2-1.4-0.6c-0.4-0.4-0.5-0.8-0.5-1.3c0-1,0.8-1.9,1.9-1.9c1.1,0,1.9,0.9,1.9,1.9
					C21.2,97.9,20.3,98.8,19.2,98.8L19.2,98.8z M19.3,96c-0.5,0-0.9,0.4-0.9,0.9c0,0.2,0.1,0.5,0.2,0.6c0.2,0.2,0.4,0.3,0.6,0.3v0.5
					l0-0.5c0.5,0,0.9-0.4,0.9-0.9C20.2,96.4,19.8,96,19.3,96z"/>
			</g>
			<g>
				<path fill="#37474F" d="M19.3,108.2c-0.8,0-1.4-0.7-1.4-1.4c0-0.8,0.6-1.4,1.4-1.4c0.8,0,1.4,0.7,1.4,1.4
					C20.7,107.5,20.1,108.2,19.3,108.2z"/>
				<path fill="#37474F" d="M19.3,108.7c-1,0-1.9-0.9-1.9-1.9c0-1.1,0.8-1.9,1.9-1.9c0.5,0,1,0.2,1.4,0.6c0.4,0.4,0.6,0.8,0.5,1.3
					c0,0.5-0.2,1-0.5,1.3C20.3,108.5,19.8,108.7,19.3,108.7z M19.3,105.8c-0.5,0-0.9,0.4-0.9,0.9c0,0.5,0.4,0.9,0.9,0.9
					c0.2,0,0.5-0.1,0.6-0.3c0.2-0.2,0.3-0.4,0.3-0.6c0-0.2-0.1-0.5-0.3-0.6C19.7,105.9,19.5,105.8,19.3,105.8L19.3,105.8z"/>
			</g>
		</g>
	</g>
	<g>
		<g>
			<polygon fill="#B0BEC5" points="52.7,74.9 45.7,74.8 45.7,48.3 52.7,48.3 			"/>
			<path fill="#37474F" d="M54.2,76.4l-10,0V46.8l10,0V76.4z M47.2,73.3l4,0V49.8l-4,0V73.3z"/>
		</g>
		<g>
			<g>
				<path fill="#FFAB00" d="M42.8,75.8l0,39.5c0,3.7,2.8,6.7,6.5,6.7c3.7,0,6.4-2.9,6.4-6.6V75.8H42.8z"/>
				<path fill="#37474F" d="M49.3,123.6c-2.1,0-4.1-0.8-5.6-2.3c-1.5-1.6-2.4-3.6-2.4-5.9l0-39.5c0-0.4,0.2-0.8,0.4-1.1
					s0.7-0.4,1.1-0.4h12.9c0.8,0,1.5,0.7,1.5,1.5v39.6C57.2,120,53.7,123.6,49.3,123.6z M44.3,77.3l0,38c0,1.5,0.5,2.8,1.5,3.8
					c0.9,0.9,2.1,1.4,3.5,1.4c2.8,0,4.9-2.2,4.9-5.1V77.3H44.3z"/>
			</g>
			<g>
				<polygon fill="#FFECB3" points="58.7,77.8 40.7,77.8 40.7,70.1 58.7,70.1 				"/>
				<path fill="#37474F" d="M58.7,79.3h-18c-0.8,0-1.5-0.7-1.5-1.5v-7.8c0-0.4,0.2-0.8,0.4-1.1s0.7-0.4,1.1-0.4h0l18,0
					c0.8,0,1.5,0.7,1.5,1.5v7.7C60.2,78.7,59.6,79.3,58.7,79.3z M42.2,76.3h15v-4.7l-15,0V76.3z"/>
			</g>
			<g>
				<g>
					<path fill="#37474F" d="M49.5,88.4c-0.8,0-1.4-0.6-1.4-1.4c0-0.8,0.6-1.4,1.4-1.4c0.8,0,1.4,0.6,1.4,1.4
						C50.9,87.8,50.3,88.4,49.5,88.4z"/>
					<path fill="#37474F" d="M49.5,88.9L49.5,88.9c-1,0-1.9-0.8-1.9-1.9c0-0.5,0.2-1,0.5-1.4c0.7-0.7,2-0.7,2.7,0
						c0.4,0.4,0.5,0.8,0.5,1.4c0,0.5-0.2,0.9-0.5,1.3C50.5,88.7,50,88.9,49.5,88.9z M49.5,86.1c-0.3,0-0.5,0.1-0.7,0.3
						c-0.2,0.2-0.3,0.4-0.3,0.6c0,0.5,0.4,0.9,0.9,0.9c0.2,0,0.5-0.1,0.7-0.3c0.2-0.2,0.2-0.4,0.2-0.6c0-0.3-0.1-0.5-0.3-0.7
						C50,86.2,49.7,86.1,49.5,86.1L49.5,86.1z"/>
				</g>
				<g>
					<path fill="#37474F" d="M49.5,98.3c-0.8,0-1.4-0.6-1.4-1.4c0-0.8,0.6-1.4,1.4-1.4c0.8,0,1.4,0.7,1.4,1.4
						C50.9,97.7,50.3,98.3,49.5,98.3z"/>
					<path fill="#37474F" d="M49.4,98.8c-0.5,0-1-0.2-1.3-0.6s-0.5-0.8-0.5-1.3c0-1.1,0.8-1.9,1.9-1.9c1,0,1.9,0.9,1.9,1.9
						C51.4,98,50.5,98.8,49.4,98.8L49.4,98.8z M49.5,96c-0.5,0-0.9,0.4-0.9,0.9c0,0.3,0.1,0.5,0.2,0.6c0.2,0.2,0.4,0.3,0.6,0.3v0.5
						l0-0.5c0.5,0,0.9-0.4,0.9-0.9C50.4,96.4,50,96,49.5,96z"/>
				</g>
				<g>
					<path fill="#37474F" d="M49.5,108.2c-0.8,0-1.4-0.7-1.4-1.4c0-0.8,0.6-1.4,1.4-1.4c0.8,0,1.4,0.7,1.4,1.4
						C50.9,107.5,50.3,108.2,49.5,108.2z"/>
					<path fill="#37474F" d="M49.5,108.7c-1,0-1.9-0.9-1.9-1.9c0-1.1,0.9-1.9,1.9-1.9c0.5,0,1,0.2,1.4,0.6c0.4,0.4,0.6,0.8,0.5,1.4
						c0,0.5-0.2,1-0.6,1.4C50.5,108.5,50,108.7,49.5,108.7z M49.5,105.8c-0.5,0-0.9,0.4-0.9,0.9c0,0.5,0.4,0.9,0.9,0.9
						c0.2,0,0.5-0.1,0.6-0.3c0.2-0.2,0.3-0.4,0.3-0.7c0-0.3-0.1-0.5-0.3-0.7C50,105.9,49.7,105.8,49.5,105.8z"/>
				</g>
			</g>
		</g>
		<g>
			<path fill="#B0BEC5" d="M58.7,11.1c0-1.1-1.2-2.1-2.4-2.1c-1.1,0-2.6,0.9-2.6,2.1v19.8h-2V11.1c0-1.1-1.5-2.1-2.6-2.1
				c-1.1,0-2.3,0.7-2.4,2.1v19.8h-2V11.1C44.7,9.5,43.2,9,42,9c-1.1,0-2.3,0.9-2.3,2.1v26.8c0,0.2,0,0.3,0,0.5v7.9c0,2,2,3.6,4,3.6
				h11.5c2,0,3.6-1.6,3.6-3.6l-0.1-8c0-0.2,0-0.3,0-0.5V11.1z"/>
			<path fill="#37474F" d="M55.2,51.3H43.7c-2.9,0-5.5-2.4-5.5-5.1V11.1c0-1.9,1.8-3.6,3.8-3.6c1.5,0,3,0.6,3.7,1.8
				c0.7-1.2,2.1-1.8,3.4-1.8c1.4,0,2.8,0.8,3.6,1.9c0.8-1.2,2.2-1.9,3.6-1.9c1.8,0,3.9,1.5,3.9,3.6v26.8c0,0.2,0,0.4,0,0.6l0.1,7.8
				C60.3,49.1,58.1,51.3,55.2,51.3z M42,10.5c-0.4,0-0.8,0.3-0.8,0.6v35.2c0,1.1,1.2,2.1,2.5,2.1h11.5c1.2,0,2.1-0.9,2.1-2.1l-0.1-8
				l0-0.1c0-0.1,0-0.2,0-0.3V11.1c0-0.2-0.4-0.6-0.9-0.6c-0.5,0-1.1,0.4-1.1,0.6l0,21.3h-5V11.1c-0.1-0.2-0.7-0.6-1.1-0.6
				c-0.3,0-0.9,0.1-0.9,0.7l0,21.2h-5V11.1C43.2,10.5,42,10.5,42,10.5z"/>
		</g>
	</g>
	<g>
		<g>
			<path fill="#FFFFFF" d="M83.7,92.8v-78l0,0c-0.5-3-3.2-5-6.1-5h-6c-3.3,0-6,2.7-6,6c0,3.3,2.7,6,6,6h6.1v76l0,0
				c1.7,14,10.1,19.8,20.1,19.8c11.2,0,19.7-8.8,19.8-24.8H83.7z"/>
			<path fill="#37474F" d="M97.8,119.2c-12.1,0-20-7.7-21.6-21.2c0-0.1,0-0.1,0-0.2V23.3h-4.6c-4.1,0-7.5-3.4-7.5-7.5
				c0-4.1,3.3-7.5,7.5-7.5h6c3.8,0,7,2.6,7.6,6.3c0,0.1,0,0.2,0,0.2v76.5h32.4c0.4,0,0.8,0.2,1.1,0.4s0.4,0.7,0.4,1.1
				C119.1,108.9,110.7,119.2,97.8,119.2z M79.2,97.8c2,16,12.5,18.4,18.6,18.4c10.7,0,17.7-8.5,18.3-21.8H83.7
				c-0.8,0-1.5-0.7-1.5-1.5V15c-0.4-2.1-2.3-3.6-4.6-3.6h-6c-2.5,0-4.5,2-4.5,4.5c0,2.5,2,4.5,4.5,4.5h6.1c0.8,0,1.5,0.7,1.5,1.5
				V97.8z"/>
		</g>
		<g>
			<path fill="#B0BEC5" d="M83.7,92.8c0,2.6,8.2,5.1,17.4,5.1c9.2,0,16.6-2.1,16.6-4.7c0-2.6-7.4-4.7-16.6-4.7
				C92,88.7,83.7,90.3,83.7,92.8z"/>
			<path fill="#37474F" d="M101.2,99.5c-7.9,0-18.9-2.1-18.9-6.6c0-5.3,14.5-5.7,18.9-5.7c6.7,0,18.1,1.3,18.1,6.2
				S107.9,99.5,101.2,99.5z M85.3,92.9c0.5,1,6.6,3.6,15.9,3.6c9.9,0,14.8-2.3,15.1-3.2c-0.3-0.8-5.2-3.1-15.1-3.1
				C91.2,90.2,85.9,91.9,85.3,92.9z"/>
		</g>
	</g>
</g>
</svg>
